<svg width="24" height="24" viewBox="0 0 24 24" fill="none" xmlns="http://www.w3.org/2000/svg">
<path d="M13 6.00019L18 11.0002L8.493 20.5072C8.16402 20.1781 7.97821 19.7325 7.97596 19.2672C7.97371 18.8018 8.15521 18.3544 8.481 18.0222L8.478 18.0192C8.15086 18.3535 7.70431 18.5441 7.23659 18.5492C6.76888 18.5543 6.31831 18.3733 5.984 18.0462C5.64969 17.719 5.45904 17.2725 5.45398 16.8048C5.44891 16.3371 5.62986 15.8865 5.957 15.5522L5.949 15.5442C5.61516 15.858 5.17236 16.0297 4.71421 16.023C4.25607 16.0163 3.8185 15.8317 3.494 15.5082L13 6.00019ZM20.586 5.58619L18.414 3.41419C18.0389 3.03924 17.5303 2.82861 17 2.82861C16.4697 2.82861 15.9611 3.03924 15.586 3.41419L14 5.00019L19 10.0002L20.586 8.41419C20.9609 8.03913 21.1716 7.53051 21.1716 7.00019C21.1716 6.46986 20.9609 5.96124 20.586 5.58619ZM3 18.0002V21.0002H6C6 20.2045 5.68393 19.4415 5.12132 18.8789C4.55871 18.3163 3.79565 18.0002 3 18.0002Z" fill="#CAE48B"/>
<path d="M20.586 5.58619L18.414 3.41419C18.0389 3.03924 17.5303 2.82861 17 2.82861C16.4697 2.82861 15.9611 3.03924 15.586 3.41419L14 5.00019L19 10.0002L20.586 8.41419C20.9609 8.03913 21.1716 7.53051 21.1716 7.00019C21.1716 6.46986 20.9609 5.96124 20.586 5.58619ZM3 18.0002V21.0002H6C6 20.2045 5.68393 19.4415 5.12132 18.8789C4.55871 18.3163 3.79565 18.0002 3 18.0002Z" fill="#FF8B61"/>
</svg>
