<svg width="24" height="24" viewBox="0 0 24 24" fill="none" xmlns="http://www.w3.org/2000/svg">
<path fill-rule="evenodd" clip-rule="evenodd" d="M3 11C3 10.4477 3.44772 10 4 10H20C20.5523 10 21 10.4477 21 11C21 11.5523 20.5523 12 20 12H4C3.44772 12 3 11.5523 3 11Z" fill="#404040"/>
<path fill-rule="evenodd" clip-rule="evenodd" d="M3 7C3 5.34315 4.34315 4 6 4H18C19.6569 4 21 5.34315 21 7V19C21 20.6569 19.6569 22 18 22H6C4.34315 22 3 20.6569 3 19V7ZM6 6C5.44771 6 5 6.44771 5 7V19C5 19.5523 5.44771 20 6 20H18C18.5523 20 19 19.5523 19 19V7C19 6.44771 18.5523 6 18 6H6Z" fill="#404040"/>
<path fill-rule="evenodd" clip-rule="evenodd" d="M15 2C15.5523 2 16 2.44772 16 3V7C16 7.55228 15.5523 8 15 8C14.4477 8 14 7.55228 14 7V3C14 2.44772 14.4477 2 15 2Z" fill="#404040"/>
<path fill-rule="evenodd" clip-rule="evenodd" d="M9 2C9.55228 2 10 2.44772 10 3V7C10 7.55228 9.55228 8 9 8C8.44772 8 8 7.55228 8 7V3C8 2.44772 8.44772 2 9 2Z" fill="#404040"/>
</svg>
