<svg width="24" height="24" viewBox="0 0 24 24" fill="none" xmlns="http://www.w3.org/2000/svg">
<path d="M10 5H4" stroke="#666F7E" stroke-width="2" stroke-linecap="round"/>
<path d="M14 5H20" stroke="#666F7E" stroke-width="2" stroke-linecap="round"/>
<path d="M16 12H4" stroke="#666F7E" stroke-width="2" stroke-linecap="round"/>
<path d="M8 19H20" stroke="#666F7E" stroke-width="2" stroke-linecap="round"/>
<path d="M8 19C8 17.8954 7.10457 17 6 17C4.89543 17 4 17.8954 4 19C4 20.1046 4.89543 21 6 21C7.10457 21 8 20.1046 8 19Z" stroke="#666F7E" stroke-width="2" stroke-linecap="round"/>
<path d="M20 12C20 10.8954 19.1046 10 18 10C16.8954 10 16 10.8954 16 12C16 13.1046 16.8954 14 18 14C19.1046 14 20 13.1046 20 12Z" stroke="#666F7E" stroke-width="2" stroke-linecap="round"/>
<path d="M14 5C14 3.89543 13.1046 3 12 3C10.8954 3 10 3.89543 10 5C10 6.10457 10.8954 7 12 7C13.1046 7 14 6.10457 14 5Z" stroke="#666F7E" stroke-width="2" stroke-linecap="round"/>
<path fill-rule="evenodd" clip-rule="evenodd" d="M3 5C3 4.44772 3.44772 4 4 4H10C10.5523 4 11 4.44772 11 5C11 5.55228 10.5523 6 10 6H4C3.44772 6 3 5.55228 3 5Z" fill="#666F7E"/>
<path fill-rule="evenodd" clip-rule="evenodd" d="M13 5C13 4.44772 13.4477 4 14 4H20C20.5523 4 21 4.44772 21 5C21 5.55228 20.5523 6 20 6H14C13.4477 6 13 5.55228 13 5Z" fill="#666F7E"/>
<path fill-rule="evenodd" clip-rule="evenodd" d="M3 12C3 11.4477 3.44772 11 4 11H16C16.5523 11 17 11.4477 17 12C17 12.5523 16.5523 13 16 13H4C3.44772 13 3 12.5523 3 12Z" fill="#666F7E"/>
<path fill-rule="evenodd" clip-rule="evenodd" d="M7 19C7 18.4477 7.44772 18 8 18H20C20.5523 18 21 18.4477 21 19C21 19.5523 20.5523 20 20 20H8C7.44772 20 7 19.5523 7 19Z" fill="#666F7E"/>
<path fill-rule="evenodd" clip-rule="evenodd" d="M3 19C3 17.3431 4.34315 16 6 16C7.65685 16 9 17.3431 9 19C9 20.6569 7.65685 22 6 22C4.34315 22 3 20.6569 3 19ZM6 18C5.44771 18 5 18.4477 5 19C5 19.5523 5.44771 20 6 20C6.55229 20 7 19.5523 7 19C7 18.4477 6.55229 18 6 18Z" fill="#666F7E"/>
<path fill-rule="evenodd" clip-rule="evenodd" d="M15 12C15 10.3431 16.3431 9 18 9C19.6569 9 21 10.3431 21 12C21 13.6569 19.6569 15 18 15C16.3431 15 15 13.6569 15 12ZM18 11C17.4477 11 17 11.4477 17 12C17 12.5523 17.4477 13 18 13C18.5523 13 19 12.5523 19 12C19 11.4477 18.5523 11 18 11Z" fill="#666F7E"/>
<path fill-rule="evenodd" clip-rule="evenodd" d="M9 5C9 3.34315 10.3431 2 12 2C13.6569 2 15 3.34315 15 5C15 6.65685 13.6569 8 12 8C10.3431 8 9 6.65685 9 5ZM12 4C11.4477 4 11 4.44771 11 5C11 5.55229 11.4477 6 12 6C12.5523 6 13 5.55229 13 5C13 4.44771 12.5523 4 12 4Z" fill="#666F7E"/>
</svg>
