<svg width="24" height="24" viewBox="0 0 24 24" fill="none" xmlns="http://www.w3.org/2000/svg">
<path d="M3.9329 6.375C3.45533 6.375 3.04441 6.71269 2.95186 7.18121L2 12V13.25C2 13.8023 2.44772 14.25 3 14.25H3.11111V20C3.11111 20.5523 3.55883 21 4.11111 21H13.2222C13.7745 21 14.2222 20.5523 14.2222 20V14.25H18.6667V20C18.6667 20.5523 19.1144 21 19.6667 21H19.8889C20.4412 21 20.8889 20.5523 20.8889 20V14.25H21C21.5523 14.25 22 13.8023 22 13.25V12L21.0481 7.18121C20.9556 6.71269 20.5447 6.375 20.0671 6.375H3.9329ZM12 18.75H5.33333V14.25H12V18.75ZM20.8889 4.25C20.8889 4.80228 20.4412 5.25 19.8889 5.25H4.11111C3.55883 5.25 3.11111 4.80228 3.11111 4.25V4C3.11111 3.44772 3.55883 3 4.11111 3H19.8889C20.4412 3 20.8889 3.44772 20.8889 4V4.25Z" fill="#476DCE"/>
</svg>
