<svg width="16" height="16" viewBox="0 0 16 16" fill="none" xmlns="http://www.w3.org/2000/svg">
<path d="M2.89554 4.25C2.41796 4.25 2.00704 4.58769 1.9145 5.05621L1.33301 8V8.75926C1.33301 9.16836 1.66465 9.5 2.07375 9.5V13C2.07375 13.5523 2.52146 14 3.07375 14H8.48116C9.03344 14 9.48116 13.5523 9.48116 13V9.5H12.4441V13.2593C12.4441 13.6684 12.7758 14 13.1849 14C13.594 14 13.9256 13.6684 13.9256 13.2593V9.5C14.3347 9.5 14.6663 9.16836 14.6663 8.75926V8L14.0849 5.05621C13.9923 4.58769 13.5814 4.25 13.1038 4.25H2.89554ZM7.99967 12.5H3.55523V9.5H7.99967V12.5ZM13.9256 2.75C13.9256 3.16421 13.5898 3.5 13.1756 3.5H2.82375C2.40953 3.5 2.07375 3.16421 2.07375 2.75C2.07375 2.33579 2.40954 2 2.82375 2H13.1756C13.5898 2 13.9256 2.33579 13.9256 2.75Z" fill="#476DCE"/>
</svg>
