<svg width="36" height="36" viewBox="0 0 36 36" fill="none" xmlns="http://www.w3.org/2000/svg">
<rect x="0.5" y="0.5" width="35" height="35" rx="17.5" fill="white"/>
<path d="M10 19.5V24.9C10 26.6 11.39 28 13.1 28H22.9C24.6 28 26 26.61 26 24.9V19.5C26 19.22 25.78 19 25.5 19H10.5C10.22 19 10 19.22 10 19.5ZM14.88 24.38C14.65 24.62 14.33 24.75 14 24.75C13.92 24.75 13.84 24.74 13.76 24.73C13.68 24.71 13.6 24.69 13.52 24.65C13.45 24.62 13.37 24.58 13.31 24.54C13.24 24.49 13.17 24.44 13.12 24.38C12.88 24.15 12.75 23.83 12.75 23.5C12.75 23.17 12.88 22.85 13.12 22.62C13.17 22.56 13.24 22.51 13.31 22.46C13.37 22.42 13.45 22.38 13.52 22.35C13.6 22.31 13.68 22.29 13.76 22.27C14.16 22.19 14.59 22.33 14.88 22.62C15.12 22.85 15.25 23.17 15.25 23.5C15.25 23.83 15.12 24.15 14.88 24.38ZM22.88 24.38C22.83 24.44 22.76 24.49 22.69 24.54C22.63 24.58 22.55 24.62 22.48 24.65C22.4 24.69 22.32 24.71 22.25 24.73C22.16 24.74 22.08 24.75 22 24.75C21.92 24.75 21.84 24.74 21.76 24.73C21.68 24.71 21.6 24.69 21.52 24.65C21.45 24.62 21.37 24.58 21.31 24.54C21.24 24.49 21.17 24.44 21.12 24.38C20.88 24.15 20.75 23.83 20.75 23.5C20.75 23.17 20.88 22.85 21.12 22.62C21.17 22.56 21.24 22.51 21.31 22.46C21.37 22.42 21.45 22.38 21.52 22.35C21.6 22.31 21.68 22.29 21.76 22.27C21.92 22.24 22.08 22.24 22.25 22.27C22.32 22.29 22.4 22.31 22.48 22.35C22.55 22.38 22.63 22.42 22.69 22.46C22.76 22.51 22.83 22.56 22.88 22.62C23.12 22.85 23.25 23.17 23.25 23.5C23.25 23.83 23.12 24.15 22.88 24.38Z" fill="#FFA048"/>
<path d="M22.9 8H13.1C11.39 8 10 9.39 10 11.1V13.5C10 13.78 10.22 14 10.5 14H25.5C25.78 14 26 13.78 26 13.5V11.1C26 9.39 24.61 8 22.9 8ZM20.5 11.75H15.5C15.09 11.75 14.75 11.41 14.75 11C14.75 10.59 15.09 10.25 15.5 10.25H20.5C20.91 10.25 21.25 10.59 21.25 11C21.25 11.41 20.91 11.75 20.5 11.75Z" fill="#FFA048"/>
<path d="M25.5 18H10.5C10.22 18 10 17.78 10 17.5V15.5C10 15.22 10.22 15 10.5 15H25.5C25.78 15 26 15.22 26 15.5V17.5C26 17.78 25.78 18 25.5 18Z" fill="#FFA048"/>
<rect x="0.5" y="0.5" width="35" height="35" rx="17.5" stroke="#FFA048"/>
</svg>
