<svg width="24" height="24" viewBox="0 0 24 24" fill="none" xmlns="http://www.w3.org/2000/svg">
<path fill-rule="evenodd" clip-rule="evenodd" d="M9 5C9 3.34315 10.3431 2 12 2H19C20.6569 2 22 3.34315 22 5V12C22 13.6569 20.6569 15 19 15H17.5C16.9477 15 16.5 14.5523 16.5 14C16.5 13.4477 16.9477 13 17.5 13H19C19.5523 13 20 12.5523 20 12V5C20 4.44771 19.5523 4 19 4H12C11.4477 4 11 4.44771 11 5V6.5C11 7.05228 10.5523 7.5 10 7.5C9.44772 7.5 9 7.05228 9 6.5V5Z" fill="white"/>
<path fill-rule="evenodd" clip-rule="evenodd" d="M2 12C2 10.3431 3.34315 9 5 9H12C13.6569 9 15 10.3431 15 12V19C15 20.6569 13.6569 22 12 22H5C3.34315 22 2 20.6569 2 19V12ZM5 11C4.44771 11 4 11.4477 4 12V19C4 19.5523 4.44771 20 5 20H12C12.5523 20 13 19.5523 13 19V12C13 11.4477 12.5523 11 12 11H5Z" fill="white"/>
</svg>
