<svg width="24" height="24" viewBox="0 0 24 24" fill="none" xmlns="http://www.w3.org/2000/svg">
<path fill-rule="evenodd" clip-rule="evenodd" d="M19.9291 10C19.4906 6.93431 17.0657 4.5094 14 4.07089V10H19.9291ZM13 2C12.4477 2 12 2.44772 12 3V11C12 11.5523 12.4477 12 13 12H21C21.5523 12 22 11.5523 22 11C22 6.02944 17.9706 2 13 2Z" fill="#404040"/>
<mask id="mask0_26_11404" style="mask-type:alpha" maskUnits="userSpaceOnUse" x="2" y="4" width="18" height="18">
<path fill-rule="evenodd" clip-rule="evenodd" d="M10.991 6C7.13017 6 4 9.13396 4 13C4 16.866 7.13017 20 10.991 20C14.8647 20 18 16.8621 18 13C18 9.13787 14.8647 6 10.991 6ZM2 13C2 8.032 6.023 4 10.991 4C15.968 4 20 8.032 20 13C20 17.968 15.968 22 10.991 22C6.023 22 2 17.968 2 13Z" fill="#404040"/>
</mask>
<g mask="url(#mask0_26_11404)">
<path d="M13 11V2H1V22H22V11H13Z" fill="#404040"/>
</g>
</svg>
