<svg width="24" height="24" viewBox="0 0 24 24" fill="none" xmlns="http://www.w3.org/2000/svg">
<path d="M22.4392 12.4575L20.1892 7.20745C20.1318 7.07189 20.0358 6.95622 19.9131 6.87487C19.7904 6.79352 19.6464 6.75007 19.4992 6.74995H17.2492V5.24995C17.2492 5.05104 17.1702 4.86027 17.0295 4.71962C16.8889 4.57897 16.6981 4.49995 16.4992 4.49995H2.24922C2.05031 4.49995 1.85954 4.57897 1.71889 4.71962C1.57824 4.86027 1.49922 5.05104 1.49922 5.24995V18C1.49922 18.1989 1.57824 18.3896 1.71889 18.5303C1.85954 18.6709 2.05031 18.75 2.24922 18.75H3.85422C4.02693 19.3855 4.40397 19.9465 4.92717 20.3465C5.45036 20.7465 6.09064 20.9632 6.74922 20.9632C7.4078 20.9632 8.04807 20.7465 8.57127 20.3465C9.09447 19.9465 9.47151 19.3855 9.64422 18.75H14.3542C14.5269 19.3855 14.904 19.9465 15.4272 20.3465C15.9504 20.7465 16.5906 20.9632 17.2492 20.9632C17.9078 20.9632 18.5481 20.7465 19.0713 20.3465C19.5945 19.9465 19.9715 19.3855 20.1442 18.75H21.7492C21.9481 18.75 22.1389 18.6709 22.2795 18.5303C22.4202 18.3896 22.4992 18.1989 22.4992 18V12.75C22.499 12.6494 22.4786 12.5499 22.4392 12.4575ZM17.2492 8.24995H19.0042L20.6092 12H17.2492V8.24995ZM6.74922 19.5C6.45255 19.5 6.16254 19.412 5.91586 19.2472C5.66919 19.0823 5.47693 18.8481 5.3634 18.574C5.24987 18.2999 5.22016 17.9983 5.27804 17.7073C5.33592 17.4163 5.47878 17.1491 5.68856 16.9393C5.89834 16.7295 6.16561 16.5867 6.45658 16.5288C6.74755 16.4709 7.04915 16.5006 7.32324 16.6141C7.59733 16.7277 7.8316 16.9199 7.99642 17.1666C8.16124 17.4133 8.24922 17.7033 8.24922 18C8.24922 18.3978 8.09118 18.7793 7.80988 19.0606C7.52857 19.3419 7.14704 19.5 6.74922 19.5ZM14.3542 17.25H9.64422C9.47151 16.6144 9.09447 16.0534 8.57127 15.6534C8.04807 15.2534 7.4078 15.0367 6.74922 15.0367C6.09064 15.0367 5.45036 15.2534 4.92717 15.6534C4.40397 16.0534 4.02693 16.6144 3.85422 17.25H2.99922V5.99995H15.7492V15.42C15.4077 15.6182 15.1087 15.8818 14.8693 16.1959C14.6299 16.5099 14.4549 16.8681 14.3542 17.25ZM17.2492 19.5C16.9525 19.5 16.6625 19.412 16.4159 19.2472C16.1692 19.0823 15.9769 18.8481 15.8634 18.574C15.7499 18.2999 15.7202 17.9983 15.778 17.7073C15.8359 17.4163 15.9788 17.1491 16.1886 16.9393C16.3983 16.7295 16.6656 16.5867 16.9566 16.5288C17.2476 16.4709 17.5492 16.5006 17.8232 16.6141C18.0973 16.7277 18.3316 16.9199 18.4964 17.1666C18.6612 17.4133 18.7492 17.7033 18.7492 18C18.7492 18.3978 18.5912 18.7793 18.3099 19.0606C18.0286 19.3419 17.647 19.5 17.2492 19.5ZM20.9992 17.25H20.1442C19.9784 16.6076 19.6043 16.0383 19.0804 15.6312C18.5566 15.2241 17.9126 15.0021 17.2492 15V13.5H20.9992V17.25Z" fill="#666F7E"/>
<path fill-rule="evenodd" clip-rule="evenodd" d="M22.7152 12.3399C22.7704 12.4694 22.7989 12.6086 22.7992 12.7494V18C22.7992 18.2784 22.6886 18.5455 22.4917 18.7424C22.2948 18.9393 22.0277 19.05 21.7492 19.05H20.3651C20.1532 19.6577 19.7675 20.1919 19.2535 20.5848C18.678 21.0248 17.9737 21.2632 17.2492 21.2632C16.5248 21.2632 15.8205 21.0248 15.245 20.5848C14.731 20.1919 14.3452 19.6577 14.1333 19.05H9.86514C9.6532 19.6577 9.26745 20.1919 8.75348 20.5848C8.17796 21.0248 7.47365 21.2632 6.74922 21.2632C6.02478 21.2632 5.32048 21.0248 4.74496 20.5848C4.23098 20.1919 3.84523 19.6577 3.63329 19.05H2.24922C1.97074 19.05 1.70367 18.9393 1.50676 18.7424C1.30984 18.5455 1.19922 18.2784 1.19922 18V5.24995C1.19922 4.97147 1.30984 4.7044 1.50676 4.50749C1.70367 4.31058 1.97074 4.19995 2.24922 4.19995H16.4992C16.7777 4.19995 17.0448 4.31058 17.2417 4.50749C17.4386 4.7044 17.5492 4.97147 17.5492 5.24995V6.44995H19.4992C19.7053 6.45012 19.9071 6.51094 20.0788 6.62484C20.2503 6.73854 20.3846 6.90013 20.4651 7.0895C20.4652 7.08982 20.4653 7.09013 20.4655 7.09045L22.7152 12.3399ZM3.85422 18.75H2.24922C2.05031 18.75 1.85954 18.6709 1.71889 18.5303C1.57824 18.3896 1.49922 18.1989 1.49922 18V5.24995C1.49922 5.05104 1.57824 4.86027 1.71889 4.71962C1.85954 4.57897 2.05031 4.49995 2.24922 4.49995H16.4992C16.6981 4.49995 16.8889 4.57897 17.0295 4.71962C17.1702 4.86027 17.2492 5.05104 17.2492 5.24995V6.74995H19.4992C19.6464 6.75007 19.7904 6.79352 19.9131 6.87487C20.0358 6.95622 20.1318 7.07189 20.1892 7.20745L22.4392 12.4575C22.4786 12.5499 22.499 12.6494 22.4992 12.75V18C22.4992 18.1989 22.4202 18.3896 22.2795 18.5303C22.1389 18.6709 21.9481 18.75 21.7492 18.75H20.1442C19.9715 19.3855 19.5945 19.9465 19.0713 20.3465C18.5481 20.7465 17.9078 20.9632 17.2492 20.9632C16.5906 20.9632 15.9504 20.7465 15.4272 20.3465C14.904 19.9465 14.5269 19.3855 14.3542 18.75H9.64422C9.47151 19.3855 9.09447 19.9465 8.57127 20.3465C8.04807 20.7465 7.4078 20.9632 6.74922 20.9632C6.09064 20.9632 5.45036 20.7465 4.92717 20.3465C4.40397 19.9465 4.02693 19.3855 3.85422 18.75ZM18.8063 8.54995H17.5492V11.7H20.1545L18.8063 8.54995ZM19.0042 8.24995H17.2492V12H20.6092L19.0042 8.24995ZM6.08253 18.9977C6.27987 19.1296 6.51188 19.2 6.74922 19.2C7.06748 19.2 7.3727 19.0735 7.59775 18.8485C7.82279 18.6234 7.94922 18.3182 7.94922 18C7.94922 17.7626 7.87884 17.5306 7.74698 17.3333C7.61512 17.1359 7.42771 16.9821 7.20844 16.8913C6.98917 16.8005 6.74789 16.7767 6.51511 16.823C6.28233 16.8693 6.06851 16.9836 5.90069 17.1514C5.73287 17.3192 5.61858 17.5331 5.57228 17.7658C5.52597 17.9986 5.54974 18.2399 5.64056 18.4592C5.73139 18.6784 5.8852 18.8659 6.08253 18.9977ZM14.1316 16.95C14.2462 16.6136 14.4146 16.2974 14.6307 16.014C14.8585 15.7152 15.1354 15.4578 15.4492 15.2526V6.29995H3.29922V16.95H3.63329C3.84523 16.3422 4.23098 15.808 4.74496 15.4151C5.32048 14.9751 6.02478 14.7367 6.74922 14.7367C7.47365 14.7367 8.17796 14.9751 8.75348 15.4151C9.26745 15.808 9.6532 16.3422 9.86514 16.95H14.1316ZM9.64422 17.25H14.3542C14.4549 16.8681 14.6299 16.5099 14.8693 16.1959C15.1087 15.8818 15.4077 15.6182 15.7492 15.42V5.99995H2.99922V17.25H3.85422C4.02693 16.6144 4.40397 16.0534 4.92717 15.6534C5.45036 15.2534 6.09064 15.0367 6.74922 15.0367C7.4078 15.0367 8.04807 15.2534 8.57127 15.6534C9.09447 16.0534 9.47151 16.6144 9.64422 17.25ZM16.5825 18.9977C16.7799 19.1296 17.0119 19.2 17.2492 19.2C17.5675 19.2 17.8727 19.0735 18.0977 18.8485C18.3228 18.6234 18.4492 18.3182 18.4492 18C18.4492 17.7626 18.3788 17.5306 18.247 17.3333C18.1151 17.1359 17.9277 16.9821 17.7084 16.8913C17.4892 16.8005 17.2479 16.7767 17.0151 16.823C16.7823 16.8693 16.5685 16.9836 16.4007 17.1514C16.2329 17.3192 16.1186 17.5331 16.0723 17.7658C16.026 17.9986 16.0497 18.2399 16.1406 18.4592C16.2314 18.6784 16.3852 18.8659 16.5825 18.9977ZM20.368 16.95H20.6992V13.8H17.5492V14.7145C18.1719 14.7732 18.7674 15.008 19.2645 15.3943C19.7788 15.794 20.1619 16.3358 20.368 16.95ZM20.1442 17.25C19.9784 16.6076 19.6043 16.0383 19.0804 15.6312C18.5566 15.2241 17.9126 15.0021 17.2492 15V13.5H20.9992V17.25H20.1442ZM5.91586 19.2472C6.16254 19.412 6.45255 19.5 6.74922 19.5C7.14704 19.5 7.52857 19.3419 7.80988 19.0606C8.09118 18.7793 8.24922 18.3978 8.24922 18C8.24922 17.7033 8.16124 17.4133 7.99642 17.1666C7.8316 16.9199 7.59733 16.7277 7.32324 16.6141C7.04915 16.5006 6.74755 16.4709 6.45658 16.5288C6.16561 16.5867 5.89834 16.7295 5.68856 16.9393C5.47878 17.1491 5.33592 17.4163 5.27804 17.7073C5.22016 17.9983 5.24987 18.2999 5.3634 18.574C5.47693 18.8481 5.66919 19.0823 5.91586 19.2472ZM16.4159 19.2472C16.6625 19.412 16.9525 19.5 17.2492 19.5C17.647 19.5 18.0286 19.3419 18.3099 19.0606C18.5912 18.7793 18.7492 18.3978 18.7492 18C18.7492 17.7033 18.6612 17.4133 18.4964 17.1666C18.3316 16.9199 18.0973 16.7277 17.8232 16.6141C17.5492 16.5006 17.2476 16.4709 16.9566 16.5288C16.6656 16.5867 16.3983 16.7295 16.1886 16.9393C15.9788 17.1491 15.8359 17.4163 15.778 17.7073C15.7202 17.9983 15.7499 18.2999 15.8634 18.574C15.9769 18.8481 16.1692 19.0823 16.4159 19.2472Z" fill="#666F7E"/>
</svg>
