<svg width="24" height="24" viewBox="0 0 24 24" fill="none" xmlns="http://www.w3.org/2000/svg">
<path d="M9.11994 13.31C8.48994 13.31 7.85993 13.08 7.35993 12.61C5.76993 11.1 5.12996 9.44005 5.50996 7.82005C5.88996 6.16005 7.33994 5.04004 9.11994 5.04004C10.8999 5.04004 12.35 6.16005 12.73 7.82005C13.1 9.45005 12.4599 11.1 10.8699 12.61C10.3799 13.07 9.74994 13.31 9.11994 13.31ZM6.96995 8.15004C6.64995 9.51004 7.56994 10.7301 8.39994 11.5201C8.80994 11.9101 9.43994 11.9101 9.83994 11.5201C10.6599 10.7401 11.5799 9.52004 11.2699 8.15004C10.9999 6.96004 9.93994 6.53004 9.11994 6.53004C8.29994 6.53004 7.24995 6.96004 6.96995 8.15004Z" fill="#404040"/>
<path d="M9.15039 9.48999C8.60039 9.48999 8.15039 9.03999 8.15039 8.48999C8.15039 7.93999 8.59039 7.48999 9.15039 7.48999H9.1604C9.7104 7.48999 10.1604 7.93999 10.1604 8.48999C10.1604 9.03999 9.70039 9.48999 9.15039 9.48999Z" fill="#404040"/>
<path fill-rule="evenodd" clip-rule="evenodd" d="M16 3H8C5.23858 3 3 5.23858 3 8V16C3 18.7614 5.23858 21 8 21H16C18.7614 21 21 18.7614 21 16V8C21 5.23858 18.7614 3 16 3ZM8 1C4.13401 1 1 4.13401 1 8V16C1 19.866 4.13401 23 8 23H16C19.866 23 23 19.866 23 16V8C23 4.13401 19.866 1 16 1H8Z" fill="#404040"/>
<path fill-rule="evenodd" clip-rule="evenodd" d="M5.29297 21.293L21.293 5.29297L22.7072 6.70718L6.70718 22.7072L5.29297 21.293Z" fill="#404040"/>
<path fill-rule="evenodd" clip-rule="evenodd" d="M14.707 13.293L20.707 19.293L19.2928 20.7072L13.2928 14.7072L14.707 13.293Z" fill="#404040"/>
</svg>
