<svg width="24" height="24" viewBox="0 0 24 24" fill="none" xmlns="http://www.w3.org/2000/svg">
<path fill-rule="evenodd" clip-rule="evenodd" d="M6 3C5.20435 3 4.44129 3.31607 3.87868 3.87868C3.31607 4.44129 3 5.20435 3 6V18C3 18.7956 3.31607 19.5587 3.87868 20.1213C4.44129 20.6839 5.20435 21 6 21H17C17.2652 21 17.5196 20.8946 17.7071 20.7071C17.8946 20.5196 18 20.2652 18 20C18 19.7348 17.8946 19.4804 17.7071 19.2929C17.5196 19.1054 17.2652 19 17 19H6C5.73478 19 5.48043 18.8946 5.29289 18.7071C5.10536 18.5196 5 18.2652 5 18V6C5 5.73478 5.10536 5.48043 5.29289 5.29289C5.48043 5.10536 5.73478 5 6 5H17C17.2652 5 17.5196 4.89464 17.7071 4.70711C17.8946 4.51957 18 4.26522 18 4C18 3.73478 17.8946 3.48043 17.7071 3.29289C17.5196 3.10536 17.2652 3 17 3H6ZM15.707 7.293C15.6148 7.19749 15.5044 7.12131 15.3824 7.0689C15.2604 7.01649 15.1292 6.9889 14.9964 6.98775C14.8636 6.9866 14.7319 7.0119 14.609 7.06218C14.4861 7.11246 14.3745 7.18671 14.2806 7.2806C14.1867 7.3745 14.1125 7.48615 14.0622 7.60905C14.0119 7.73194 13.9866 7.86362 13.9877 7.9964C13.9889 8.12918 14.0165 8.2604 14.0689 8.3824C14.1213 8.50441 14.1975 8.61475 14.293 8.707L16.586 11H8C7.73478 11 7.48043 11.1054 7.29289 11.2929C7.10536 11.4804 7 11.7348 7 12C7 12.2652 7.10536 12.5196 7.29289 12.7071C7.48043 12.8946 7.73478 13 8 13H16.586L14.293 15.293C14.1108 15.4816 14.01 15.7342 14.0123 15.9964C14.0146 16.2586 14.1198 16.5094 14.3052 16.6948C14.4906 16.8802 14.7414 16.9854 15.0036 16.9877C15.2658 16.99 15.5184 16.8892 15.707 16.707L19.707 12.707C19.8945 12.5195 19.9998 12.2652 19.9998 12C19.9998 11.7348 19.8945 11.4805 19.707 11.293L15.707 7.293V7.293Z" fill="white"/>
</svg>
