<svg width="36" height="36" viewBox="0 0 36 36" fill="none" xmlns="http://www.w3.org/2000/svg">
<rect x="0.5" y="0.5" width="35" height="35" rx="17.5" fill="white"/>
<path d="M18.75 21.9201H19.4C20.05 21.9201 20.59 21.3401 20.59 20.6401C20.59 19.7701 20.28 19.6001 19.77 19.4201L18.76 19.0701V21.9201H18.75Z" fill="#87B712"/>
<path d="M17.9701 7.89992C12.4501 7.91992 7.98007 12.4099 8.00007 17.9299C8.02007 23.4499 12.5101 27.9199 18.0301 27.8999C23.5501 27.8799 28.0201 23.3899 28.0001 17.8699C27.9801 12.3499 23.4901 7.88992 17.9701 7.89992ZM20.2601 17.9999C21.0401 18.2699 22.0901 18.8499 22.0901 20.6399C22.0901 22.1799 20.8801 23.4199 19.4001 23.4199H18.7501V23.9999C18.7501 24.4099 18.4101 24.7499 18.0001 24.7499C17.5901 24.7499 17.2501 24.4099 17.2501 23.9999V23.4199H16.8901C15.2501 23.4199 13.9201 22.0399 13.9201 20.3399C13.9201 19.9299 14.2601 19.5899 14.6701 19.5899C15.0801 19.5899 15.4201 19.9299 15.4201 20.3399C15.4201 21.2099 16.0801 21.9199 16.8901 21.9199H17.2501V18.5399L15.7401 17.9999C14.9601 17.7299 13.9101 17.1499 13.9101 15.3599C13.9101 13.8199 15.1201 12.5799 16.6001 12.5799H17.2501V11.9999C17.2501 11.5899 17.5901 11.2499 18.0001 11.2499C18.4101 11.2499 18.7501 11.5899 18.7501 11.9999V12.5799H19.1101C20.7501 12.5799 22.0801 13.9599 22.0801 15.6599C22.0801 16.0699 21.7401 16.4099 21.3301 16.4099C20.9201 16.4099 20.5801 16.0699 20.5801 15.6599C20.5801 14.7899 19.9201 14.0799 19.1101 14.0799H18.7501V17.4599L20.2601 17.9999Z" fill="#87B712"/>
<path d="M15.4199 15.3701C15.4199 16.2401 15.7299 16.4101 16.2399 16.5901L17.2499 16.9401V14.0801H16.5999C15.9499 14.0801 15.4199 14.6601 15.4199 15.3701Z" fill="#87B712"/>
<rect x="0.5" y="0.5" width="35" height="35" rx="17.5" stroke="#87B712"/>
</svg>
