<svg width="24" height="24" viewBox="0 0 24 24" fill="none" xmlns="http://www.w3.org/2000/svg">
<path fill-rule="evenodd" clip-rule="evenodd" d="M7 17C7 16.4477 7.44772 16 8 16H16C16.5523 16 17 16.4477 17 17C17 17.5523 16.5523 18 16 18H8C7.44772 18 7 17.5523 7 17Z" fill="white"/>
<path fill-rule="evenodd" clip-rule="evenodd" d="M7 13C7 12.4477 7.44772 12 8 12H14C14.5523 12 15 12.4477 15 13C15 13.5523 14.5523 14 14 14H8C7.44772 14 7 13.5523 7 13Z" fill="white"/>
<path fill-rule="evenodd" clip-rule="evenodd" d="M4 4.5C4 3.94772 4.44772 3.5 5 3.5H9C9.55228 3.5 10 3.94772 10 4.5C10 5.05228 9.55228 5.5 9 5.5H6V20H18V5.5H15C14.4477 5.5 14 5.05228 14 4.5C14 3.94772 14.4477 3.5 15 3.5H19C19.5523 3.5 20 3.94772 20 4.5V21C20 21.5523 19.5523 22 19 22H5C4.44772 22 4 21.5523 4 21V4.5Z" fill="white"/>
<path fill-rule="evenodd" clip-rule="evenodd" d="M8 3C8 2.44772 8.44772 2 9 2H15C15.5523 2 16 2.44772 16 3V6C16 6.55228 15.5523 7 15 7H9C8.44772 7 8 6.55228 8 6V3ZM10 4V5H14V4H10Z" fill="white"/>
</svg>
