<svg width="24" height="24" viewBox="0 0 24 24" fill="none" xmlns="http://www.w3.org/2000/svg">
<path fill-rule="evenodd" clip-rule="evenodd" d="M4.99704 14.3908C5.3335 14.8288 5.25122 15.4566 4.81326 15.7931C4.17629 16.2824 4 16.7052 4 17.0001C4 17.2269 4.0993 17.5184 4.43166 17.8676C4.76893 18.222 5.30422 18.5867 6.04218 18.9147C7.51558 19.5695 9.62115 20.0001 12 20.0001C14.3789 20.0001 16.4844 19.5695 17.9578 18.9147C18.6958 18.5867 19.2311 18.222 19.5683 17.8676C19.9007 17.5184 20 17.2269 20 17.0001C20 16.7052 19.8237 16.2824 19.1867 15.793C18.7488 15.4565 18.6665 14.8287 19.003 14.3908C19.3395 13.9528 19.9673 13.8706 20.4053 14.2071C21.2997 14.8943 22 15.8377 22 17.0001C22 17.8777 21.5956 18.6385 21.0171 19.2464C20.4436 19.8491 19.6608 20.3464 18.7701 20.7423C16.9862 21.5351 14.5917 22.0001 12 22.0001C9.40829 22.0001 7.01386 21.5351 5.2299 20.7423C4.33918 20.3464 3.55645 19.8491 2.98287 19.2464C2.40438 18.6385 2 17.8777 2 17.0001C2 15.8377 2.70025 14.8943 3.59482 14.207C4.03278 13.8706 4.66058 13.9529 4.99704 14.3908Z" fill="#666F7E"/>
<path fill-rule="evenodd" clip-rule="evenodd" d="M5 9.22222C5 5.26809 8.10004 2 12 2C15.9 2 19 5.26808 19 9.22222C19 13.2205 15.8984 16.2746 12.4249 17.9052C12.1557 18.0316 11.8443 18.0316 11.5751 17.9052C8.10154 16.2746 5 13.2205 5 9.22222ZM12 4C9.27254 4 7 6.30348 7 9.22222C7 11.9661 9.06905 14.3844 12 15.8863C14.9309 14.3844 17 11.9661 17 9.22222C17 6.30348 14.7275 4 12 4Z" fill="#666F7E"/>
<path fill-rule="evenodd" clip-rule="evenodd" d="M12 5.5C12.5523 5.5 13 5.94772 13 6.5V11.5C13 12.0523 12.5523 12.5 12 12.5C11.4477 12.5 11 12.0523 11 11.5V6.5C11 5.94772 11.4477 5.5 12 5.5Z" fill="#666F7E"/>
<path fill-rule="evenodd" clip-rule="evenodd" d="M8.5 9C8.5 8.44772 8.94772 8 9.5 8H14.5C15.0523 8 15.5 8.44772 15.5 9C15.5 9.55228 15.0523 10 14.5 10H9.5C8.94772 10 8.5 9.55228 8.5 9Z" fill="#666F7E"/>
</svg>
