<svg width="24" height="24" viewBox="0 0 24 24" fill="none" xmlns="http://www.w3.org/2000/svg">
<path fill-rule="evenodd" clip-rule="evenodd" d="M18 21C18.7956 21 19.5587 20.6839 20.1213 20.1213C20.6839 19.5587 21 18.7956 21 18L21 6C21 5.20435 20.6839 4.44129 20.1213 3.87868C19.5587 3.31607 18.7956 3 18 3L7 3C6.73478 3 6.48043 3.10536 6.29289 3.29289C6.10536 3.48043 6 3.73478 6 4C6 4.26522 6.10536 4.51957 6.29289 4.70711C6.48043 4.89464 6.73478 5 7 5L18 5C18.2652 5 18.5196 5.10536 18.7071 5.29289C18.8946 5.48043 19 5.73478 19 6L19 18C19 18.2652 18.8946 18.5196 18.7071 18.7071C18.5196 18.8946 18.2652 19 18 19L7 19C6.73478 19 6.48043 19.1054 6.29289 19.2929C6.10536 19.4804 6 19.7348 6 20C6 20.2652 6.10536 20.5196 6.29289 20.7071C6.48043 20.8946 6.73478 21 7 21L18 21Z" fill="#404040"/>
<path d="M12.3824 7.09339C12.5044 7.1458 12.6148 7.22199 12.707 7.3175L16.707 11.3175C16.8945 11.505 16.9998 11.7593 16.9998 12.0245C16.9998 12.2897 16.8945 12.544 16.707 12.7315L12.707 16.7315C12.5184 16.9137 12.2658 17.0144 12.0036 17.0122C11.7414 17.0099 11.4906 16.9047 11.3052 16.7193C11.1198 16.5339 11.0146 16.2831 11.0123 16.0209C11.01 15.7587 11.1108 15.5061 11.293 15.3175L13.586 13.0245L5 13.0245C4.73478 13.0245 4.48043 12.9191 4.29289 12.7316C4.10536 12.5441 4 12.2897 4 12.0245C4 11.7593 4.10536 11.5049 4.29289 11.3174C4.48043 11.1299 4.73478 11.0245 5 11.0245L13.586 11.0245L11.293 8.7315C11.1975 8.63925 11.1213 8.5289 11.0689 8.4069C11.0165 8.2849 10.9889 8.15368 10.9877 8.0209C10.9866 7.88812 11.0119 7.75644 11.0622 7.63354C11.1125 7.51065 11.1867 7.39899 11.2806 7.3051C11.3745 7.21121 11.4861 7.13695 11.609 7.08667C11.7319 7.03639 11.8636 7.01109 11.9964 7.01225C12.1292 7.0134 12.2604 7.04099 12.3824 7.09339Z" fill="#404040"/>
</svg>
