<svg width="24" height="24" viewBox="0 0 24 24" fill="none" xmlns="http://www.w3.org/2000/svg">
<path d="M12 1C6.47744 1 2 5.70131 2 11.5C2 17.2987 6.47744 22 12 22C17.5226 22 22 17.2987 22 11.5C22 5.70131 17.5226 1 12 1ZM17.2613 12.7745C16.1686 17.7476 12.9264 21.2069 10.0214 20.5011C7.11639 19.7977 5.64608 15.1937 6.73872 10.223C7.83136 5.24988 11.0736 1.79062 13.9786 2.49644C16.8836 3.19976 18.3539 7.8038 17.2613 12.7745V12.7745Z" fill="#666F7E" fill-opacity="0.6"/>
<path d="M14.9031 6.48873C14.5619 8.12734 13.4334 9.23062 12.3853 8.95887C11.3349 8.68713 10.7597 7.14363 11.096 5.50774C11.4372 3.87728 12.5608 2.77129 13.6113 3.04031C14.6642 3.31205 15.2419 4.85555 14.9031 6.48873Z" fill="#666F7E"/>
</svg>
