<svg width="24" height="24" viewBox="0 0 24 24" fill="none" xmlns="http://www.w3.org/2000/svg">
<path d="M10.84 13.54H9.34C8.19 13.54 7.26 12.58 7.26 11.39C7.26 10.98 7.6 10.64 8.01 10.64C8.42 10.64 8.76 10.98 8.76 11.39C8.76 11.75 9.02 12.04 9.34 12.04H10.84C11.07 12.04 11.25 11.83 11.25 11.57C11.25 11.22 11.19 11.2 10.96 11.12L8.55 10.28C7.68 9.97995 7.25 9.36995 7.25 8.41995C7.25 7.33995 8.11 6.44995 9.16 6.44995H10.66C11.81 6.44995 12.74 7.40995 12.74 8.59995C12.74 9.00995 12.4 9.34995 11.99 9.34995C11.58 9.34995 11.24 9.00995 11.24 8.59995C11.24 8.23995 10.98 7.94995 10.66 7.94995H9.16C8.93 7.94995 8.75 8.15995 8.75 8.41995C8.75 8.76995 8.81 8.78995 9.04 8.86995L11.45 9.70995C12.32 10.02 12.74 10.63 12.74 11.57C12.75 12.66 11.89 13.54 10.84 13.54Z" fill="#666F7E"/>
<path d="M10 14.3401C9.59 14.3401 9.25 14.0001 9.25 13.5901V12.8501C9.25 12.4401 9.59 12.1001 10 12.1001C10.41 12.1001 10.75 12.4401 10.75 12.8501V13.5901C10.75 14.0101 10.41 14.3401 10 14.3401Z" fill="#666F7E"/>
<path d="M10 7.93991C9.59 7.93991 9.25 7.59991 9.25 7.18991V6.40991C9.25 5.99991 9.59 5.65991 10 5.65991C10.41 5.65991 10.75 5.99991 10.75 6.40991V7.18991C10.75 7.59991 10.41 7.93991 10 7.93991Z" fill="#666F7E"/>
<path d="M9.9898 18.72C5.1698 18.72 1.2498 14.8 1.2498 9.98004C1.2498 5.16004 5.1698 1.24004 9.9898 1.24004C14.8098 1.24004 18.7298 5.16004 18.7298 9.98004C18.7298 14.8 14.7998 18.72 9.9898 18.72ZM9.9898 2.75004C5.9998 2.75004 2.7498 6.00004 2.7498 9.99004C2.7498 13.98 5.9998 17.22 9.9898 17.22C13.9798 17.22 17.2298 13.97 17.2298 9.98004C17.2298 5.99004 13.9798 2.75004 9.9898 2.75004Z" fill="#666F7E"/>
<path fill-rule="evenodd" clip-rule="evenodd" d="M9.9898 18.92C5.05935 18.92 1.0498 14.9105 1.0498 9.98004C1.0498 5.04958 5.05935 1.04004 9.9898 1.04004C14.9203 1.04004 18.9298 5.04958 18.9298 9.98004C18.9298 14.9106 14.9101 18.92 9.9898 18.92ZM9.9898 2.95004C6.11026 2.95004 2.9498 6.1105 2.9498 9.99004C2.9498 13.8692 6.1099 17.02 9.9898 17.02C13.8693 17.02 17.0298 13.8596 17.0298 9.98004C17.0298 6.10086 13.8697 2.95004 9.9898 2.95004ZM1.2498 9.98004C1.2498 14.8 5.1698 18.72 9.9898 18.72C14.7998 18.72 18.7298 14.8 18.7298 9.98004C18.7298 5.16004 14.8098 1.24004 9.9898 1.24004C5.1698 1.24004 1.2498 5.16004 1.2498 9.98004ZM2.7498 9.99004C2.7498 6.00004 5.9998 2.75004 9.9898 2.75004C13.9798 2.75004 17.2298 5.99004 17.2298 9.98004C17.2298 13.97 13.9798 17.22 9.9898 17.22C5.9998 17.22 2.7498 13.98 2.7498 9.99004Z" fill="#666F7E"/>
<path d="M17.0198 22.72C15.1698 22.72 13.4298 21.82 12.3598 20.3C12.1198 19.96 12.1998 19.49 12.5398 19.25C12.8798 19.01 13.3498 19.09 13.5898 19.43C14.3798 20.55 15.6598 21.21 17.0198 21.21C19.3398 21.21 21.2198 19.33 21.2198 17.01C21.2198 15.66 20.5598 14.38 19.4598 13.59C19.1198 13.35 19.0498 12.88 19.2898 12.54C19.5298 12.2 19.9998 12.13 20.3398 12.37C21.8298 13.44 22.7198 15.17 22.7198 17.01C22.7198 20.17 20.1698 22.72 17.0198 22.72Z" fill="#666F7E"/>
<path fill-rule="evenodd" clip-rule="evenodd" d="M13.7533 19.3147C14.5057 20.3815 15.7248 21.01 17.0198 21.01C19.2294 21.01 21.0198 19.2195 21.0198 17.01C21.0198 15.7251 20.3915 14.5056 19.3438 13.7529C18.9098 13.446 18.826 12.8503 19.1264 12.4246C19.4332 11.9901 20.0293 11.906 20.4552 12.2066L20.4565 12.2075C21.9988 13.315 22.9198 15.1055 22.9198 17.01C22.9198 20.2802 20.2805 22.92 17.0198 22.92C15.1048 22.92 13.3038 21.9884 12.1963 20.4151C11.8931 19.9853 11.9939 19.3905 12.4245 19.0866C12.8543 18.7832 13.4493 18.8841 13.7533 19.3147ZM19.4598 13.59C20.5598 14.38 21.2198 15.66 21.2198 17.01C21.2198 19.33 19.3398 21.21 17.0198 21.21C15.6598 21.21 14.3798 20.55 13.5898 19.43C13.3498 19.09 12.8798 19.01 12.5398 19.25C12.1998 19.49 12.1198 19.96 12.3598 20.3C13.4298 21.82 15.1698 22.72 17.0198 22.72C20.1698 22.72 22.7198 20.17 22.7198 17.01C22.7198 15.17 21.8298 13.44 20.3398 12.37C19.9998 12.13 19.5298 12.2 19.2898 12.54C19.0498 12.88 19.1198 13.35 19.4598 13.59Z" fill="#666F7E"/>
</svg>
