<svg width="24" height="24" viewBox="0 0 24 24" fill="none" xmlns="http://www.w3.org/2000/svg">
<path fill-rule="evenodd" clip-rule="evenodd" d="M19 10L5 10L5 11L19 11L19 10ZM21 9C21 8.44772 20.5523 8 20 8L4 8C3.44772 8 3 8.44771 3 9L3 12C3 12.5523 3.44772 13 4 13L20 13C20.5523 13 21 12.5523 21 12L21 9Z" fill="white"/>
<path fill-rule="evenodd" clip-rule="evenodd" d="M18 13L6 13L6 20L18 20L18 13ZM20 12C20 11.4477 19.5523 11 19 11L5 11C4.44772 11 4 11.4477 4 12L4 21C4 21.5523 4.44772 22 5 22L19 22C19.5523 22 20 21.5523 20 21L20 12Z" fill="white"/>
<path fill-rule="evenodd" clip-rule="evenodd" d="M11 22V12.5H13V22H11Z" fill="white"/>
<path fill-rule="evenodd" clip-rule="evenodd" d="M16.1226 8C16.6473 7.21612 17 6.36998 17 5.39782C17 3.58555 15.6636 2 13.8 2C13.1441 2 12.5221 2.2092 12 2.56108C11.4779 2.2092 10.8559 2 10.2 2C8.3364 2 7 3.58555 7 5.39782C7 6.37005 7.35277 7.21629 7.8776 8H10.4393C10.1712 7.70705 9.93733 7.43195 9.73733 7.16544C9.20736 6.45924 9 5.92042 9 5.39782C9 4.52453 9.5996 4 10.2 4C10.5596 4 10.9472 4.18794 11.212 4.52684L12 5.53541L12.788 4.52684C13.0528 4.18794 13.4404 4 13.8 4C14.4004 4 15 4.52453 15 5.39782C15 5.92043 14.7926 6.4593 14.2625 7.16624C14.0628 7.43249 13.8294 7.70732 13.562 8H16.1226Z" fill="white"/>
</svg>
