<svg width="24" height="24" viewBox="0 0 24 24" fill="none" xmlns="http://www.w3.org/2000/svg">
<path d="M11.2 12H4V20.5714C4 21.3604 4.71634 22 5.6 22H11.2V12Z" fill="#CAE48B"/>
<path d="M12.8 22H18.4C19.2837 22 20 21.3604 20 20.5714V12H12.8V22Z" fill="#CAE48B"/>
<rect x="21" y="8" width="3" height="18" rx="1" transform="rotate(90 21 8)" fill="#FF8B61"/>
<path d="M12 10L11.42 9.42452C9.36 7.38856 8 6.04578 8 4.39782C8 3.05504 8.968 2 10.2 2C10.896 2 11.564 2.35313 12 2.91117C12.436 2.35313 13.104 2 13.8 2C15.032 2 16 3.05504 16 4.39782C16 6.04578 14.64 7.38856 12.58 9.42888L12 10Z" fill="#FF8B61"/>
</svg>
