<svg width="24" height="24" viewBox="0 0 24 24" fill="none" xmlns="http://www.w3.org/2000/svg">
<path d="M9.69231 3C8.42692 3 7.38462 4.01625 7.38462 5.25V6.75H8.92308V5.25C8.92308 4.82775 9.25923 4.5 9.69231 4.5H14.3077C14.7408 4.5 15.0769 4.82775 15.0769 5.25V6.75H16.6154V5.25C16.6154 4.01625 15.5731 3 14.3077 3H9.69231ZM4.30769 7.5C3.69565 7.5 3.10868 7.73705 2.67591 8.15901C2.24313 8.58097 2 9.15326 2 9.75L2 18.75C2 19.3467 2.24313 19.919 2.67591 20.341C3.10868 20.7629 3.69565 21 4.30769 21H19.6923C20.9662 21 22 19.992 22 18.75V9.75C22 9.15326 21.7569 8.58097 21.3241 8.15901C20.8913 7.73705 20.3043 7.5 19.6923 7.5H4.30769ZM12 9.6795C12.6157 9.67901 13.2255 9.79689 13.7945 10.0264C14.3635 10.2559 14.8804 10.5926 15.3158 11.0171C15.7512 11.4416 16.0965 11.9456 16.3319 12.5004C16.5673 13.0551 16.6882 13.6497 16.6877 14.25C16.6882 14.8503 16.5673 15.4449 16.3319 15.9996C16.0965 16.5544 15.7512 17.0584 15.3158 17.4829C14.8804 17.9074 14.3635 18.2441 13.7945 18.4736C13.2255 18.7031 12.6157 18.821 12 18.8205C11.3843 18.821 10.7745 18.7031 10.2055 18.4736C9.63653 18.2441 9.11957 17.9074 8.68417 17.4829C8.24878 17.0584 7.90351 16.5544 7.66811 15.9996C7.43271 15.4449 7.3118 14.8503 7.31231 14.25C7.3118 13.6497 7.43271 13.0551 7.66811 12.5004C7.90351 11.9456 8.24878 11.4416 8.68417 11.0171C9.11957 10.5926 9.63653 10.2559 10.2055 10.0264C10.7745 9.79689 11.3843 9.67901 12 9.6795ZM11.2308 12V13.5H9.69231V15H11.2308V16.5H12.7692V15H14.3077V13.5H12.7692V12H11.2308Z" fill="#666F7E"/>
</svg>
