<svg width="24" height="24" viewBox="0 0 24 24" fill="none" xmlns="http://www.w3.org/2000/svg">
<path fill-rule="evenodd" clip-rule="evenodd" d="M3 6.5C3 5.39542 3.89544 4.5 5 4.5H19C20.1046 4.5 21 5.39545 21 6.5V15.5C21 16.6046 20.1046 17.5 19 17.5H5C3.89545 17.5 3 16.6046 3 15.5V6.5ZM19 6.5H5V15.5H19V6.5Z" fill="#FF8B61"/>
<path fill-rule="evenodd" clip-rule="evenodd" d="M1.5 17.75C1.5 16.5073 2.50738 15.5 3.75 15.5H20.25C21.4927 15.5 22.5 16.5073 22.5 17.75C22.5 18.9927 21.4927 20 20.25 20H3.75C2.50738 20 1.5 18.9927 1.5 17.75ZM3.75 17.5C3.6119 17.5 3.5 17.6119 3.5 17.75C3.5 17.8881 3.6119 18 3.75 18H20.25C20.3881 18 20.5 17.8881 20.5 17.75C20.5 17.6119 20.3881 17.5 20.25 17.5H3.75Z" fill="#FF8B61"/>
</svg>
