<svg width="36" height="36" viewBox="0 0 36 36" fill="none" xmlns="http://www.w3.org/2000/svg">
<rect x="0.5" y="0.5" width="35" height="35" rx="17.5" fill="white"/>
<path d="M20 8.92V17.23C20 18.25 19.17 19.08 18.15 19.08H9C8.45 19.08 8 18.63 8 18.08V11.69C8 9.65 9.65 8 11.69 8H19.07C19.59 8 20 8.41 20 8.92Z" fill="#EBC645"/>
<path d="M27.5 21.5C27.78 21.5 28 21.72 28 22V23C28 24.66 26.66 26 25 26C25 24.35 23.65 23 22 23C20.35 23 19 24.35 19 26H17C17 24.35 15.65 23 14 23C12.35 23 11 24.35 11 26C9.34 26 8 24.66 8 23V21C8 20.45 8.45 20 9 20H18.5C19.88 20 21 18.88 21 17.5V12C21 11.45 21.45 11 22 11H22.84C23.56 11 24.22 11.39 24.58 12.01L25.22 13.13C25.31 13.29 25.19 13.5 25 13.5C23.62 13.5 22.5 14.62 22.5 16V19C22.5 20.38 23.62 21.5 25 21.5H27.5Z" fill="#EBC645"/>
<path d="M14 28C15.1046 28 16 27.1046 16 26C16 24.8954 15.1046 24 14 24C12.8954 24 12 24.8954 12 26C12 27.1046 12.8954 28 14 28Z" fill="#EBC645"/>
<path d="M22 28C23.1046 28 24 27.1046 24 26C24 24.8954 23.1046 24 22 24C20.8954 24 20 24.8954 20 26C20 27.1046 20.8954 28 22 28Z" fill="#EBC645"/>
<path d="M28 18.53V20H25C24.45 20 24 19.55 24 19V16C24 15.45 24.45 15 25 15H26.29L27.74 17.54C27.91 17.84 28 18.18 28 18.53Z" fill="#EBC645"/>
<rect x="0.5" y="0.5" width="35" height="35" rx="17.5" stroke="#EBC645"/>
</svg>
