<svg width="24" height="24" viewBox="0 0 24 24" fill="none" xmlns="http://www.w3.org/2000/svg">
<path fill-rule="evenodd" clip-rule="evenodd" d="M4.99918 3C4.46874 3 3.96003 3.21071 3.58496 3.58579C3.20989 3.96086 2.99917 4.46957 2.99917 5V6.838L1.48917 11.368C1.39946 11.6375 1.36814 11.9229 1.39728 12.2054C1.42643 12.4879 1.51538 12.761 1.65821 13.0065C1.80105 13.2519 1.9945 13.4642 2.22571 13.6291C2.45691 13.794 2.72058 13.9079 2.99917 13.963V20C2.99917 20.5304 3.20989 21.0391 3.58496 21.4142C3.96003 21.7893 4.46874 22 4.99918 22H18.9992C19.5296 22 20.0383 21.7893 20.4134 21.4142C20.7885 21.0391 20.9992 20.5304 20.9992 20V13.963C21.2778 13.9079 21.5414 13.794 21.7726 13.6291C22.0039 13.4642 22.1973 13.2519 22.3401 13.0065C22.483 12.761 22.5719 12.4879 22.6011 12.2054C22.6302 11.9229 22.5989 11.6375 22.5092 11.368L20.9992 6.837V5C20.9992 4.46957 20.7885 3.96086 20.4134 3.58579C20.0383 3.21071 19.5296 3 18.9992 3H4.99918ZM14.9992 20H18.9992V14H4.99918V20H8.99918V17C8.99918 16.2044 9.31525 15.4413 9.87785 14.8787C10.4405 14.3161 11.2035 14 11.9992 14C12.7948 14 13.5579 14.3161 14.1205 14.8787C14.6831 15.4413 14.9992 16.2044 14.9992 17V20ZM10.9992 20H12.9992V17C12.9992 16.7348 12.8938 16.4804 12.7063 16.2929C12.5187 16.1054 12.2644 16 11.9992 16C11.734 16 11.4796 16.1054 11.2921 16.2929C11.1045 16.4804 10.9992 16.7348 10.9992 17V20ZM3.38618 12L4.72018 8H6.31918L5.65217 12H3.38618V12ZM7.67917 12L8.34618 8H10.9992V12H7.67917ZM12.9992 12V8H15.6522L16.3192 12H12.9992ZM18.3462 12L17.6792 8H19.2792L20.6122 12H18.3462ZM18.9992 5V6H4.99918V5H18.9992Z" fill="#84A92C"/>
</svg>
