<svg width="24" height="24" viewBox="0 0 24 24" fill="none" xmlns="http://www.w3.org/2000/svg">
<path fill-rule="evenodd" clip-rule="evenodd" d="M9.29335 2.29289C9.48089 2.10536 9.73524 2 10.0005 2H14.0005C14.2657 2 14.52 2.10536 14.7076 2.29289C14.8951 2.48043 15.0005 2.73478 15.0005 3V4.582C15.6901 4.86135 16.3373 5.23563 16.9235 5.694L18.2945 4.902C18.5241 4.7694 18.7971 4.73346 19.0533 4.8021C19.3094 4.87074 19.5278 5.03833 19.6605 5.268L21.6605 8.732C21.7263 8.84577 21.769 8.97139 21.7862 9.10169C21.8035 9.23199 21.7948 9.36441 21.7608 9.49137C21.7268 9.61833 21.6682 9.73735 21.5881 9.84161C21.5081 9.94587 21.4083 10.0333 21.2945 10.099L19.9245 10.889C20.027 11.6261 20.027 12.3739 19.9245 13.111L21.2945 13.902C21.5241 14.0346 21.6917 14.253 21.7604 14.5092C21.829 14.7654 21.7931 15.0383 21.6605 15.268L19.6605 18.732C19.5278 18.9617 19.3094 19.1293 19.0533 19.1979C18.7971 19.2665 18.5241 19.2306 18.2945 19.098L16.9235 18.306C16.3373 18.7644 15.6901 19.1386 15.0005 19.418V21C15.0005 21.2652 14.8951 21.5196 14.7076 21.7071C14.52 21.8946 14.2657 22 14.0005 22H10.0005C9.73524 22 9.48089 21.8946 9.29335 21.7071C9.10582 21.5196 9.00046 21.2652 9.00046 21V19.418C8.30546 19.136 7.65846 18.761 7.07746 18.306L5.70646 19.098C5.47678 19.2306 5.20383 19.2665 4.94766 19.1979C4.69149 19.1293 4.47307 18.9617 4.34046 18.732L2.34046 15.268C2.27464 15.1542 2.2319 15.0286 2.21468 14.8983C2.19745 14.768 2.20609 14.6356 2.24008 14.5086C2.27407 14.3817 2.33276 14.2627 2.41278 14.1584C2.49281 14.0541 2.5926 13.9667 2.70646 13.901L4.07646 13.111C3.9739 12.3739 3.9739 11.6261 4.07646 10.889L2.70646 10.098C2.47679 9.96539 2.3092 9.74697 2.24056 9.4908C2.17192 9.23463 2.20786 8.96168 2.34046 8.732L4.34046 5.268C4.47307 5.03833 4.69149 4.87074 4.94766 4.8021C5.20383 4.73346 5.47678 4.7694 5.70646 4.902L7.07746 5.694C7.66357 5.23562 8.31082 4.86134 9.00046 4.582V3C9.00046 2.73478 9.10582 2.48043 9.29335 2.29289ZM12 15C13.6569 15 15 13.6569 15 12C15 10.3431 13.6569 9 12 9C10.3431 9 9 10.3431 9 12C9 13.6569 10.3431 15 12 15Z" fill="#FF8B61"/>
</svg>
