<svg width="36" height="36" viewBox="0 0 36 36" fill="none" xmlns="http://www.w3.org/2000/svg">
<rect x="0.5" y="0.5" width="35" height="35" rx="17.5" fill="white"/>
<path d="M22.8291 21.6399C23.4991 21.1999 24.3791 21.6799 24.3791 22.4799V23.7699C24.3791 25.0399 23.3891 26.3999 22.1991 26.7999L19.0091 27.8599C18.4491 28.0499 17.5391 28.0499 16.9891 27.8599L13.7991 26.7999C12.5991 26.3999 11.6191 25.0399 11.6191 23.7699V22.4699C11.6191 21.6799 12.4991 21.1999 13.1591 21.6299L15.2191 22.9699C16.0091 23.4999 17.0091 23.7599 18.0091 23.7599C19.0091 23.7599 20.0091 23.4999 20.7991 22.9699L22.8291 21.6399Z" fill="#222222"/>
<path d="M25.9795 12.4601L19.9895 8.53006C18.9095 7.82006 17.1295 7.82006 16.0495 8.53006L10.0295 12.4601C8.09953 13.7101 8.09953 16.5401 10.0295 17.8001L11.6295 18.8401L16.0495 21.7201C17.1295 22.4301 18.9095 22.4301 19.9895 21.7201L24.3795 18.8401L25.7495 17.9401V21.0001C25.7495 21.4101 26.0895 21.7501 26.4995 21.7501C26.9095 21.7501 27.2495 21.4101 27.2495 21.0001V16.0801C27.6495 14.7901 27.2395 13.2901 25.9795 12.4601Z" fill="#222222"/>
<rect x="0.5" y="0.5" width="35" height="35" rx="17.5" stroke="#222222"/>
</svg>
