<svg width="24" height="24" viewBox="0 0 24 24" fill="none" xmlns="http://www.w3.org/2000/svg">
<path fill-rule="evenodd" clip-rule="evenodd" d="M11 20C11 19.4477 11.4477 19 12 19H20.5C21.0523 19 21.5 19.4477 21.5 20C21.5 20.5523 21.0523 21 20.5 21H12C11.4477 21 11 20.5523 11 20Z" fill="white"/>
<path fill-rule="evenodd" clip-rule="evenodd" d="M16.2929 2.29289C16.6834 1.90237 17.3166 1.90237 17.7071 2.29289L21.7071 6.29289C22.0976 6.68342 22.0976 7.31658 21.7071 7.70711L8.70711 20.7071C8.51957 20.8946 8.26522 21 8 21H4C3.44772 21 3 20.5523 3 20V16C3 15.7348 3.10536 15.4804 3.29289 15.2929L16.2929 2.29289ZM17 4.41421L5 16.4142V19H7.58579L19.5858 7L17 4.41421Z" fill="white"/>
<path fill-rule="evenodd" clip-rule="evenodd" d="M13.2929 5.29289C13.6834 4.90237 14.3166 4.90237 14.7071 5.29289L18.7071 9.29289C19.0976 9.68342 19.0976 10.3166 18.7071 10.7071C18.3166 11.0976 17.6834 11.0976 17.2929 10.7071L13.2929 6.70711C12.9024 6.31658 12.9024 5.68342 13.2929 5.29289Z" fill="white"/>
</svg>
