<svg width="16" height="16" viewBox="0 0 16 16" fill="none" xmlns="http://www.w3.org/2000/svg">
<path d="M3.33333 1.3335H4.66667V3.3335H3.33333V1.3335ZM6 1.3335H7.33333V3.3335H6V1.3335ZM8.66667 1.3335H10V3.3335H8.66667V1.3335ZM12.6667 6.00016H11.3333V5.3335C11.3333 5.15669 11.2631 4.98712 11.1381 4.86209C11.013 4.73707 10.8435 4.66683 10.6667 4.66683H2.66667C2.48986 4.66683 2.32029 4.73707 2.19526 4.86209C2.07024 4.98712 2 5.15669 2 5.3335V12.0002C2 12.5306 2.21071 13.0393 2.58579 13.4144C2.96086 13.7894 3.46957 14.0002 4 14.0002H9.33333C9.86377 14.0002 10.3725 13.7894 10.7475 13.4144C11.1226 13.0393 11.3333 12.5306 11.3333 12.0002H12.6667C13.402 12.0002 14 11.4022 14 10.6668V7.3335C14 6.59816 13.402 6.00016 12.6667 6.00016ZM11.3333 10.6668V7.3335H12.6667L12.668 10.6668H11.3333Z" fill="#905F43"/>
</svg>
