<svg width="24" height="24" viewBox="0 0 24 24" fill="none" xmlns="http://www.w3.org/2000/svg">
<path d="M13.89 6H6.11C4.4 6 3 7.30236 3 8.8931V19.4608C3 20.8097 4.04 21.3865 5.31 20.726L9.24 18.6887C9.66 18.4748 10.34 18.4748 10.75 18.6887L14.68 20.726C15.96 21.3772 17 20.8097 17 19.4608V8.8931C17 7.30236 15.6 6 13.89 6Z" fill="#CAE48B"/>
<path fill-rule="evenodd" clip-rule="evenodd" d="M10.1097 3H17.8897C19.5997 3 20.9997 4.30236 20.9997 5.8931V16.4608C20.9997 17.8097 19.9597 18.3772 18.6797 17.726L17.9995 17.3734V7.8931C17.9995 6.30236 16.5995 5 14.8895 5H7.15234C7.55946 3.84254 8.7343 3 10.1097 3Z" fill="#FF8B61"/>
</svg>
