<svg width="24" height="24" viewBox="0 0 24 24" fill="none" xmlns="http://www.w3.org/2000/svg">
<path fill-rule="evenodd" clip-rule="evenodd" d="M8 11C8 8.79088 9.7908 7 12 7C14.2092 7 16 8.79088 16 11C16 13.2092 14.2092 15 12 15C9.79082 15 8 13.2092 8 11ZM12 9C10.8954 9 10 9.89542 10 11C10 12.1046 10.8954 13 12 13C13.1046 13 14 12.1046 14 11C14 9.89542 13.1046 9 12 9Z" fill="#666F7E"/>
<path fill-rule="evenodd" clip-rule="evenodd" d="M3 11C3 6.02944 7.02944 2 12 2C16.9706 2 21 6.02944 21 11C21 16 16.9766 19.845 12.4124 21.911C12.1503 22.0297 11.8497 22.0297 11.5876 21.911C7.02343 19.845 3 16 3 11ZM12 4C8.134 4 5 7.134 5 11C5 14.7121 7.93948 17.9391 12 19.8963C16.0605 17.9391 19 14.7121 19 11C19 7.134 15.866 4 12 4Z" fill="#666F7E"/>
</svg>
