<svg width="36" height="36" viewBox="0 0 36 36" fill="none" xmlns="http://www.w3.org/2000/svg">
<rect x="0.5" y="0.5" width="35" height="35" rx="17.5" fill="white"/>
<path d="M28 25V28H8V25C8 24.45 8.45 24 9 24H27C27.55 24 28 24.45 28 25Z" fill="#0B008E" stroke="#0B008E" stroke-width="1.5" stroke-miterlimit="10" stroke-linecap="round" stroke-linejoin="round"/>
<path d="M13 17H11V24H13V17Z" fill="#0B008E"/>
<path d="M17 17H15V24H17V17Z" fill="#0B008E"/>
<path d="M21 17H19V24H21V17Z" fill="#0B008E"/>
<path d="M25 17H23V24H25V17Z" fill="#0B008E"/>
<path d="M29 28.75H7C6.59 28.75 6.25 28.41 6.25 28C6.25 27.59 6.59 27.25 7 27.25H29C29.41 27.25 29.75 27.59 29.75 28C29.75 28.41 29.41 28.75 29 28.75Z" fill="#0B008E"/>
<path d="M27.37 11.7501L18.37 8.15009C18.17 8.07009 17.83 8.07009 17.63 8.15009L8.63 11.7501C8.28 11.8901 8 12.3001 8 12.6801V16.0001C8 16.5501 8.45 17.0001 9 17.0001H27C27.55 17.0001 28 16.5501 28 16.0001V12.6801C28 12.3001 27.72 11.8901 27.37 11.7501ZM18 14.5001C17.17 14.5001 16.5 13.8301 16.5 13.0001C16.5 12.1701 17.17 11.5001 18 11.5001C18.83 11.5001 19.5 12.1701 19.5 13.0001C19.5 13.8301 18.83 14.5001 18 14.5001Z" fill="#0B008E"/>
<rect x="0.5" y="0.5" width="35" height="35" rx="17.5" stroke="#0B008E"/>
</svg>
