<svg width="36" height="36" viewBox="0 0 36 36" fill="none" xmlns="http://www.w3.org/2000/svg">
<rect x="0.5" y="0.5" width="35" height="35" rx="17.5" fill="white"/>
<path d="M28 27.25H27V15.98C27 15.36 26.72 14.78 26.23 14.4L25 13.44L24.98 10.99C24.98 10.44 24.53 9.99997 23.98 9.99997H20.57L19.23 8.95997C18.51 8.38997 17.49 8.38997 16.77 8.95997L9.77 14.4C9.28 14.78 9 15.36 9 15.97L8.95 27.25H8C7.59 27.25 7.25 27.59 7.25 28C7.25 28.41 7.59 28.75 8 28.75H28C28.41 28.75 28.75 28.41 28.75 28C28.75 27.59 28.41 27.25 28 27.25ZM12.5 18.75V17.25C12.5 16.7 12.95 16.25 13.5 16.25H15.5C16.05 16.25 16.5 16.7 16.5 17.25V18.75C16.5 19.3 16.05 19.75 15.5 19.75H13.5C12.95 19.75 12.5 19.3 12.5 18.75ZM20.5 27.25H15.5V24.5C15.5 23.67 16.17 23 17 23H19C19.83 23 20.5 23.67 20.5 24.5V27.25ZM23.5 18.75C23.5 19.3 23.05 19.75 22.5 19.75H20.5C19.95 19.75 19.5 19.3 19.5 18.75V17.25C19.5 16.7 19.95 16.25 20.5 16.25H22.5C23.05 16.25 23.5 16.7 23.5 17.25V18.75Z" fill="#E96887"/>
<rect x="0.5" y="0.5" width="35" height="35" rx="17.5" stroke="#E96887"/>
</svg>
