<svg width="24" height="24" viewBox="0 0 24 24" fill="none" xmlns="http://www.w3.org/2000/svg">
<path fill-rule="evenodd" clip-rule="evenodd" d="M16.0005 5.99996C15.2049 5.99996 14.4418 6.31603 13.8792 6.87864C13.3166 7.44125 13.0005 8.20431 13.0005 8.99996C13.0005 9.79561 13.3166 10.5587 13.8792 11.1213C14.4418 11.6839 15.2049 12 16.0005 12C16.7962 12 17.5593 11.6839 18.1219 11.1213C18.6845 10.5587 19.0005 9.79561 19.0005 8.99996C19.0005 8.20431 18.6845 7.44125 18.1219 6.87864C17.5593 6.31603 16.7962 5.99996 16.0005 5.99996ZM11.0005 8.99996C11.0006 8.18492 11.1998 7.38223 11.581 6.6618C11.9621 5.94137 12.5136 5.32503 13.1874 4.86646C13.8612 4.40789 14.6369 4.121 15.4469 4.03075C16.2569 3.9405 17.0768 4.04964 17.835 4.34866C18.5932 4.64769 19.2668 5.12753 19.7971 5.74641C20.3275 6.36529 20.6985 7.10444 20.8779 7.89949C21.0573 8.69455 21.0396 9.5214 20.8264 10.3081C20.6132 11.0947 20.2109 11.8173 19.6545 12.413C21.351 12.9648 22.8177 14.0617 23.8265 15.533C23.9673 15.7521 24.0169 16.0176 23.965 16.2728C23.913 16.528 23.7635 16.7529 23.5483 16.8996C23.3331 17.0463 23.0691 17.1032 22.8125 17.0583C22.556 17.0133 22.3271 16.8701 22.1745 16.659C21.1985 15.227 19.4185 14 17.0005 14C13.1665 14 11.0005 17.074 11.0005 19C11.0005 19.2652 10.8952 19.5195 10.7077 19.7071C10.5201 19.8946 10.2658 20 10.0005 20C9.73533 20 9.48098 19.8946 9.29344 19.7071C9.1059 19.5195 9.00055 19.2652 9.00055 19C9.00055 18.308 9.15855 17.57 9.46055 16.843C9.38202 16.7921 9.311 16.7305 9.24955 16.66C8.42855 15.726 7.15455 15 5.50055 15C3.84655 15 2.57255 15.726 1.75155 16.66C1.57378 16.8488 1.3296 16.9612 1.07054 16.9734C0.811481 16.9856 0.557811 16.8967 0.36306 16.7254C0.168309 16.5542 0.047713 16.3139 0.0267209 16.0554C0.00572889 15.7969 0.0859832 15.5404 0.250548 15.34C0.841064 14.6679 1.55713 14.1176 2.35855 13.72C1.71825 13.0951 1.27877 12.2935 1.09622 11.4176C0.913665 10.5418 0.996341 9.63139 1.33368 8.80274C1.67102 7.97409 2.24772 7.26481 2.9901 6.76548C3.73249 6.26616 4.60686 5.99947 5.50155 5.99947C6.39623 5.99947 7.27061 6.26616 8.01299 6.76548C8.75538 7.26481 9.33207 7.97409 9.66941 8.80274C10.0068 9.63139 10.0894 10.5418 9.90688 11.4176C9.72433 12.2935 9.28484 13.0951 8.64455 13.72C9.33831 14.0643 9.96886 14.5234 10.5095 15.078C11.1887 14.2233 12.0336 13.5148 12.9935 12.995C12.3741 12.5294 11.8715 11.9261 11.5256 11.2327C11.1796 10.5393 10.9999 9.77486 11.0005 8.99996V8.99996ZM3.00055 10.5C3.00055 9.83692 3.26394 9.20103 3.73278 8.73219C4.20162 8.26335 4.83751 7.99996 5.50055 7.99996C6.16359 7.99996 6.79947 8.26335 7.26831 8.73219C7.73716 9.20103 8.00055 9.83692 8.00055 10.5C8.00055 11.163 7.73716 11.7989 7.26831 12.2677C6.79947 12.7366 6.16359 13 5.50055 13C4.83751 13 4.20162 12.7366 3.73278 12.2677C3.26394 11.7989 3.00055 11.163 3.00055 10.5Z" fill="#404040"/>
</svg>
