<svg width="24" height="24" viewBox="0 0 24 24" fill="none" xmlns="http://www.w3.org/2000/svg">
<path d="M11.0516 14.4392H7.66109C7.46045 14.4392 7.29797 14.6017 7.29797 14.8023V20.0665C7.29797 20.2671 7.46045 20.4296 7.66109 20.4296H11.0516C11.2522 20.4296 11.4145 20.2671 11.4145 20.0665V14.8021C11.4145 14.6014 11.252 14.4392 11.0516 14.4392ZM16.3381 3.5708H12.9476C12.7469 3.5708 12.5845 3.73328 12.5845 3.93392V20.0662C12.5845 20.2669 12.7469 20.4294 12.9476 20.4294H16.3381C16.5387 20.4294 16.7012 20.2669 16.7012 20.0662V3.93392C16.7012 3.73328 16.5387 3.5708 16.3381 3.5708ZM21.6517 8.47184H18.2612C18.0605 8.47184 17.8981 8.63432 17.8981 8.83496V20.0662C17.8981 20.2669 18.0605 20.4294 18.2612 20.4294H21.6514C21.8521 20.4294 22.0145 20.2669 22.0145 20.0662V8.83496C22.0145 8.63456 21.8521 8.47184 21.6517 8.47184ZM5.73797 8.47184H2.34749C2.14685 8.47184 1.98438 8.63432 1.98438 8.83496V20.0662C1.98438 20.2669 2.14685 20.4294 2.34749 20.4294H5.73797C5.93861 20.4294 6.10109 20.2669 6.10109 20.0662V8.83496C6.10109 8.63456 5.93861 8.47184 5.73797 8.47184Z" fill="#FFC3AD"/>
<path d="M18.2616 8.47168H21.652C21.8524 8.47168 22.0149 8.6344 22.0149 8.8348V20.0661C22.0149 20.2667 21.8524 20.4292 21.6518 20.4292H18.2616C18.0609 20.4292 17.8984 20.2667 17.8984 20.0661V8.8348C17.8984 8.63416 18.0609 8.47168 18.2616 8.47168Z" fill="#FF8B61"/>
<path d="M12.9471 3.5708H16.3376C16.5382 3.5708 16.7007 3.73328 16.7007 3.93392V20.0662C16.7007 20.2669 16.5382 20.4294 16.3376 20.4294H12.9471C12.7465 20.4294 12.584 20.2669 12.584 20.0662V3.93392C12.584 3.73328 12.7465 3.5708 12.9471 3.5708Z" fill="#FFA888"/>
<path d="M2.34749 8.47168H5.73797C5.93861 8.47168 6.10109 8.6344 6.10109 8.8348V20.0661C6.10109 20.2667 5.93861 20.4292 5.73797 20.4292H2.34749C2.14685 20.4292 1.98438 20.2667 1.98438 20.0661V8.8348C1.98438 8.63416 2.14685 8.47168 2.34749 8.47168Z" fill="#FF8B61"/>
</svg>
