<svg width="36" height="36" viewBox="0 0 36 36" fill="none" xmlns="http://www.w3.org/2000/svg">
<rect x="0.5" y="0.5" width="35" height="35" rx="17.5" fill="white"/>
<path d="M27.15 12.17C26.74 11.95 25.88 11.72 24.71 12.54L23.24 13.58C23.13 10.47 21.78 9.25 18.5 9.25H12.5C9.08 9.25 7.75 10.58 7.75 14V22C7.75 24.3 9 26.75 12.5 26.75H18.5C21.78 26.75 23.13 25.53 23.24 22.42L24.71 23.46C25.33 23.9 25.87 24.04 26.3 24.04C26.67 24.04 26.96 23.93 27.15 23.83C27.56 23.62 28.25 23.05 28.25 21.62V14.38C28.25 12.95 27.56 12.38 27.15 12.17ZM17 17.38C15.97 17.38 15.12 16.54 15.12 15.5C15.12 14.46 15.97 13.62 17 13.62C18.03 13.62 18.88 14.46 18.88 15.5C18.88 16.54 18.03 17.38 17 17.38Z" fill="#E8644F"/>
<rect x="0.5" y="0.5" width="35" height="35" rx="17.5" stroke="#E8644F"/>
</svg>
