<svg width="24" height="24" viewBox="0 0 24 24" fill="none" xmlns="http://www.w3.org/2000/svg">
<path d="M5 9C5 5.13401 8.13401 2 12 2C15.866 2 19 5.13401 19 9C19 12.866 15.866 16 12 16C8.13401 16 5 12.866 5 9Z" fill="#404040"/>
<path d="M7 21C7 20.4477 7.44772 20 8 20H16C16.5523 20 17 20.4477 17 21C17 21.5523 16.5523 22 16 22H8C7.44772 22 7 21.5523 7 21Z" fill="#404040"/>
<path d="M12 21C11.4477 21 11 20.6642 11 20.25L11 18.75C11 18.3358 11.4477 18 12 18C12.5523 18 13 18.3358 13 18.75L13 20.25C13 20.6642 12.5523 21 12 21Z" fill="#404040"/>
<path fill-rule="evenodd" clip-rule="evenodd" d="M4.58152 12H4.06164C3.28714 12 2.7497 12.7983 3.11946 13.5057C4.82991 16.7784 8.1654 19 12 19C15.8346 19 19.1701 16.7784 20.8805 13.5057C21.2503 12.7983 20.7129 12 19.9384 12H19.4185C18.2317 14.9318 15.3574 17 12 17C8.64262 17 5.76829 14.9318 4.58152 12Z" fill="#404040"/>
</svg>
