<svg width="36" height="36" viewBox="0 0 36 36" fill="none" xmlns="http://www.w3.org/2000/svg">
<rect x="0.5" y="0.5" width="35" height="35" rx="17.5" fill="white"/>
<path d="M26.8894 11.1801V22.4801C26.8894 24.4601 25.2794 26.0701 23.2994 26.0701C21.3294 26.0701 19.7094 24.4601 19.7094 22.4801C19.7094 20.5101 21.3294 18.9001 23.2994 18.9001C24.1394 18.9001 24.8894 19.1901 25.4994 19.6701V13.7201L16.2894 16.3401V24.4101C16.2894 26.3901 14.6694 28.0001 12.6994 28.0001C10.7194 28.0001 9.10938 26.3901 9.10938 24.4101C9.10938 22.4401 10.7194 20.8301 12.6994 20.8301C13.5294 20.8301 14.2794 21.1201 14.8894 21.5901V12.7501C14.8894 11.2801 15.7794 10.1401 17.1894 9.76007L22.9694 8.18007C24.1394 7.86007 25.1294 7.97007 25.8294 8.51007C26.5394 9.04007 26.8894 9.94007 26.8894 11.1801Z" fill="#1180D0"/>
<rect x="0.5" y="0.5" width="35" height="35" rx="17.5" stroke="#1180D0"/>
</svg>
