<svg width="24" height="24" viewBox="0 0 24 24" fill="none" xmlns="http://www.w3.org/2000/svg">
<path fill-rule="evenodd" clip-rule="evenodd" d="M11.553 1.10595C11.6918 1.03659 11.8448 1.00049 12 1.00049C12.1552 1.00049 12.3082 1.03659 12.447 1.10595L22.447 6.10571C22.6482 6.20656 22.8096 6.37236 22.9049 6.57627C23.0002 6.78018 23.0239 7.01028 22.9722 7.22935C22.9205 7.44842 22.7964 7.64364 22.62 7.78342C22.4435 7.9232 22.2251 7.99938 22 7.99962H2C1.7749 7.99938 1.55647 7.9232 1.38004 7.78342C1.20361 7.64364 1.07951 7.44842 1.0278 7.22935C0.9761 7.01028 0.999821 6.78018 1.09513 6.57627C1.19044 6.37236 1.35176 6.20656 1.553 6.10571L11.553 1.10595V1.10595ZM6.236 5.99971H17.764L12 3.11785L6.236 5.99971ZM6 8.99957C6.26522 8.99957 6.51957 9.10492 6.70711 9.29245C6.89464 9.47997 7 9.73432 7 9.99952V14.9993C7 15.2645 6.89464 15.5188 6.70711 15.7063C6.51957 15.8939 6.26522 15.9992 6 15.9992C5.73478 15.9992 5.48043 15.8939 5.29289 15.7063C5.10536 15.5188 5 15.2645 5 14.9993V9.99952C5 9.73432 5.10536 9.47997 5.29289 9.29245C5.48043 9.10492 5.73478 8.99957 6 8.99957ZM10 8.99957C10.2652 8.99957 10.5196 9.10492 10.7071 9.29245C10.8946 9.47997 11 9.73432 11 9.99952V14.9993C11 15.2645 10.8946 15.5188 10.7071 15.7063C10.5196 15.8939 10.2652 15.9992 10 15.9992C9.73478 15.9992 9.48043 15.8939 9.29289 15.7063C9.10536 15.5188 9 15.2645 9 14.9993V9.99952C9 9.73432 9.10536 9.47997 9.29289 9.29245C9.48043 9.10492 9.73478 8.99957 10 8.99957V8.99957ZM14 8.99957C14.2652 8.99957 14.5196 9.10492 14.7071 9.29245C14.8946 9.47997 15 9.73432 15 9.99952V14.9993C15 15.2645 14.8946 15.5188 14.7071 15.7063C14.5196 15.8939 14.2652 15.9992 14 15.9992C13.7348 15.9992 13.4804 15.8939 13.2929 15.7063C13.1054 15.5188 13 15.2645 13 14.9993V9.99952C13 9.73432 13.1054 9.47997 13.2929 9.29245C13.4804 9.10492 13.7348 8.99957 14 8.99957V8.99957ZM18 8.99957C18.2652 8.99957 18.5196 9.10492 18.7071 9.29245C18.8946 9.47997 19 9.73432 19 9.99952V14.9993C19 15.2645 18.8946 15.5188 18.7071 15.7063C18.5196 15.8939 18.2652 15.9992 18 15.9992C17.7348 15.9992 17.4804 15.8939 17.2929 15.7063C17.1054 15.5188 17 15.2645 17 14.9993V9.99952C17 9.73432 17.1054 9.47997 17.2929 9.29245C17.4804 9.10492 17.7348 8.99957 18 8.99957ZM3 17.9991C3 17.7339 3.10536 17.4796 3.29289 17.2921C3.48043 17.1045 3.73478 16.9992 4 16.9992H20C20.2652 16.9992 20.5196 17.1045 20.7071 17.2921C20.8946 17.4796 21 17.7339 21 17.9991C21 18.2643 20.8946 18.5187 20.7071 18.7062C20.5196 18.8937 20.2652 18.9991 20 18.9991H4C3.73478 18.9991 3.48043 18.8937 3.29289 18.7062C3.10536 18.5187 3 18.2643 3 17.9991ZM1 20.999C1 20.7338 1.10536 20.4794 1.29289 20.2919C1.48043 20.1044 1.73478 19.999 2 19.999H22C22.2652 19.999 22.5196 20.1044 22.7071 20.2919C22.8946 20.4794 23 20.7338 23 20.999C23 21.2642 22.8946 21.5185 22.7071 21.7061C22.5196 21.8936 22.2652 21.9989 22 21.9989H2C1.73478 21.9989 1.48043 21.8936 1.29289 21.7061C1.10536 21.5185 1 21.2642 1 20.999Z" fill="#404040"/>
</svg>
