<svg width="24" height="24" viewBox="0 0 24 24" fill="none" xmlns="http://www.w3.org/2000/svg">
<path d="M12 3C12 2.44772 12.4477 2 13 2V2C17.9706 2 22 6.02944 22 11V11C22 11.5523 21.5523 12 21 12H13C12.4477 12 12 11.5523 12 11V3Z" fill="#FF8B61"/>
<mask id="mask0_26_11351" style="mask-type:alpha" maskUnits="userSpaceOnUse" x="2" y="4" width="18" height="18">
<path d="M10.991 4C6.023 4 2 8.032 2 13C2 17.968 6.023 22 10.991 22C15.968 22 20 17.968 20 13C20 8.032 15.968 4 10.991 4Z" fill="#CAE48B"/>
</mask>
<g mask="url(#mask0_26_11351)">
<path d="M10 12V3L1 2V22H22V14H12C10.8954 14 10 13.1046 10 12Z" fill="#CAE48B"/>
</g>
</svg>
