<svg width="24" height="24" viewBox="0 0 24 24" fill="none" xmlns="http://www.w3.org/2000/svg">
<path fill-rule="evenodd" clip-rule="evenodd" d="M7 13C7 12.4477 7.44772 12 8 12H14C14.5523 12 15 12.4477 15 13C15 13.5523 14.5523 14 14 14H8C7.44772 14 7 13.5523 7 13Z" fill="#404040"/>
<path fill-rule="evenodd" clip-rule="evenodd" d="M7 17C7 16.4477 7.44772 16 8 16H16C16.5523 16 17 16.4477 17 17C17 17.5523 16.5523 18 16 18H8C7.44772 18 7 17.5523 7 17Z" fill="#404040"/>
<path fill-rule="evenodd" clip-rule="evenodd" d="M4 3C4 2.44772 4.44772 2 5 2H14C14.2652 2 14.5196 2.10536 14.7071 2.29289L19.7071 7.29289C19.8946 7.48043 20 7.73478 20 8V21C20 21.5523 19.5523 22 19 22H5C4.44772 22 4 21.5523 4 21V3ZM6 4V20H18V8.41421L13.5858 4H6Z" fill="#404040"/>
<path fill-rule="evenodd" clip-rule="evenodd" d="M13 2C13.5523 2 14 2.44772 14 3V7C14 7.17477 14.0975 7.43324 14.3321 7.66789C14.5668 7.90255 14.8252 8 15 8H19C19.5523 8 20 8.44772 20 9C20 9.55228 19.5523 10 19 10H15C14.1748 10 13.4332 9.59745 12.9179 9.08211C12.4025 8.56676 12 7.82523 12 7V3C12 2.44772 12.4477 2 13 2Z" fill="#404040"/>
</svg>
