<svg width="36" height="36" viewBox="0 0 36 36" fill="none" xmlns="http://www.w3.org/2000/svg">
<rect x="0.5" y="0.5" width="35" height="35" rx="17.5" fill="white"/>
<path d="M15.6923 9C14.4269 9 13.3846 10.0163 13.3846 11.25V12.75H14.9231V11.25C14.9231 10.8277 15.2592 10.5 15.6923 10.5H20.3077C20.7408 10.5 21.0769 10.8277 21.0769 11.25V12.75H22.6154V11.25C22.6154 10.0163 21.5731 9 20.3077 9H15.6923ZM10.3077 13.5C9.69565 13.5 9.10868 13.7371 8.67591 14.159C8.24313 14.581 8 15.1533 8 15.75V24.75C8 25.3467 8.24313 25.919 8.67591 26.341C9.10868 26.7629 9.69565 27 10.3077 27H25.6923C26.9662 27 28 25.992 28 24.75V15.75C28 15.1533 27.7569 14.581 27.3241 14.159C26.8913 13.7371 26.3043 13.5 25.6923 13.5H10.3077ZM18 15.6795C18.6157 15.679 19.2255 15.7969 19.7945 16.0264C20.3635 16.2559 20.8804 16.5926 21.3158 17.0171C21.7512 17.4416 22.0965 17.9456 22.3319 18.5004C22.5673 19.0551 22.6882 19.6497 22.6877 20.25C22.6882 20.8503 22.5673 21.4449 22.3319 21.9996C22.0965 22.5544 21.7512 23.0584 21.3158 23.4829C20.8804 23.9074 20.3635 24.2441 19.7945 24.4736C19.2255 24.7031 18.6157 24.821 18 24.8205C17.3843 24.821 16.7745 24.7031 16.2055 24.4736C15.6365 24.2441 15.1196 23.9074 14.6842 23.4829C14.2488 23.0584 13.9035 22.5544 13.6681 21.9996C13.4327 21.4449 13.3118 20.8503 13.3123 20.25C13.3118 19.6497 13.4327 19.0551 13.6681 18.5004C13.9035 17.9456 14.2488 17.4416 14.6842 17.0171C15.1196 16.5926 15.6365 16.2559 16.2055 16.0264C16.7745 15.7969 17.3843 15.679 18 15.6795V15.6795ZM17.2308 18V19.5H15.6923V21H17.2308V22.5H18.7692V21H20.3077V19.5H18.7692V18H17.2308Z" fill="#1FA072"/>
<rect x="0.5" y="0.5" width="35" height="35" rx="17.5" stroke="#1FA072"/>
</svg>
