<svg width="24" height="24" viewBox="0 0 24 24" fill="none" xmlns="http://www.w3.org/2000/svg">
<path fill-rule="evenodd" clip-rule="evenodd" d="M8 9.00012C8 7.93925 8.42143 6.92183 9.17157 6.17169C9.92172 5.42154 10.9391 5.00012 12 5.00012C13.0609 5.00012 14.0783 5.42154 14.8284 6.17169C15.5786 6.92183 16 7.93925 16 9.00012C16 10.061 15.5786 11.0784 14.8284 11.8285C14.0783 12.5787 13.0609 13.0001 12 13.0001C10.9391 13.0001 9.92172 12.5787 9.17157 11.8285C8.42143 11.0784 8 10.061 8 9.00012V9.00012ZM15.824 13.6231C16.7755 12.836 17.461 11.7744 17.7868 10.5833C18.1127 9.39215 18.0631 8.12949 17.6448 6.9676C17.2265 5.80571 16.4599 4.80118 15.4495 4.09111C14.4392 3.38104 13.2344 3 11.9995 3C10.7646 3 9.55978 3.38104 8.54946 4.09111C7.53913 4.80118 6.77251 5.80571 6.35421 6.9676C5.9359 8.12949 5.8863 9.39215 6.21217 10.5833C6.53803 11.7744 7.22349 12.836 8.175 13.6231C4.986 14.7461 3 17.2471 3 20.0001C3 20.2653 3.10536 20.5197 3.29289 20.7072C3.48043 20.8948 3.73478 21.0001 4 21.0001C4.26522 21.0001 4.51957 20.8948 4.70711 20.7072C4.89464 20.5197 5 20.2653 5 20.0001C5 17.7301 7.355 15.0001 12 15.0001C16.645 15.0001 19 17.7301 19 20.0001C19 20.2653 19.1054 20.5197 19.2929 20.7072C19.4804 20.8948 19.7348 21.0001 20 21.0001C20.2652 21.0001 20.5196 20.8948 20.7071 20.7072C20.8946 20.5197 21 20.2653 21 20.0001C21 17.2471 19.016 14.7461 15.824 13.6231Z" fill="#404040"/>
</svg>
