<svg width="36" height="36" viewBox="0 0 36 36" fill="none" xmlns="http://www.w3.org/2000/svg">
<rect x="0.5" y="0.5" width="35" height="35" rx="17.5" fill="white"/>
<path d="M28 10.8499V22.7399C28 23.7099 27.21 24.5999 26.24 24.7199L25.93 24.7599C24.29 24.9799 21.98 25.6599 20.12 26.4399C19.47 26.7099 18.75 26.2199 18.75 25.5099V11.5999C18.75 11.2299 18.96 10.8899 19.29 10.7099C21.12 9.71993 23.89 8.83993 25.77 8.67993H25.83C27.03 8.67993 28 9.64993 28 10.8499Z" fill="#7361E3"/>
<path d="M16.7102 10.7099C14.8802 9.71993 12.1102 8.83993 10.2302 8.67993H10.1602C8.96023 8.67993 7.99023 9.64993 7.99023 10.8499V22.7399C7.99023 23.7099 8.78023 24.5999 9.75023 24.7199L10.0602 24.7599C11.7002 24.9799 14.0102 25.6599 15.8702 26.4399C16.5202 26.7099 17.2402 26.2199 17.2402 25.5099V11.5999C17.2402 11.2199 17.0402 10.8899 16.7102 10.7099ZM11.0002 13.7399H13.2502C13.6602 13.7399 14.0002 14.0799 14.0002 14.4899C14.0002 14.9099 13.6602 15.2399 13.2502 15.2399H11.0002C10.5902 15.2399 10.2502 14.9099 10.2502 14.4899C10.2502 14.0799 10.5902 13.7399 11.0002 13.7399ZM14.0002 18.2399H11.0002C10.5902 18.2399 10.2502 17.9099 10.2502 17.4899C10.2502 17.0799 10.5902 16.7399 11.0002 16.7399H14.0002C14.4102 16.7399 14.7502 17.0799 14.7502 17.4899C14.7502 17.9099 14.4102 18.2399 14.0002 18.2399Z" fill="#7361E3"/>
<rect x="0.5" y="0.5" width="35" height="35" rx="17.5" stroke="#7361E3"/>
</svg>
