<svg width="24" height="24" viewBox="0 0 24 24" fill="none" xmlns="http://www.w3.org/2000/svg">
<path fill-rule="evenodd" clip-rule="evenodd" d="M10.0005 2C9.73524 2 9.48089 2.10536 9.29335 2.29289C9.10582 2.48043 9.00046 2.73478 9.00046 3V4.582C8.31082 4.86134 7.66357 5.23562 7.07746 5.694L5.70646 4.902C5.47678 4.7694 5.20383 4.73346 4.94766 4.8021C4.69149 4.87074 4.47307 5.03833 4.34046 5.268L2.34046 8.732C2.20786 8.96168 2.17192 9.23463 2.24056 9.4908C2.3092 9.74697 2.47679 9.96539 2.70646 10.098L4.07646 10.889C3.9739 11.6261 3.9739 12.3739 4.07646 13.111L2.70646 13.901C2.5926 13.9667 2.49281 14.0541 2.41278 14.1584C2.33276 14.2627 2.27407 14.3817 2.24008 14.5086C2.20609 14.6356 2.19745 14.768 2.21468 14.8983C2.2319 15.0286 2.27464 15.1542 2.34046 15.268L4.34046 18.732C4.47307 18.9617 4.69149 19.1293 4.94766 19.1979C5.20383 19.2665 5.47678 19.2306 5.70646 19.098L7.07746 18.306C7.65846 18.761 8.30546 19.136 9.00046 19.418V21C9.00046 21.2652 9.10582 21.5196 9.29335 21.7071C9.48089 21.8946 9.73524 22 10.0005 22H14.0005C14.2657 22 14.52 21.8946 14.7076 21.7071C14.8951 21.5196 15.0005 21.2652 15.0005 21V19.418C15.6901 19.1386 16.3373 18.7644 16.9235 18.306L18.2945 19.098C18.5241 19.2306 18.7971 19.2665 19.0533 19.1979C19.3094 19.1293 19.5278 18.9617 19.6605 18.732L21.6605 15.268C21.7931 15.0383 21.829 14.7654 21.7604 14.5092C21.6917 14.253 21.5241 14.0346 21.2945 13.902L19.9245 13.111C20.027 12.3739 20.027 11.6261 19.9245 10.889L21.2945 10.099C21.4083 10.0333 21.5081 9.94587 21.5881 9.84161C21.6682 9.73735 21.7268 9.61833 21.7608 9.49137C21.7948 9.36441 21.8035 9.23199 21.7862 9.10169C21.769 8.97139 21.7263 8.84577 21.6605 8.732L19.6605 5.268C19.5278 5.03833 19.3094 4.87074 19.0533 4.8021C18.7971 4.73346 18.5241 4.7694 18.2945 4.902L16.9235 5.694C16.3373 5.23563 15.6901 4.86135 15.0005 4.582V3C15.0005 2.73478 14.8951 2.48043 14.7076 2.29289C14.52 2.10536 14.2657 2 14.0005 2H10.0005ZM11.0005 5.29V4H13.0005V5.29C13.0006 5.50539 13.0702 5.71498 13.1991 5.8876C13.3279 6.06021 13.509 6.18661 13.7155 6.248C14.6158 6.51688 15.4403 6.99372 16.1225 7.64C16.2789 7.78826 16.4791 7.88199 16.6932 7.90722C16.9073 7.93245 17.1238 7.88783 17.3105 7.78L18.4285 7.134L19.4285 8.866L18.3115 9.511C18.1251 9.6186 17.9784 9.78347 17.8931 9.98111C17.8079 10.1787 17.7888 10.3986 17.8385 10.608C18.056 11.5233 18.056 12.4767 17.8385 13.392C17.7888 13.6014 17.8079 13.8213 17.8931 14.0189C17.9784 14.2165 18.1251 14.3814 18.3115 14.489L19.4285 15.134L18.4285 16.866L17.3095 16.22C17.1229 16.1124 16.9066 16.0679 16.6927 16.0931C16.4789 16.1184 16.2789 16.212 16.1225 16.36C15.4404 17.0063 14.6159 17.4832 13.7155 17.752C13.509 17.8134 13.3279 17.9398 13.1991 18.1124C13.0702 18.285 13.0006 18.4946 13.0005 18.71V20H11.0005V18.71C11.0003 18.4946 10.9307 18.285 10.8019 18.1124C10.673 17.9398 10.4919 17.8134 10.2855 17.752C9.38508 17.4832 8.56055 17.0063 7.87846 16.36C7.72198 16.2117 7.52178 16.118 7.3077 16.0928C7.09362 16.0676 6.87712 16.1122 6.69046 16.22L5.57246 16.866L4.57246 15.134L5.68946 14.489C5.87585 14.3814 6.02256 14.2165 6.10777 14.0189C6.19299 13.8213 6.21217 13.6014 6.16246 13.392C5.94493 12.4767 5.94493 11.5233 6.16246 10.608C6.21217 10.3986 6.19299 10.1787 6.10777 9.98111C6.02256 9.78347 5.87585 9.6186 5.68946 9.511L4.57246 8.866L5.57246 7.134L6.69046 7.78C6.87712 7.88783 7.09362 7.93245 7.3077 7.90722C7.52178 7.88199 7.72198 7.78826 7.87846 7.64C8.56057 6.99372 9.38509 6.51688 10.2855 6.248C10.4919 6.18661 10.673 6.06021 10.8019 5.8876C10.9307 5.71498 11.0003 5.50539 11.0005 5.29ZM10.0005 12C10.0005 11.4696 10.2112 10.9609 10.5862 10.5858C10.9613 10.2107 11.47 10 12.0005 10C12.5309 10 13.0396 10.2107 13.4147 10.5858C13.7897 10.9609 14.0005 11.4696 14.0005 12C14.0005 12.5304 13.7897 13.0391 13.4147 13.4142C13.0396 13.7893 12.5309 14 12.0005 14C11.47 14 10.9613 13.7893 10.5862 13.4142C10.2112 13.0391 10.0005 12.5304 10.0005 12ZM12.0005 8C10.9396 8 9.92218 8.42143 9.17203 9.17157C8.42189 9.92172 8.00046 10.9391 8.00046 12C8.00046 13.0609 8.42189 14.0783 9.17203 14.8284C9.92218 15.5786 10.9396 16 12.0005 16C13.0613 16 14.0787 15.5786 14.8289 14.8284C15.579 14.0783 16.0005 13.0609 16.0005 12C16.0005 10.9391 15.579 9.92172 14.8289 9.17157C14.0787 8.42143 13.0613 8 12.0005 8V8Z" fill="#666F7E"/>
</svg>
