<svg width="24" height="24" viewBox="0 0 24 24" fill="none" xmlns="http://www.w3.org/2000/svg">
<path fill-rule="evenodd" clip-rule="evenodd" d="M2 8.8931C2 6.68322 3.91703 5 6.11 5H13.89C16.083 5 18 6.68322 18 8.8931V19.4608C18 20.3895 17.6275 21.2694 16.7988 21.7213C15.9954 22.1595 15.0502 22.0363 14.2266 21.6173L14.2198 21.6138L10.2898 19.5765L10.2874 19.5753C10.2642 19.5632 10.162 19.5282 9.99875 19.5282C9.83922 19.5282 9.7307 19.5617 9.69549 19.579L5.7714 21.6132C5.7713 21.6132 5.7715 21.6131 5.7714 21.6132C4.94865 22.041 4.00155 22.1656 3.19695 21.7232C2.37135 21.2693 2 20.3883 2 19.4608V8.8931ZM6.11 7C4.88297 7 4 7.9215 4 8.8931V19.4608C4 19.8823 4.14865 19.9641 4.16055 19.9706C4.19335 19.9887 4.40142 20.0713 4.8486 19.8388L8.78607 17.7976C9.1726 17.6007 9.61322 17.5282 9.99875 17.5282C10.3826 17.5282 10.8249 17.6002 11.2114 17.8015C11.2118 17.8017 11.2122 17.802 11.2126 17.8022L15.1365 19.8362C15.5907 20.0665 15.8047 19.9854 15.8412 19.9655C15.8537 19.9587 16 19.879 16 19.4608V8.8931C16 7.9215 15.117 7 13.89 7H6.11Z" fill="#666F7E"/>
<path fill-rule="evenodd" clip-rule="evenodd" d="M6 5.8931C6 3.68322 7.91703 2 10.11 2H17.89C20.083 2 22 3.68322 22 5.8931V16.4608C22 17.3895 21.6275 18.2694 20.7988 18.7213C19.9954 19.1595 19.0502 19.0363 18.2266 18.6173L18.208 18.6078L16.0098 17.3716L16.9902 15.6284L19.1504 16.8432C19.5951 17.0648 19.8051 16.9852 19.8412 16.9655C19.8537 16.9587 20 16.879 20 16.4608V5.8931C20 4.9215 19.117 4 17.89 4H10.11C8.88297 4 8 4.9215 8 5.8931H6Z" fill="#666F7E"/>
</svg>
