<svg width="20" height="21" viewBox="0 0 20 21" fill="none" xmlns="http://www.w3.org/2000/svg">
<path fill-rule="evenodd" clip-rule="evenodd" d="M2.5 5.91667C2.5 4.99618 3.2462 4.25 4.16667 4.25H15.8333C16.7538 4.25 17.5 4.99621 17.5 5.91667V13.4167C17.5 14.3372 16.7538 15.0833 15.8333 15.0833H4.16667C3.24621 15.0833 2.5 14.3372 2.5 13.4167V5.91667ZM15.8333 5.91667H4.16667V13.4167H15.8333V5.91667Z" fill="#404040"/>
<path fill-rule="evenodd" clip-rule="evenodd" d="M1.25 15.292C1.25 14.2564 2.08948 13.417 3.125 13.417H16.875C17.9106 13.417 18.75 14.2564 18.75 15.292C18.75 16.3276 17.9106 17.167 16.875 17.167H3.125C2.08948 17.167 1.25 16.3276 1.25 15.292ZM3.125 15.0837C3.00992 15.0837 2.91667 15.1769 2.91667 15.292C2.91667 15.4071 3.00992 15.5003 3.125 15.5003H16.875C16.9901 15.5003 17.0833 15.4071 17.0833 15.292C17.0833 15.1769 16.9901 15.0837 16.875 15.0837H3.125Z" fill="#404040"/>
</svg>
