<svg width="42" height="42" viewBox="0 0 42 42" fill="none" xmlns="http://www.w3.org/2000/svg">
<g clip-path="url(#clip0_27_12059)">
<path d="M42.8125 31.1875L21.25 38.5L29.5 23.125L42.8125 31.1875Z" fill="url(#paint0_linear_27_12059)" fill-opacity="0.8"/>
<path d="M21 2.25C25.0446 2.25 28.9234 3.85669 31.7834 6.71662C34.6433 9.57655 36.25 13.4554 36.25 17.5C36.25 23.7646 31.4624 30.4657 21.75 37.75C21.5336 37.9123 21.2705 38 21 38C20.7295 38 20.4664 37.9123 20.25 37.75C10.5376 30.4657 5.75 23.7646 5.75 17.5C5.75 13.4554 7.35669 9.57655 10.2166 6.71662C13.0766 3.85669 16.9554 2.25 21 2.25Z" fill="white" stroke="#79AA00"/>
<path d="M21 6.18457C15.4774 6.18457 11 10.8859 11 16.6846C11 22.4833 15.4774 27.1846 21 27.1846C26.5226 27.1846 31 22.4833 31 16.6846C31 10.8859 26.5226 6.18457 21 6.18457ZM26.2613 17.959C25.1686 22.9322 21.9264 26.3915 19.0214 25.6856C16.1164 24.9823 14.6461 20.3783 15.7387 15.4076C16.8314 10.4345 20.0736 6.97519 22.9786 7.68101C25.8836 8.38433 27.3539 12.9884 26.2613 17.959V17.959Z" fill="#A7CE48"/>
<path d="M23.9031 11.6733C23.5619 13.3119 22.4334 14.4152 21.3853 14.1434C20.3349 13.8717 19.7597 12.3282 20.096 10.6923C20.4372 9.06185 21.5608 7.95586 22.6113 8.22488C23.6642 8.49662 24.2419 10.0401 23.9031 11.6733Z" fill="#EE7E6C"/>
</g>
<defs>
<linearGradient id="paint0_linear_27_12059" x1="22.25" y1="38.5" x2="36.875" y2="27.5625" gradientUnits="userSpaceOnUse">
<stop stop-color="#1B1B1B"/>
<stop offset="1" stop-color="#1B1B1B" stop-opacity="0"/>
</linearGradient>
<clipPath id="clip0_27_12059">
<rect width="42" height="42" fill="white"/>
</clipPath>
</defs>
</svg>
