<svg width="16" height="16" viewBox="0 0 16 16" fill="none" xmlns="http://www.w3.org/2000/svg">
<rect x="9.625" y="1.60425" width="4.625" height="12.7917" fill="white"/>
<rect x="1.64648" y="9.66675" width="12.6042" height="4.72917" fill="white"/>
<path d="M1.66602 14.6667L14.3327 14.6667C14.4211 14.6667 14.5059 14.6316 14.5684 14.5691C14.6309 14.5066 14.666 14.4218 14.666 14.3334L14.666 1.66675C14.666 1.57834 14.6309 1.49356 14.5684 1.43105C14.5059 1.36853 14.4211 1.33342 14.3327 1.33342L9.66602 1.33342C9.57761 1.33342 9.49283 1.36853 9.43031 1.43105C9.3678 1.49356 9.33268 1.57834 9.33268 1.66675L9.33268 9.33341L1.66602 9.33341C1.57761 9.33341 1.49283 9.36853 1.43031 9.43104C1.3678 9.49356 1.33268 9.57834 1.33268 9.66675L1.33268 14.3334C1.33268 14.4218 1.3678 14.5066 1.43031 14.5691C1.49283 14.6316 1.57761 14.6667 1.66602 14.6667ZM1.99935 10.0001L4.33268 10.0001L4.33268 11.6667C4.33268 11.7552 4.3678 11.8399 4.43031 11.9024C4.49283 11.965 4.57761 12.0001 4.66602 12.0001C4.75442 12.0001 4.83921 11.965 4.90172 11.9024C4.96423 11.8399 4.99935 11.7552 4.99935 11.6667L4.99935 10.0001L6.99935 10.0001L6.99935 11.6667C6.99935 11.7552 7.03447 11.8399 7.09698 11.9024C7.15949 11.965 7.24428 12.0001 7.33268 12.0001C7.42109 12.0001 7.50587 11.965 7.56839 11.9024C7.6309 11.8399 7.66602 11.7552 7.66602 11.6667L7.66602 10.0001L9.33268 10.0001L9.33268 11.6667C9.33268 11.7552 9.3678 11.8399 9.43031 11.9024C9.49283 11.965 9.57761 12.0001 9.66602 12.0001C9.75442 12.0001 9.83921 11.965 9.90172 11.9024C9.96423 11.8399 9.99935 11.7552 9.99935 11.6667L9.99935 10.0001L11.666 10.0001C11.7544 10.0001 11.8392 9.96496 11.9017 9.90245C11.9642 9.83994 11.9993 9.75515 11.9993 9.66675C11.9993 9.57834 11.9642 9.49356 11.9017 9.43105C11.8392 9.36853 11.7544 9.33341 11.666 9.33341L9.99935 9.33341L9.99935 7.66675L11.666 7.66675C11.7544 7.66675 11.8392 7.63163 11.9017 7.56912C11.9642 7.50661 11.9993 7.42182 11.9993 7.33341C11.9993 7.24501 11.9642 7.16022 11.9017 7.09771C11.8392 7.0352 11.7544 7.00008 11.666 7.00008L9.99935 7.00008L9.99935 5.00008L11.666 5.00008C11.7544 5.00008 11.8392 4.96496 11.9017 4.90245C11.9642 4.83994 11.9993 4.75515 11.9993 4.66675C11.9993 4.57834 11.9642 4.49356 11.9017 4.43105C11.8392 4.36853 11.7544 4.33341 11.666 4.33341L9.99935 4.33341L9.99935 2.00008L13.9994 2.00008L13.9993 14.0001L1.99935 14.0001L1.99935 10.0001Z" fill="black"/>
<path d="M2.00065 5.33325L2.00065 1.99992L5.33398 1.99992" stroke="black" stroke-width="2"/>
</svg>
