<svg width="199" height="199" viewBox="0 0 199 199" fill="none" xmlns="http://www.w3.org/2000/svg">
<ellipse cx="10.9837" cy="10.6464" rx="10.9837" ry="10.6464" fill="#0D2ADB" fill-opacity="0.2"/>
<ellipse cx="69.6828" cy="10.6464" rx="10.9837" ry="10.6464" fill="#0D2ADB" fill-opacity="0.2"/>
<ellipse cx="128.384" cy="10.6464" rx="10.9837" ry="10.6464" fill="#0D2ADB" fill-opacity="0.2"/>
<ellipse cx="187.083" cy="10.6464" rx="10.9837" ry="10.6464" fill="#0D2ADB" fill-opacity="0.7"/>
<ellipse cx="10.9837" cy="69.7152" rx="10.9837" ry="10.6464" fill="#0D2ADB" fill-opacity="0.2"/>
<ellipse cx="69.6828" cy="69.7152" rx="10.9837" ry="10.6464" fill="#0D2ADB" fill-opacity="0.6"/>
<ellipse cx="128.384" cy="69.7152" rx="10.9837" ry="10.6464" fill="#0D2ADB" fill-opacity="0.2"/>
<ellipse cx="187.083" cy="69.7152" rx="10.9837" ry="10.6464" fill="#0D2ADB" fill-opacity="0.2"/>
<ellipse cx="10.9837" cy="128.785" rx="10.9837" ry="10.6464" fill="#0D2ADB" fill-opacity="0.8"/>
<ellipse cx="69.6828" cy="128.785" rx="10.9837" ry="10.6464" fill="#0D2ADB" fill-opacity="0.2"/>
<ellipse cx="128.384" cy="128.785" rx="10.9837" ry="10.6464" fill="#0D2ADB" fill-opacity="0.2"/>
<ellipse cx="187.083" cy="128.785" rx="10.9837" ry="10.6464" fill="#0D2ADB" fill-opacity="0.2"/>
<ellipse cx="10.9837" cy="187.419" rx="10.9837" ry="10.6464" fill="#0D2ADB" fill-opacity="0.2"/>
<ellipse cx="69.6828" cy="187.419" rx="10.9837" ry="10.6464" fill="#0D2ADB" fill-opacity="0.2"/>
<ellipse cx="128.384" cy="187.419" rx="10.9837" ry="10.6464" fill="#0D2ADB" fill-opacity="0.2"/>
<ellipse cx="187.083" cy="187.419" rx="10.9837" ry="10.6464" fill="#0D2ADB" fill-opacity="0.2"/>
</svg>
