<svg width="80" height="120" viewBox="0 0 80 120" fill="none" xmlns="http://www.w3.org/2000/svg">
<path fill-rule="evenodd" clip-rule="evenodd" d="M40 80C62.0914 80 80 62.0914 80 40C80 17.9086 62.0914 0 40 0C17.9086 0 0 17.9086 0 40C0 62.0914 17.9086 80 40 80ZM40.0001 63.6362C53.0541 63.6362 63.6365 53.0538 63.6365 39.9998C63.6365 26.9458 53.0541 16.3635 40.0001 16.3635C26.9461 16.3635 16.3637 26.9458 16.3637 39.9998C16.3637 53.0538 26.9461 63.6362 40.0001 63.6362Z" fill="#82E1FF" fill-opacity="0.7"/>
<path fill-rule="evenodd" clip-rule="evenodd" d="M40 120C62.0914 120 80 102.091 80 80C80 57.9086 62.0914 40 40 40C17.9086 40 0 57.9086 0 80C0 102.091 17.9086 120 40 120ZM40.0001 103.636C53.0541 103.636 63.6365 93.0538 63.6365 79.9998C63.6365 66.9458 53.0541 56.3635 40.0001 56.3635C26.9461 56.3635 16.3637 66.9458 16.3637 79.9998C16.3637 93.0538 26.9461 103.636 40.0001 103.636Z" fill="#0D2ADB" fill-opacity="0.4"/>
</svg>
