<svg width="360" height="220" viewBox="0 0 360 220" fill="none" xmlns="http://www.w3.org/2000/svg">
<g clip-path="url(#clip0_120_18678)">
<path fill-rule="evenodd" clip-rule="evenodd" d="M306.931 9.8471L280.962 8.5918C280.987 8.06644 281 7.53579 281 7C281 6.46421 280.987 5.93356 280.962 5.40819L306.931 4.15289C306.977 5.09619 307 6.0454 307 7C307 7.95459 306.977 8.9038 306.931 9.8471ZM306.38 -1.51355L280.656 2.27023C280.503 1.22748 280.3 0.203896 280.049 -0.798744L305.275 -7.09789C305.731 -5.26926 306.101 -3.40628 306.38 -1.51355ZM303.624 -12.5457L279.144 -3.78537C278.792 -4.76958 278.392 -5.73247 277.948 -6.67144L301.444 -17.8038C302.253 -16.0953 302.982 -14.341 303.624 -12.5457ZM298.756 -22.8218L276.468 -9.43427C275.927 -10.3337 275.343 -11.2059 274.718 -12.0478L295.589 -27.5521C296.719 -26.0308 297.777 -24.4524 298.756 -22.8218ZM291.976 -31.9504L272.716 -14.4842C272.009 -15.264 271.264 -16.009 270.484 -16.7162L287.95 -35.9757C289.357 -34.7003 290.7 -33.3568 291.976 -31.9504ZM283.552 -39.5895L268.048 -18.718C267.206 -19.3434 266.334 -19.9275 265.434 -20.4677L278.822 -42.7562C280.452 -41.7768 282.031 -40.7195 283.552 -39.5895ZM273.804 -45.4438L262.671 -21.9476C261.732 -22.3925 260.77 -22.7922 259.785 -23.1444L268.546 -47.6242C270.341 -46.9817 272.095 -46.2533 273.804 -45.4438ZM263.098 -49.2747L256.799 -24.0493C255.796 -24.2997 254.773 -24.503 253.73 -24.6564L257.514 -50.3796C259.406 -50.1012 261.269 -49.7313 263.098 -49.2747ZM251.847 -50.9313L250.592 -24.9617C250.066 -24.9871 249.536 -25 249 -25C248.464 -25 247.934 -24.9871 247.408 -24.9617L246.153 -50.9313C247.096 -50.9769 248.045 -51 249 -51C249.955 -51 250.904 -50.9769 251.847 -50.9313ZM240.486 -50.3796L244.27 -24.6564C243.227 -24.503 242.204 -24.2997 241.201 -24.0493L234.902 -49.2747C236.731 -49.7313 238.594 -50.1012 240.486 -50.3796ZM229.454 -47.6242L238.215 -23.1444C237.23 -22.7922 236.268 -22.3925 235.329 -21.9476L224.196 -45.4438C225.905 -46.2533 227.659 -46.9817 229.454 -47.6242ZM219.178 -42.7562L232.566 -20.4677C231.666 -19.9275 230.794 -19.3434 229.952 -18.718L214.448 -39.5895C215.969 -40.7195 217.548 -41.7768 219.178 -42.7562ZM210.05 -35.9757L227.516 -16.7162C226.736 -16.009 225.991 -15.264 225.284 -14.4842L206.024 -31.9504C207.3 -33.3568 208.643 -34.7003 210.05 -35.9757ZM202.411 -27.5521L223.282 -12.0478C222.657 -11.2059 222.073 -10.3337 221.532 -9.43427L199.244 -22.8218C200.223 -24.4524 201.281 -26.0308 202.411 -27.5521ZM196.556 -17.8038L220.052 -6.67144C219.608 -5.73247 219.208 -4.76958 218.856 -3.78537L194.376 -12.5457C195.018 -14.341 195.747 -16.0953 196.556 -17.8038ZM192.725 -7.09789L217.951 -0.798744C217.7 0.203899 217.497 1.22748 217.344 2.27024L191.62 -1.51355C191.899 -3.40627 192.269 -5.26926 192.725 -7.09789ZM191.069 4.1529C191.023 5.0962 191 6.04541 191 7C191 7.9546 191.023 8.90381 191.069 9.84711L217.038 8.59181C217.013 8.06644 217 7.53579 217 7C217 6.46421 217.013 5.93356 217.038 5.4082L191.069 4.1529ZM191.62 15.5135L217.344 11.7298C217.497 12.7725 217.7 13.7961 217.951 14.7987L192.725 21.0979C192.269 19.2693 191.899 17.4063 191.62 15.5135ZM194.376 26.5457L218.856 17.7854C219.208 18.7696 219.608 19.7325 220.052 20.6714L196.556 31.8038C195.747 30.0953 195.018 28.341 194.376 26.5457ZM199.244 36.8218L221.532 23.4343C222.073 24.3337 222.657 25.2059 223.282 26.0478L202.411 41.5521C201.281 40.0308 200.223 38.4524 199.244 36.8218ZM206.024 45.9504L225.284 28.4842C225.991 29.264 226.736 30.009 227.516 30.7161L210.05 49.9757C208.643 48.7003 207.3 47.3568 206.024 45.9504ZM214.448 53.5895L229.952 32.718C230.794 33.3434 231.666 33.9275 232.566 34.4678L219.178 56.7562C217.548 55.7768 215.969 54.7195 214.448 53.5895ZM224.196 59.4438L235.329 35.9476C236.268 36.3925 237.23 36.7922 238.215 37.1444L229.454 61.6242C227.659 60.9817 225.905 60.2533 224.196 59.4438ZM234.902 63.2747L241.201 38.0493C242.204 38.2997 243.227 38.503 244.27 38.6564L240.486 64.3796C238.594 64.1012 236.731 63.7313 234.902 63.2747ZM246.153 64.9313L247.408 38.9617C247.934 38.9871 248.464 39 249 39C249.536 39 250.066 38.9871 250.592 38.9617L251.847 64.9313C250.904 64.9769 249.955 65 249 65C248.045 65 247.096 64.9769 246.153 64.9313ZM257.514 64.3796L253.73 38.6564C254.773 38.503 255.796 38.2997 256.799 38.0493L263.098 63.2747C261.269 63.7313 259.406 64.1012 257.514 64.3796ZM268.546 61.6242L259.785 37.1444C260.77 36.7922 261.732 36.3925 262.671 35.9476L273.804 59.4438C272.095 60.2533 270.341 60.9817 268.546 61.6242ZM278.822 56.7562L265.434 34.4678C266.334 33.9275 267.206 33.3434 268.048 32.718L283.552 53.5895C282.031 54.7195 280.452 55.7768 278.822 56.7562ZM287.95 49.9757L270.484 30.7161C271.264 30.009 272.009 29.264 272.716 28.4842L291.976 45.9504C290.7 47.3568 289.357 48.7003 287.95 49.9757ZM295.589 41.5521L274.718 26.0478C275.343 25.2059 275.927 24.3337 276.468 23.4343L298.756 36.8218C297.777 38.4524 296.719 40.0308 295.589 41.5521ZM301.444 31.8038L277.948 20.6714C278.392 19.7325 278.792 18.7696 279.144 17.7854L303.624 26.5457C302.982 28.341 302.253 30.0953 301.444 31.8038ZM305.275 21.0979L280.049 14.7987C280.3 13.7961 280.503 12.7725 280.656 11.7298L306.38 15.5135C306.101 17.4063 305.731 19.2693 305.275 21.0979Z" fill="#FFF1BE"/>
<path d="M307 28.3125C301.497 28.3121 296.089 29.7449 291.307 32.4699C286.526 35.195 282.537 39.1182 279.733 43.8534C276.929 48.5886 275.406 53.9725 275.315 59.475C275.224 64.9775 276.567 70.4089 279.213 75.2344L276.623 84.3445C276.38 85.1828 276.364 86.0709 276.578 86.9172C276.793 87.7634 277.229 88.5372 277.842 89.1586C278.455 89.7746 279.223 90.2132 280.066 90.4278C280.908 90.6423 281.792 90.6249 282.625 90.3773L291.766 87.7875C296.002 90.1092 300.713 91.4317 305.538 91.654C310.364 91.8762 315.176 90.9922 319.608 89.0697C324.039 87.1471 327.972 84.2369 331.107 80.5613C334.241 76.8858 336.494 72.5423 337.693 67.8628C338.891 63.1833 339.004 58.2918 338.023 53.562C337.041 48.8322 334.991 44.3893 332.03 40.5731C329.068 36.7568 325.274 33.6682 320.936 31.5432C316.597 29.4182 311.831 28.3132 307 28.3125V28.3125ZM292.375 63.6562C291.652 63.6562 290.945 63.4418 290.344 63.0401C289.743 62.6383 289.274 62.0673 288.998 61.3992C288.721 60.7311 288.648 59.9959 288.789 59.2867C288.931 58.5775 289.279 57.926 289.79 57.4146C290.301 56.9033 290.953 56.5551 291.662 56.414C292.371 56.2729 293.107 56.3453 293.775 56.6221C294.443 56.8988 295.014 57.3674 295.416 57.9687C295.817 58.57 296.032 59.2769 296.032 60C296.032 60.9697 295.646 61.8997 294.961 62.5854C294.275 63.271 293.345 63.6562 292.375 63.6562ZM307 63.6562C306.277 63.6562 305.57 63.4418 304.969 63.0401C304.368 62.6383 303.899 62.0673 303.623 61.3992C303.346 60.7311 303.273 59.9959 303.414 59.2867C303.556 58.5775 303.904 57.926 304.415 57.4146C304.926 56.9033 305.578 56.5551 306.287 56.414C306.996 56.2729 307.732 56.3453 308.4 56.6221C309.068 56.8988 309.639 57.3674 310.041 57.9687C310.442 58.57 310.657 59.2769 310.657 60C310.657 60.9697 310.271 61.8997 309.586 62.5854C308.9 63.271 307.97 63.6562 307 63.6562ZM321.625 63.6562C320.902 63.6562 320.195 63.4418 319.594 63.0401C318.993 62.6383 318.524 62.0673 318.248 61.3992C317.971 60.7311 317.898 59.9959 318.039 59.2867C318.181 58.5775 318.529 57.926 319.04 57.4146C319.551 56.9033 320.203 56.5551 320.912 56.414C321.621 56.2729 322.357 56.3453 323.025 56.6221C323.693 56.8988 324.264 57.3674 324.666 57.9687C325.067 58.57 325.282 59.2769 325.282 60C325.282 60.9697 324.896 61.8997 324.211 62.5854C323.525 63.271 322.595 63.6562 321.625 63.6562Z" fill="#D6EAA6"/>
</g>
<defs>
<clipPath id="clip0_120_18678">
<rect width="360" height="220" fill="white"/>
</clipPath>
</defs>
</svg>
