<svg width="360" height="220" viewBox="0 0 360 220" fill="none" xmlns="http://www.w3.org/2000/svg">
<g clip-path="url(#clip0_124_20289)">
<circle cx="359.5" cy="-52.5" r="102.5" stroke="#BBD77F" stroke-width="10"/>
<path d="M306.5 80C291.864 80 280 68.136 280 53.5C280 38.8641 291.864 27 306.5 27C321.136 27 333 38.8641 333 53.5C333 68.136 321.136 80 306.5 80ZM306.5 42.2561L295.256 53.5L306.5 64.7439L317.744 53.5L306.5 42.2561Z" fill="#FFC4AF"/>
<path d="M306.5 137C291.864 137 280 125.136 280 110.5C280 95.8641 291.864 84 306.5 84C321.136 84 333 95.8641 333 110.5C333 125.136 321.136 137 306.5 137ZM306.5 99.2561L295.256 110.5L306.5 121.744L317.744 110.5L306.5 99.2561Z" fill="#FFC4AF"/>
<rect x="247.445" y="45.5355" width="14.0139" height="14.0139" transform="rotate(45 247.445 45.5355)" stroke="#FFF1BE" stroke-width="5"/>
</g>
<defs>
<clipPath id="clip0_124_20289">
<rect width="360" height="220" fill="white"/>
</clipPath>
</defs>
</svg>
