<svg width="360" height="220" viewBox="0 0 360 220" fill="none" xmlns="http://www.w3.org/2000/svg">
<g clip-path="url(#clip0_112_18425)">
<path d="M302.134 94.5H280.834V119.857C280.834 122.191 282.953 124.083 285.567 124.083H302.134V94.5Z" fill="#CBE293"/>
<path d="M306.867 124.083H323.434C326.048 124.083 328.167 122.191 328.167 119.857V94.5H306.867V124.083Z" fill="#CBE293"/>
<path d="M330.378 82.6666C330.79 82.6666 331.125 83.0012 331.125 83.414V90.7943C331.125 91.207 330.79 91.5416 330.378 91.5416L278.622 91.5416C278.21 91.5416 277.875 91.207 277.875 90.7943L277.875 83.414C277.875 83.0012 278.21 82.6666 278.622 82.6666L330.378 82.6666Z" fill="#FF998A"/>
<path d="M304.5 88.5833L302.784 86.8808C296.69 80.8578 292.667 76.8854 292.667 72.0102C292.667 68.0378 295.53 64.9166 299.175 64.9166C301.234 64.9166 303.21 65.9613 304.5 67.6122C305.79 65.9613 307.766 64.9166 309.825 64.9166C313.47 64.9166 316.333 68.0378 316.333 72.0102C316.333 76.8854 312.31 80.8578 306.216 86.8937L304.5 88.5833Z" fill="#FF998A"/>
<circle cx="357.75" cy="-23" r="78" transform="rotate(-180 357.75 -23)" stroke="#FFE8AC" stroke-width="8"/>
<rect x="267.332" y="35.3129" width="14.2496" height="14.2496" transform="rotate(45 267.332 35.3129)" stroke="#CEDCAF" stroke-width="5"/>
</g>
<defs>
<clipPath id="clip0_112_18425">
<rect width="360" height="220" fill="white"/>
</clipPath>
</defs>
</svg>
