<svg width="514" height="85" viewBox="0 0 514 85" fill="none" xmlns="http://www.w3.org/2000/svg">
<g clip-path="url(#clip0_26_18449)">
<path d="M58.6605 56.3499L63.9605 19.4399H53.6605L47.2305 64.5399H74.3905L75.5205 56.3499H58.6605Z" fill="#00000E"/>
<path d="M89.9593 19.4399L83.5293 64.5399H93.8393L100.269 19.4399H89.9593Z" fill="#00000E"/>
<path d="M138.891 19.4399L124.051 51.3699L119.151 19.4399H109.061L117.551 64.5399H126.821L148.981 19.4399H138.891Z" fill="#00000E"/>
<path d="M316.889 47.84L335.549 19.25H324.379L312.959 37.52L306.799 19.25H296.289L306.669 46.37L304.109 64.34H314.409L316.819 47.95L316.889 47.84Z" fill="#00000E"/>
<path d="M372.21 23.5101C369.35 20.3101 364.72 18.1401 359.04 18.0801C345.02 17.9301 337.64 26.4701 335.49 41.5601V41.6201C334.32 49.7201 335.73 56.0601 339.22 60.1001C342.05 63.3701 346.49 65.2401 352.1 65.5101C366.08 66.1901 374.14 57.0601 375.85 41.7201C376.8 33.2101 375.77 27.4801 372.21 23.5001V23.5101ZM365.09 41.8801C363.49 53.0901 359.98 57.6401 353.36 57.6401C350.8 57.6401 348.96 56.6001 347.67 55.1101C345.57 52.6901 345.04 48.8301 346.04 41.7801V41.7201C347.61 31.0101 351.05 25.9401 357.67 25.9401C360.22 25.9401 362.2 26.6901 363.49 28.1801C365.59 30.6001 366.1 34.8001 365.09 41.8901V41.8801Z" fill="#00000E"/>
<path d="M36.94 23.7201C34.09 20.5401 29.49 18.3801 23.84 18.3101C9.88999 18.1601 2.54999 26.6701 0.399987 41.6801V41.7401C-0.760013 49.8001 0.639987 56.1101 4.11999 60.1301C6.92999 63.3801 11.36 65.2501 16.93 65.5201C30.84 66.1901 38.86 57.1101 40.56 41.8501C41.5 33.3801 40.48 27.6801 36.94 23.7201ZM29.86 42.0001C28.27 53.1501 24.78 57.6801 18.19 57.6801C15.65 57.6801 13.81 56.6401 12.52 55.1601C10.43 52.7501 9.89999 48.9101 10.9 41.9001V41.8401C12.47 31.1801 15.88 26.1401 22.47 26.1401C25.01 26.1401 26.98 26.8901 28.26 28.3701C30.35 30.7801 30.86 34.9501 29.85 42.0101L29.86 42.0001Z" fill="#00000E"/>
<path d="M459.7 19.25L455.43 50.03L444.17 19.25H433.51L427.08 64.34H436.59L441.31 32.59L452.74 64.34H462.77L469.2 19.25H459.7Z" fill="#00000E"/>
<path d="M512.259 49.3998C510.929 58.4798 504.009 66.4398 491.209 65.6098C485.099 65.2098 481.099 62.8198 478.289 58.9898C475.549 55.2598 473.989 49.0798 475.359 40.8198C478.159 23.8798 486.619 17.7398 498.369 18.2498C506.459 18.5998 511.119 22.4198 513.599 29.6398L504.819 32.5598C504.169 30.2698 502.199 26.2398 497.349 25.8398C490.719 25.2898 486.639 30.9998 485.089 41.8298C484.179 48.1698 483.669 56.5398 491.779 57.4798C497.349 58.1298 501.569 55.6698 503.489 48.6398C503.799 47.4798 503.839 46.8198 503.839 46.8198H494.059L495.159 39.1498L513.349 39.1298C513.409 39.3898 512.839 45.4998 512.259 49.3998Z" fill="#00000E"/>
<path d="M157.549 19.4399L151.119 64.5399H179.009L180.079 56.9899H162.499L164.389 44.6399H180.189L181.149 37.0199H165.349L166.779 26.9899H183.419L184.489 19.4399H157.549Z" fill="#00000E"/>
<path d="M412.55 19.4102L408.63 47.1802C407.61 52.8702 407.56 54.4602 405.01 56.5802C402.6 58.5902 397.36 58.4202 394.79 55.8002C392.76 53.7302 393.55 49.4602 394.1 45.0802L397.37 19.4102H387.07L383.35 48.2902C382.35 55.8702 384.99 59.9702 389.98 63.1602C393.96 65.7002 399.46 66.0602 403.02 65.5802C409.34 64.7202 413.5 62.2302 415.94 58.0202C417.44 55.4302 418.14 52.8102 418.81 48.2602L422.86 19.4102H412.56H412.55Z" fill="#00000E"/>
<path d="M241.86 0C218.61 0 199.76 18.85 199.76 42.1C199.76 65.35 218.61 84.2 241.86 84.2C265.11 84.2 283.96 65.35 283.96 42.1C283.96 18.85 265.11 0 241.86 0ZM264.01 47.21C259.41 67.15 245.76 81.02 233.53 78.19C221.3 75.37 215.11 56.91 219.71 36.98C224.31 17.04 237.96 3.17 250.19 6C262.42 8.82 268.61 27.28 264.01 47.21Z" fill="#A7CE48"/>
<path d="M254.641 22.3999C253.241 28.4299 248.611 32.4899 244.311 31.4899C240.001 30.4899 237.641 24.8099 239.021 18.7899C240.421 12.7899 245.031 8.71987 249.341 9.70987C253.661 10.7099 256.031 16.3899 254.641 22.3999Z" fill="#FF8B61"/>
</g>
<defs>
<clipPath id="clip0_26_18449">
<rect width="513.59" height="84.2" fill="white"/>
</clipPath>
</defs>
</svg>
