<svg width="183" height="30" viewBox="0 0 183 30" fill="none" xmlns="http://www.w3.org/2000/svg">
<g clip-path="url(#clip0_311_10647)">
<path d="M20.9006 20.0771L22.7889 6.92627H19.1191L16.8281 22.9952H26.5051L26.9077 20.0771H20.9006Z" fill="white"/>
<path d="M32.0527 6.92627L29.7617 22.9952H33.4351L35.7261 6.92627H32.0527Z" fill="white"/>
<path d="M49.4857 6.92627L44.1983 18.3028L42.4524 6.92627H38.8574L41.8824 22.9952H45.1852L53.0807 6.92627H49.4857Z" fill="white"/>
<path d="M112.906 17.0453L119.555 6.85889H115.575L111.506 13.3684L109.311 6.85889H105.566L109.265 16.5216L108.353 22.9242H112.022L112.881 17.0845L112.906 17.0453Z" fill="white"/>
<path d="M132.616 8.37629C131.597 7.23615 129.947 6.46299 127.923 6.44161C122.928 6.38817 120.299 9.43092 119.533 14.8074V14.8288C119.116 17.7148 119.618 19.9737 120.862 21.4131C121.87 22.5782 123.452 23.2445 125.451 23.3407C130.432 23.5829 133.303 20.33 133.913 14.8644C134.251 11.8323 133.884 9.79078 132.616 8.37273V8.37629ZM130.079 14.9214C129.509 18.9155 128.258 20.5366 125.9 20.5366C124.987 20.5366 124.332 20.1661 123.872 19.6352C123.124 18.773 122.935 17.3977 123.292 14.8858V14.8644C123.851 11.0485 125.077 9.24209 127.435 9.24209C128.344 9.24209 129.049 9.50931 129.509 10.0402C130.257 10.9024 130.439 12.3989 130.079 14.925V14.9214Z" fill="white"/>
<path d="M13.1615 8.4512C12.1461 7.31818 10.5071 6.54858 8.49406 6.52364C3.52375 6.4702 0.908546 9.50227 0.142513 14.8502V14.8716C-0.270789 17.7434 0.228024 19.9916 1.46793 21.4239C2.46912 22.5818 4.0475 23.2481 6.03206 23.3443C10.9881 23.583 13.8456 20.3479 14.4513 14.9108C14.7862 11.893 14.4228 9.86212 13.1615 8.4512V8.4512ZM10.639 14.9643C10.0724 18.9369 8.82897 20.551 6.48099 20.551C5.57601 20.551 4.92042 20.1804 4.4608 19.6531C3.71615 18.7944 3.52731 17.4263 3.88361 14.9286V14.9073C4.44299 11.1092 5.65795 9.31343 8.00593 9.31343C8.91092 9.31343 9.61282 9.58065 10.0689 10.108C10.8135 10.9666 10.9952 12.4524 10.6354 14.9678L10.639 14.9643Z" fill="white"/>
<path d="M163.788 6.85889L162.267 17.8256L158.255 6.85889H154.457L152.166 22.9242H155.554L157.236 11.6119L161.309 22.9242H164.882L167.173 6.85889H163.788Z" fill="white"/>
<path d="M182.515 17.6011C182.041 20.8363 179.575 23.6724 175.015 23.3767C172.838 23.2341 171.413 22.3826 170.412 21.018C169.435 19.689 168.879 17.4871 169.368 14.5441C170.365 8.5085 173.379 6.32085 177.566 6.50256C180.448 6.62726 182.109 7.98831 182.992 10.5608L179.864 11.6011C179.632 10.7852 178.931 9.34935 177.203 9.20683C174.84 9.01087 173.387 11.0453 172.834 14.904C172.51 17.1629 172.328 20.1451 175.218 20.48C177.203 20.7116 178.706 19.8351 179.39 17.3303C179.501 16.917 179.515 16.6819 179.515 16.6819H176.03L176.422 13.9491L182.903 13.942C182.925 14.0346 182.722 16.2116 182.515 17.6011V17.6011Z" fill="white"/>
<path d="M56.1347 6.92627L53.8438 22.9952H63.7808L64.162 20.3051H57.8984L58.5718 15.9049H64.2012L64.5433 13.1899H58.9138L59.4233 9.61629H65.3521L65.7333 6.92627H56.1347Z" fill="white"/>
<path d="M146.99 6.91553L145.593 16.8098C145.23 18.8371 145.212 19.4037 144.304 20.159C143.445 20.8751 141.578 20.8146 140.662 19.8811C139.939 19.1436 140.221 17.6222 140.417 16.0616L141.582 6.91553H137.912L136.586 17.2053C136.23 19.906 137.171 21.3668 138.949 22.5034C140.367 23.4084 142.326 23.5367 143.595 23.3656C145.846 23.0592 147.329 22.1721 148.198 20.6721C148.732 19.7493 148.982 18.8158 149.221 17.1946L150.664 6.91553H146.994H146.99Z" fill="white"/>
<path d="M86.1738 0C77.89 0 71.1738 6.71615 71.1738 15C71.1738 23.2838 77.89 30 86.1738 30C94.4577 30 101.174 23.2838 101.174 15C101.174 6.71615 94.4577 0 86.1738 0ZM94.0658 16.8207C92.4268 23.9252 87.5634 28.867 83.2059 27.8587C78.8484 26.8539 76.643 20.2767 78.2819 13.1758C79.9209 6.07126 84.7843 1.12945 89.1418 2.13777C93.4992 3.14252 95.7047 9.71971 94.0658 16.8207V16.8207Z" fill="#A7CE48"/>
<path d="M90.7272 7.98097C90.2284 10.1294 88.5787 11.576 87.0466 11.2197C85.511 10.8634 84.6702 8.83964 85.1618 6.69475C85.6607 4.55698 87.3032 3.10686 88.8388 3.45959C90.378 3.81589 91.2224 5.83964 90.7272 7.98097Z" fill="#FF8B61"/>
</g>
<defs>
<clipPath id="clip0_311_10647">
<rect width="182.989" height="30" fill="white"/>
</clipPath>
</defs>
</svg>
