<svg width="24" height="24" viewBox="0 0 24 24" fill="none" xmlns="http://www.w3.org/2000/svg">
<path fill-rule="evenodd" clip-rule="evenodd" d="M5.737 21.25H3C2.73478 21.25 2.48043 21.1446 2.29289 20.9571C2.10536 20.7696 2 20.5152 2 20.25V13.724C2 13.4588 2.10536 13.2044 2.29289 13.0169C2.48043 12.8294 2.73478 12.724 3 12.724H5.737C6.00222 12.724 6.25657 12.8294 6.44411 13.0169C6.63164 13.2044 6.737 13.4588 6.737 13.724V20.25C6.737 20.5152 6.63164 20.7696 6.44411 20.9571C6.25657 21.1446 6.00222 21.25 5.737 21.25ZM13.369 21.25H10.632C10.3668 21.25 10.1124 21.1446 9.92489 20.9571C9.73736 20.7696 9.632 20.5152 9.632 20.25V8.987C9.632 8.72178 9.73736 8.46743 9.92489 8.27989C10.1124 8.09236 10.3668 7.987 10.632 7.987H13.369C13.6342 7.987 13.8886 8.09236 14.0761 8.27989C14.2636 8.46743 14.369 8.72178 14.369 8.987V20.25C14.369 20.5152 14.2636 20.7696 14.0761 20.9571C13.8886 21.1446 13.6342 21.25 13.369 21.25ZM21 21.25H18.263C17.9978 21.25 17.7434 21.1446 17.5559 20.9571C17.3684 20.7696 17.263 20.5152 17.263 20.25V4.25C17.263 3.98478 17.3684 3.73043 17.5559 3.54289C17.7434 3.35536 17.9978 3.25 18.263 3.25H21C21.2652 3.25 21.5196 3.35536 21.7071 3.54289C21.8946 3.73043 22 3.98478 22 4.25V20.25C22 20.5152 21.8946 20.7696 21.7071 20.9571C21.5196 21.1446 21.2652 21.25 21 21.25Z" stroke="#1F67FD" stroke-width="2"/>
</svg>
