<svg width="24" height="24" viewBox="0 0 24 24" fill="none" xmlns="http://www.w3.org/2000/svg">
<path d="M2 3.38743C2 2.70487 2.6687 2.2229 3.31623 2.43874L7.31623 3.77208C7.72457 3.90819 8 4.29033 8 4.72076V20.6126C8 21.2951 7.3313 21.7771 6.68377 21.5613L2.68377 20.2279C2.27543 20.0918 2 19.7097 2 19.2792V3.38743Z" fill="#6097FF"/>
<path d="M16 3.38743C16 2.70487 16.6687 2.2229 17.3162 2.43874L21.3162 3.77208C21.7246 3.90819 22 4.29033 22 4.72076V20.6126C22 21.2951 21.3313 21.7771 20.6838 21.5613L16.6838 20.2279C16.2754 20.0918 16 19.7097 16 19.2792V3.38743Z" fill="#6097FF"/>
<path d="M9 20.6126C9 21.2951 9.6687 21.7771 10.3162 21.5613L14.3162 20.2279C14.7246 20.0918 15 19.7097 15 19.2792V3.38743C15 2.70487 14.3313 2.2229 13.6838 2.43874L9.68377 3.77208C9.27543 3.90819 9 4.29033 9 4.72076V20.6126Z" fill="#9EC0FF"/>
</svg>
