<svg width="24" height="24" viewBox="0 0 24 24" fill="none" xmlns="http://www.w3.org/2000/svg">
<path d="M12 12V21" stroke="#006096" stroke-width="2" stroke-linecap="round" stroke-linejoin="round"/>
<path d="M12 3V4" stroke="#006096" stroke-width="2" stroke-linecap="round" stroke-linejoin="round"/>
<path d="M18.0105 5.9896L18.0105 5.98961C19.6044 7.58366 20.5 9.74566 20.5 12C20.5 12.1733 20.4103 12.3342 20.2629 12.4253C20.1155 12.5164 19.9314 12.5247 19.7764 12.4472L18 11.559L16.2236 12.4472C16.0828 12.5176 15.9172 12.5176 15.7764 12.4472L14 11.559L12.2236 12.4472C12.0828 12.5176 11.9172 12.5176 11.7764 12.4472L10 11.559L8.22361 12.4472C8.08284 12.5176 7.91716 12.5176 7.77639 12.4472L6 11.559L4.22361 12.4472C4.06861 12.5247 3.88454 12.5164 3.73713 12.4253C3.58973 12.3342 3.5 12.1733 3.5 12C3.5 9.74566 4.39554 7.58366 5.9896 5.9896L18.0105 5.9896ZM18.0105 5.9896C16.4164 4.39553 14.2543 3.5 12 3.5C9.74566 3.5 7.58366 4.39553 5.9896 5.9896H18.0105Z" fill="#6C6AC8" stroke="#6C6AC8" stroke-linecap="round" stroke-linejoin="round"/>
</svg>
