<svg width="24" height="24" viewBox="0 0 24 24" fill="none" xmlns="http://www.w3.org/2000/svg">
<path d="M7 12C8.6569 12 10 10.6568 10 9C10 7.34315 8.6569 6 7 6C5.3431 6 4 7.34315 4 9C4 10.6568 5.3431 12 7 12Z" fill="#9AD6DC"/>
<path d="M1 19C1 16.2386 3.23858 14 6 14H9C11.7614 14 14 16.2386 14 19V19C14 19.5523 13.5523 20 13 20H2C1.44772 20 1 19.5523 1 19V19Z" fill="#9AD6DC"/>
<path d="M17 12C18.6569 12 20 10.6568 20 9C20 7.34315 18.6569 6 17 6C15.3431 6 14 7.34315 14 9C14 10.6568 15.3431 12 17 12Z" fill="#9AD6DC"/>
<path d="M10 19C10 16.2386 12.2386 14 15 14H19C21.7614 14 24 16.2386 24 19V19C24 19.5523 23.5523 20 23 20H11C10.4477 20 10 19.5523 10 19V19Z" fill="#9AD6DC"/>
<path d="M12 12C14.2092 12 16 10.2091 16 8C16 5.79087 14.2092 4 12 4C9.7908 4 8 5.79087 8 8C8 10.2091 9.7908 12 12 12Z" fill="#4A62E1"/>
<path d="M5 18C5 15.2386 7.23858 13 10 13H14C16.7614 13 19 15.2386 19 18V19C19 19.5523 18.5523 20 18 20H6C5.44772 20 5 19.5523 5 19V18Z" fill="#4A62E1"/>
</svg>
