<svg width="24" height="24" viewBox="0 0 24 24" fill="none" xmlns="http://www.w3.org/2000/svg">
<path d="M2.5 3.5C2.5 2.94772 2.94772 2.5 3.5 2.5H10.5C11.0523 2.5 11.5 2.94772 11.5 3.5V10.5C11.5 11.0523 11.0523 11.5 10.5 11.5H3.5C2.94772 11.5 2.5 11.0523 2.5 10.5V3.5Z" fill="#137EE1"/>
<path d="M12.5 3.5C12.5 2.94772 12.9477 2.5 13.5 2.5H20.5C21.0523 2.5 21.5 2.94772 21.5 3.5V10.5C21.5 11.0523 21.0523 11.5 20.5 11.5H13.5C12.9477 11.5 12.5 11.0523 12.5 10.5V3.5Z" fill="#137EE1"/>
<path d="M12.5 13.5C12.5 12.9477 12.9477 12.5 13.5 12.5H20.5C21.0523 12.5 21.5 12.9477 21.5 13.5V20.5C21.5 21.0523 21.0523 21.5 20.5 21.5H13.5C12.9477 21.5 12.5 21.0523 12.5 20.5V13.5Z" fill="#137EE1"/>
<path d="M2.5 13.5C2.5 12.9477 2.94772 12.5 3.5 12.5H10.5C11.0523 12.5 11.5 12.9477 11.5 13.5V20.5C11.5 21.0523 11.0523 21.5 10.5 21.5H3.5C2.94772 21.5 2.5 21.0523 2.5 20.5V13.5Z" fill="#137EE1"/>
</svg>
