<svg width="24" height="24" viewBox="0 0 24 24" fill="none" xmlns="http://www.w3.org/2000/svg">
<path d="M19.71 7.50448L14.5434 2.29577C14.3556 2.10647 14.1 2 13.8334 2H5C4.44772 2 4 2.44772 4 3V21C4 21.5523 4.44772 22 5 22H19C19.5523 22 20 21.5523 20 21V8.20871C20 7.9449 19.8958 7.69178 19.71 7.50448Z" fill="#8BD3DB"/>
<path d="M15 12L10.8 16L9 14.2857" stroke="#0E4ABF" stroke-width="2" stroke-linecap="round" stroke-linejoin="round"/>
<path d="M19.8091 7.35537L14.6248 2.1521C14.5277 2.05473 14.396 2 14.2585 2C14.1157 2 14 2.11574 14 2.25851V7.01562C14 7.56791 14.4477 8.01562 15 8.01562H19.695C19.8462 8.01562 19.9688 7.89305 19.9688 7.74185C19.9688 7.59697 19.9113 7.458 19.8091 7.35537Z" fill="#19B6C7"/>
</svg>
