<svg width="24" height="24" viewBox="0 0 24 24" fill="none" xmlns="http://www.w3.org/2000/svg">
<path d="M8.57143 3H6C4.89543 3 4 3.89543 4 5V20C4 21.1046 4.89543 22 6 22H18C19.1046 22 20 21.1046 20 20V5C20 3.89543 19.1046 3 18 3H15.4286" fill="white"/>
<path fill-rule="evenodd" clip-rule="evenodd" d="M15.5303 9.46967C15.8232 9.76256 15.8232 10.2374 15.5303 10.5303L11.3303 14.7303C11.1896 14.871 10.9988 14.95 10.7999 14.95C10.601 14.95 10.4103 14.871 10.2696 14.7303L8.46966 12.9303C8.17677 12.6374 8.17678 12.1625 8.46968 11.8697C8.76258 11.5768 9.23745 11.5768 9.53034 11.8697L10.7999 13.1393L14.4696 9.46967C14.7625 9.17678 15.2374 9.17678 15.5303 9.46967Z" fill="#00AABE"/>
<path d="M16 3C16 2.44772 15.5523 2 15 2H9C8.44772 2 8 2.44772 8 3V3.5V4C8 4.55228 8.44772 5 9 5H15C15.5523 5 16 4.55228 16 4V3.5V3Z" fill="#008797"/>
</svg>
