<svg width="24" height="24" viewBox="0 0 24 24" fill="none" xmlns="http://www.w3.org/2000/svg">
<path fill-rule="evenodd" clip-rule="evenodd" d="M12 23C18.0751 23 23 18.0751 23 12C23 5.92487 18.0751 1 12 1C5.92487 1 1 5.92487 1 12C1 18.0751 5.92487 23 12 23ZM13.3179 5.80888V10.8006L18.3096 10.8006C18.4673 10.8005 18.6235 10.8315 18.7692 10.8918C18.9149 10.9521 19.0473 11.0406 19.1588 11.1521C19.2703 11.2636 19.3588 11.396 19.4191 11.5417C19.4794 11.6874 19.5104 11.8436 19.5103 12.0013C19.5106 12.1589 19.4797 12.3151 19.4195 12.4608C19.3593 12.6065 19.2709 12.7389 19.1594 12.8503C19.0479 12.9618 18.9156 13.0502 18.7699 13.1104C18.6242 13.1706 18.468 13.2015 18.3103 13.2012L13.3179 13.2005L13.3179 18.1937C13.3179 18.5246 13.1836 18.8244 12.9665 19.0415C12.7983 19.2086 12.5845 19.3222 12.352 19.3681C12.1194 19.414 11.8784 19.3901 11.6594 19.2994C11.4404 19.2087 11.2531 19.0553 11.121 18.8584C10.989 18.6615 10.9181 18.43 10.9173 18.193L10.918 13.2005L5.92557 13.2012C5.61425 13.1908 5.31916 13.0598 5.10259 12.8359C4.88602 12.612 4.7649 12.3128 4.76481 12.0013C4.76472 11.6898 4.88566 11.3904 5.1021 11.1664C5.31854 10.9424 5.61355 10.8112 5.92486 10.8006H10.918L10.9173 5.80818C10.9173 5.65055 10.9484 5.49447 11.0088 5.34886C11.0692 5.20325 11.1576 5.07096 11.2691 4.95953C11.3806 4.8481 11.5129 4.75973 11.6586 4.69945C11.8042 4.63917 11.9603 4.60817 12.118 4.60822C12.2756 4.60826 12.4317 4.63936 12.5773 4.69972C12.7229 4.76009 12.8552 4.84854 12.9666 4.96003C13.078 5.07152 13.1664 5.20387 13.2267 5.34952C13.287 5.49516 13.318 5.65126 13.3179 5.80888Z" fill="#FF8C7B"/>
</svg>
