<svg width="24" height="24" viewBox="0 0 24 24" fill="none" xmlns="http://www.w3.org/2000/svg">
<path fill-rule="evenodd" clip-rule="evenodd" d="M12 2C6.47716 2 2 6.47716 2 12C2 17.5229 6.47716 22 12 22C17.5229 22 22 17.5229 22 12C22 6.47716 17.5229 2 12 2ZM13 7C13 6.44772 12.5523 6 12 6C11.4477 6 11 6.44772 11 7V7.00999C11 7.56227 11.4477 8.00999 12 8.00999C12.5523 8.00999 13 7.56227 13 7.00999V7ZM13 10C13 9.44772 12.5523 9 12 9C11.4477 9 11 9.44772 11 10V17C11 17.5523 11.4477 18 12 18C12.5523 18 13 17.5523 13 17V10Z" fill="#0554E5"/>
</svg>
