<svg width="24" height="24" viewBox="0 0 24 24" fill="none" xmlns="http://www.w3.org/2000/svg">
<path d="M3 19H1V18C1 16.1362 2.27477 14.57 4 14.126" stroke="#1F67FD" stroke-width="2" stroke-linecap="round" stroke-linejoin="round"/>
<path d="M6 10.8292C4.83481 10.4174 4 9.30616 4 7.99994C4 6.69372 4.83481 5.58248 6 5.17065" stroke="#1F67FD" stroke-width="2" stroke-linecap="round" stroke-linejoin="round"/>
<path d="M21 19H23V18C23 16.1362 21.7252 14.57 20 14.126" stroke="#1F67FD" stroke-width="2" stroke-linecap="round" stroke-linejoin="round"/>
<path d="M18 5.17065C19.1652 5.58248 20 6.69372 20 7.99994C20 9.30616 19.1652 10.4174 18 10.8292" stroke="#1F67FD" stroke-width="2" stroke-linecap="round" stroke-linejoin="round"/>
<path d="M14 14H10C7.79086 14 6 15.7909 6 18V19H18V18C18 15.7909 16.2091 14 14 14Z" stroke="#1F67FD" stroke-width="2" stroke-linecap="round" stroke-linejoin="round"/>
<path d="M12 11C13.6569 11 15 9.65685 15 8C15 6.34315 13.6569 5 12 5C10.3431 5 9 6.34315 9 8C9 9.65685 10.3431 11 12 11Z" stroke="#1F67FD" stroke-width="2" stroke-linecap="round" stroke-linejoin="round"/>
</svg>
