<svg width="25" height="24" viewBox="0 0 25 24" fill="none" xmlns="http://www.w3.org/2000/svg">
<circle cx="12.5" cy="11" r="9" fill="#A8E1E7"/>
<path fill-rule="evenodd" clip-rule="evenodd" d="M18.5 13.247H16.489L15.769 15.866C15.7062 16.1002 15.5674 16.307 15.3746 16.4539C15.1817 16.6008 14.9455 16.6796 14.703 16.678H14.702C14.198 16.678 13.77 16.351 13.637 15.866L12.5 11.738L11.364 15.866C11.3012 16.1002 11.1624 16.307 10.9696 16.4539C10.7767 16.6008 10.5405 16.6796 10.298 16.678C9.794 16.678 9.366 16.352 9.232 15.867L8.511 13.247H6.5C6.26131 13.247 6.03239 13.1522 5.8636 12.9834C5.69482 12.8146 5.6 12.5857 5.6 12.347C5.6 12.1083 5.69482 11.8794 5.8636 11.7106C6.03239 11.5418 6.26131 11.447 6.5 11.447H8.016L7.385 9.155C7.3501 9.03999 7.33859 8.91916 7.35114 8.79964C7.3637 8.68011 7.40006 8.56431 7.4581 8.45907C7.51613 8.35382 7.59466 8.26127 7.68904 8.18686C7.78342 8.11246 7.89175 8.05771 8.00764 8.02585C8.12352 7.99399 8.24461 7.98566 8.36377 8.00136C8.48292 8.01706 8.59772 8.05646 8.7014 8.11725C8.80508 8.17803 8.89554 8.25896 8.96743 8.35527C9.03933 8.45158 9.0912 8.56132 9.12 8.678L10.298 12.956L11.434 8.829C11.4965 8.59452 11.6351 8.38745 11.828 8.24029C12.021 8.09314 12.2573 8.01424 12.5 8.016C13.004 8.016 13.433 8.343 13.566 8.829L14.703 12.956L15.88 8.678C15.9113 8.56401 15.9648 8.45731 16.0373 8.36399C16.1099 8.27066 16.2001 8.19254 16.3029 8.13409C16.4056 8.07563 16.5189 8.03799 16.6362 8.0233C16.7535 8.00862 16.8725 8.01718 16.9865 8.0485C17.1005 8.07982 17.2072 8.13329 17.3005 8.20584C17.3938 8.2784 17.472 8.36863 17.5304 8.47138C17.5889 8.57412 17.6265 8.68738 17.6412 8.80468C17.6559 8.92197 17.6473 9.04101 17.616 9.155L16.984 11.447H18.5C18.7387 11.447 18.9676 11.5418 19.1364 11.7106C19.3052 11.8794 19.4 12.1083 19.4 12.347C19.4 12.5857 19.3052 12.8146 19.1364 12.9834C18.9676 13.1522 18.7387 13.247 18.5 13.247M12.5 1C6.425 1 1.5 5.925 1.5 12C1.5 18.076 6.425 23 12.5 23C18.575 23 23.5 18.076 23.5 12C23.5 5.925 18.575 1 12.5 1Z" fill="#004ADA"/>
</svg>
