<svg width="90" height="90" viewBox="0 0 90 90" fill="none" xmlns="http://www.w3.org/2000/svg">
<path d="M22.5 75V15C22.5 10.875 25.875 7.5 30 7.5H60C64.125 7.5 67.5 10.875 67.5 15V75C67.5 79.125 64.125 82.5 60 82.5H30C25.875 82.5 22.5 79.125 22.5 75Z" fill="url(#paint0_linear_527_20601)"/>
<path d="M60 13.125H30C28.875 13.125 28.125 13.875 28.125 15V69.375C28.125 70.5 28.875 71.25 30 71.25H60C61.125 71.25 61.875 70.5 61.875 69.375V15C61.875 13.875 61.125 13.125 60 13.125Z" fill="#EDF7FF"/>
<path d="M39.375 76.875C39.375 75.8395 40.2145 75 41.25 75H48.75C49.7855 75 50.625 75.8395 50.625 76.875V76.875C50.625 77.9105 49.7855 78.75 48.75 78.75H41.25C40.2145 78.75 39.375 77.9105 39.375 76.875V76.875Z" fill="#C8EDFF"/>
<defs>
<linearGradient id="paint0_linear_527_20601" x1="-15" y1="-1.5" x2="73.5" y2="93" gradientUnits="userSpaceOnUse">
<stop stop-color="#41425F"/>
<stop offset="1" stop-color="#0F1256"/>
</linearGradient>
</defs>
</svg>
