<svg width="24" height="24" viewBox="0 0 24 24" fill="none" xmlns="http://www.w3.org/2000/svg">
<path d="M3.29002 3.99991C3.29002 3.38991 3.78002 2.90991 4.39002 2.90991H4.40002C5.01002 2.90991 5.50002 3.40991 5.49002 4.01991L5.45002 12.5999C5.45002 12.9999 5.60002 13.3799 5.89002 13.6599C6.17002 13.9399 6.55002 14.0999 6.95002 14.0999L18.01 14.0999L14.08 10.1699C13.65 9.73991 13.65 9.03991 14.08 8.60991C14.51 8.17991 15.2 8.17991 15.64 8.60991L21.45 14.4199C21.66 14.6299 21.77 14.9099 21.77 15.1999C21.77 15.4899 21.65 15.7699 21.45 15.9799L15.64 21.7899C15.43 21.9999 15.14 22.1099 14.86 22.1099C14.58 22.1099 14.3 21.9999 14.08 21.7899C13.65 21.3599 13.65 20.6599 14.08 20.2399L18.01 16.3099L6.94002 16.3099C5.95002 16.3099 5.02002 15.9199 4.32002 15.2199C3.62002 14.5199 3.24002 13.5899 3.24002 12.5999L3.29002 3.99991Z" fill="#1F67FD"/>
</svg>
