<svg width="24" height="25" viewBox="0 0 24 25" fill="none" xmlns="http://www.w3.org/2000/svg">
<path fill-rule="evenodd" clip-rule="evenodd" d="M3.90006 9.12504C3.90006 8.78004 4.03506 8.43504 4.29006 8.16504C4.54306 7.91315 4.88555 7.77173 5.24256 7.77173C5.59958 7.77173 5.94206 7.91315 6.19506 8.16504L12.0001 13.97L17.7901 8.16504C18.0431 7.91315 18.3855 7.77173 18.7426 7.77173C19.0996 7.77173 19.4421 7.91315 19.6951 8.16504C19.947 8.41805 20.0884 8.76053 20.0884 9.11754C20.0884 9.47456 19.947 9.81704 19.6951 10.07L12.9451 16.82C12.6921 17.0719 12.3496 17.2134 11.9926 17.2134C11.6355 17.2134 11.2931 17.0719 11.0401 16.82L4.29006 10.07C4.03506 9.81504 3.90006 9.47004 3.90006 9.12504" fill="white"/>
</svg>
