<svg width="24" height="24" viewBox="0 0 24 24" fill="none" xmlns="http://www.w3.org/2000/svg">
<path fill-rule="evenodd" clip-rule="evenodd" d="M11 5C11 4.44772 10.5506 3.99417 10.0016 4.05475C5.50088 4.55147 2 8.3669 2 13C2 17.9706 6.02944 22 11 22C15.6331 22 19.4485 18.4991 19.9452 13.9984C20.0058 13.4494 19.5523 13 19 13H11V5Z" fill="#FFC4C4"/>
<path fill-rule="evenodd" clip-rule="evenodd" d="M13 3C13 2.44772 13.4494 1.99417 13.9984 2.05475C18.1713 2.51529 21.4847 5.8287 21.9452 10.0016C22.0058 10.5506 21.5523 11 21 11H14C13.4477 11 13 10.5523 13 10V3Z" fill="#FF7474"/>
</svg>
