<svg width="24" height="24" viewBox="0 0 24 24" fill="none" xmlns="http://www.w3.org/2000/svg">
<path d="M3.7166 21.4089C3.25776 21.0306 3 20.5177 3 19.9829V11H21V19.982C21 20.5169 20.7422 21.0298 20.2834 21.4081C19.8246 21.7863 19.2022 21.9989 18.5532 21.9992H15V18.8449C15 18.622 14.8925 18.4082 14.7013 18.2506C14.51 18.093 14.2506 18.0044 13.9801 18.0044H10.0199C9.74944 18.0044 9.49001 18.093 9.29874 18.2506C9.10746 18.4082 9 18.622 9 18.8449V22H5.44685C4.79781 21.9998 4.17545 21.7872 3.7166 21.4089Z" stroke="#1F67FD" stroke-width="2"/>
<rect x="2" y="3" width="20" height="8" rx="1" stroke="#1F67FD" stroke-width="2"/>
<path d="M2.5 7H21.5" stroke="#1F67FD" stroke-width="2"/>
</svg>
