<svg width="40" height="16" viewBox="0 0 40 16" fill="none" xmlns="http://www.w3.org/2000/svg">
<g clip-path="url(#clip0_25_424)">
<path d="M5.37489 2.64704L5.38089 2.61904L5.39689 2.50104L4.65689 2.49704C3.98889 2.49304 3.78389 2.49704 3.76589 2.51404C3.75689 2.52204 3.52589 3.39904 3.11489 4.98704C2.91889 5.74504 2.75389 6.35004 2.74789 6.33204C2.74189 6.31404 2.50789 5.44904 2.22589 4.41004C2.05705 3.77478 1.88238 3.14108 1.70189 2.50904C1.69189 2.49904 0.795892 2.49504 0.0698917 2.50104C-0.0351083 2.50204 -0.0941083 2.29604 1.00789 5.80004C1.15989 6.28504 1.38889 6.97204 1.51489 7.32604C1.66089 7.73404 1.76489 8.05003 1.83589 8.31304C1.96189 8.81403 1.96589 9.12804 1.93889 9.49504C1.90689 9.91804 1.90289 12.908 1.93389 12.958C1.95789 12.996 3.35889 13.014 3.49189 12.978C3.51289 12.972 3.52689 12.952 3.53689 12.839C3.56989 12.742 3.57289 12.355 3.57289 10.749V8.69804L3.66289 8.41504C3.72189 8.23004 3.86889 7.74304 3.99089 7.33304L4.31789 6.24304C4.84689 4.51904 5.35089 2.82404 5.36489 2.72704L5.37589 2.64804L5.37489 2.64704ZM13.2209 5.13504V5.24204H13.2039L13.1949 8.19503L13.1859 11.058L12.9569 11.291C12.6999 11.552 12.4949 11.652 12.3089 11.605C12.1059 11.554 12.1119 11.633 12.0949 8.24903L12.0789 5.13404H10.6049V5.24104H10.5879V8.62104C10.5879 12.242 10.5879 12.24 10.7719 12.603C10.9179 12.893 11.1319 13.034 11.4969 13.082C11.9779 13.146 12.4969 12.928 12.9779 12.46L13.1869 12.257V12.608C13.1869 12.911 13.1959 12.961 13.2509 12.976C13.3409 13.001 14.4569 13.003 14.5769 12.978L14.6769 12.957V12.853L14.6939 12.85V5.11404L13.2219 5.13404L13.2209 5.13504ZM9.48289 6.66104C9.34289 6.06204 9.08189 5.65904 8.65089 5.38104C7.97489 4.94404 7.20189 4.89704 6.48589 5.25104C5.96389 5.50904 5.62689 5.93704 5.45389 6.56504C5.43168 6.64056 5.41596 6.71784 5.40689 6.79604C5.36289 7.01804 5.35789 7.34804 5.34589 8.88904C5.32789 11.263 5.35589 11.545 5.65289 12.084C5.94489 12.613 6.54989 13.001 7.20889 13.081C7.40689 13.105 7.80889 13.068 8.04089 13.003C8.56589 12.857 9.06989 12.442 9.29289 11.971C9.39107 11.7824 9.45506 11.578 9.48189 11.367C9.54689 11.014 9.55189 10.442 9.55189 8.98604C9.55189 7.12904 9.54589 6.92604 9.48389 6.66004L9.48289 6.66104ZM7.80189 11.5C7.64989 11.5994 7.46476 11.6346 7.28689 11.598C7.15189 11.569 6.96889 11.357 6.91289 11.164C6.84289 10.923 6.83789 7.57004 6.89789 6.91304C6.99789 6.58404 7.27589 6.41204 7.57989 6.49404C7.81689 6.55804 7.93789 6.70604 8.00689 7.01704C8.05789 7.24804 8.06389 7.53504 8.05289 9.22404C8.04589 10.344 8.04189 10.892 8.00489 11.186C7.96789 11.371 7.90589 11.421 7.80189 11.501V11.5ZM35.9439 8.34604H36.6559L36.6449 7.70104C36.6339 7.10904 36.6249 7.04204 36.5459 6.88104C36.4209 6.62804 36.2369 6.51504 35.9449 6.51504C35.5939 6.51504 35.3719 6.68504 35.2669 7.03304C35.2219 7.18104 35.1749 8.20004 35.2089 8.28804C35.2279 8.33704 35.3299 8.34604 35.9439 8.34604V8.34604ZM31.1839 6.87904C31.1415 6.79013 31.0734 6.71605 30.9883 6.66646C30.9032 6.61687 30.8051 6.59407 30.7069 6.60104C30.5208 6.61525 30.3435 6.68609 30.1989 6.80404L30.0719 6.90104V11.535L30.1989 11.632C30.4869 11.852 30.8029 11.898 31.0209 11.752C31.1112 11.6883 31.1769 11.5954 31.2069 11.489C31.2639 11.325 31.2689 11.114 31.2619 9.16403C31.2539 7.13203 31.2499 7.01204 31.1839 6.87904V6.87904Z" fill="white"/>
<path d="M40.014 4.79097C39.872 3.08997 39.759 2.53797 39.409 1.82897C38.944 0.889969 38.273 0.394969 37.317 0.285969C36.578 0.201969 33.796 0.0829691 31.223 0.0259691C26.767 -0.0730309 19.441 0.117969 18.505 0.356969C18.0872 0.45949 17.7076 0.679497 17.411 0.990969C16.82 1.57897 16.467 2.42297 16.326 3.59097C16.003 6.25697 15.996 9.47697 16.307 12.24C16.441 13.428 16.717 14.2 17.235 14.836C17.558 15.233 18.116 15.57 18.614 15.671C18.964 15.742 20.714 15.84 23.264 15.931C23.644 15.945 24.649 15.968 25.499 15.983C27.269 16.014 30.524 15.996 32.385 15.944C33.637 15.909 35.919 15.816 36.346 15.783C36.466 15.774 36.744 15.756 36.964 15.744C37.703 15.702 38.173 15.548 38.614 15.201C39.185 14.752 39.627 13.923 39.814 12.95C39.991 12.03 40.109 10.391 40.133 8.52997C40.153 6.97497 40.126 6.13697 40.014 4.78897V4.79097ZM22.27 4.17497L21.442 4.18497L21.406 13.015L20.688 13.024C20.133 13.032 19.964 13.023 19.951 12.988C19.941 12.963 19.93 10.972 19.925 8.56397L19.916 4.18497L18.299 4.16497V2.78497L23.078 2.80397L23.098 4.16397L22.27 4.17397V4.17497ZM27.347 9.23597V13.033H26.039V12.633C26.039 12.332 26.028 12.233 25.992 12.233C25.966 12.233 25.848 12.332 25.729 12.453C25.47 12.716 25.164 12.927 24.902 13.025C24.36 13.228 23.846 13.109 23.627 12.732C23.426 12.387 23.423 12.309 23.423 8.72697V5.43697H24.73L24.74 8.53497C24.75 11.579 24.751 11.635 24.824 11.759C24.921 11.923 25.068 11.968 25.302 11.903C25.44 11.865 25.534 11.798 25.757 11.576L26.039 11.296V5.43697H27.347V9.23397V9.23597ZM32.449 12.491C32.334 12.748 32.077 12.999 31.866 13.061C31.317 13.223 30.876 13.091 30.367 12.612C30.209 12.463 30.062 12.343 30.04 12.343C30.013 12.343 29.999 12.459 29.999 12.688V13.033H28.691V2.78497H29.999V4.45697C29.999 5.37597 30.011 6.12897 30.026 6.12897C30.041 6.12897 30.179 6.00697 30.333 5.85897C30.687 5.51797 30.982 5.36797 31.357 5.33997C32.026 5.28897 32.425 5.63397 32.607 6.41997C32.664 6.66497 32.669 6.94497 32.669 9.21797C32.669 11.986 32.669 11.998 32.448 12.491H32.449ZM37.984 10.971C37.9772 11.2149 37.9514 11.458 37.907 11.698C37.725 12.372 37.241 12.85 36.541 13.046C35.599 13.31 34.561 12.878 34.147 12.049C33.915 11.584 33.906 11.491 33.906 9.21797C33.906 7.36497 33.913 7.13697 33.972 6.88397C34.14 6.16897 34.556 5.70597 35.261 5.44897C35.465 5.37497 35.678 5.33597 35.891 5.33197C36.652 5.31597 37.406 5.72497 37.723 6.39097C37.936 6.83997 37.963 7.03297 37.984 8.29897L38.003 9.43497L35.214 9.45397L35.204 10.217C35.189 11.294 35.262 11.625 35.553 11.82C35.797 11.985 36.173 11.972 36.377 11.793C36.569 11.625 36.623 11.444 36.642 10.916L36.659 10.453H38.006L37.984 10.971V10.971Z" fill="white"/>
</g>
<defs>
<clipPath id="clip0_25_424">
<rect width="40" height="16" fill="white"/>
</clipPath>
</defs>
</svg>
