<svg width="186" height="16" viewBox="0 0 186 16" fill="none" xmlns="http://www.w3.org/2000/svg">
<g clip-path="url(#clip0_153_19386)">
<path d="M11.0601 9.7068V9.67347V3.2668C11.0749 2.97653 11.0224 2.68677 10.9068 2.42013C10.8143 2.22829 10.6771 2.06141 10.5068 1.93347C10.3642 1.82285 10.1974 1.74747 10.0201 1.71346C9.87609 1.67834 9.72839 1.66043 9.58013 1.66013H9.2068V1.1468C9.60013 1.1468 10.0001 1.1468 10.3935 1.1868C10.7868 1.2268 11.1935 1.2268 11.5935 1.2268C11.9935 1.2268 12.3001 1.2268 12.6535 1.1868C13.0068 1.1468 13.3201 1.1468 13.7001 1.1468V1.67347H13.4801C13.2965 1.67169 13.1133 1.68957 12.9335 1.7268C12.7459 1.76269 12.5751 1.85863 12.4468 2.00014C12.2822 2.1932 12.1636 2.42117 12.1001 2.6668C11.9936 3.05526 11.9465 3.45757 11.9601 3.86013V11.6335C11.9601 11.9335 11.9601 12.2268 11.9601 12.5268C11.9708 12.8062 11.9997 13.0845 12.0468 13.3601H11.3801L2.60013 3.55347V10.5868C2.59646 10.9017 2.621 11.2163 2.67346 11.5268C2.70653 11.7477 2.79103 11.9578 2.92014 12.1401C3.04204 12.3024 3.21252 12.4215 3.4068 12.4801C3.6679 12.5602 3.94052 12.5963 4.21347 12.5868H4.50013V13.0935C4.13347 13.0935 3.7668 13.0935 3.40014 13.0935C3.03347 13.0935 2.66013 13.0935 2.29347 13.0935C1.9268 13.0935 1.52013 13.0935 1.13346 13.0935C0.746797 13.0935 0.36013 13.0935 -0.0332031 13.0935V12.5868H0.206797C0.442364 12.6137 0.680754 12.5742 0.895121 12.4729C1.10949 12.3716 1.29132 12.2125 1.42014 12.0135C1.66107 11.5182 1.77341 10.9702 1.7468 10.4201V3.19346C1.75438 2.96322 1.70636 2.73454 1.6068 2.5268C1.52088 2.34538 1.40351 2.18062 1.26013 2.04013C1.11894 1.90455 0.950871 1.80007 0.766795 1.73346C0.582853 1.66742 0.38891 1.6336 0.193471 1.63347H-0.0332031V1.12013C0.30013 1.12013 0.633471 1.12013 0.953471 1.16013C1.27925 1.19009 1.60633 1.20344 1.93346 1.20013C2.1874 1.20378 2.44132 1.19042 2.69347 1.16013C2.94366 1.13298 3.19514 1.11962 3.4468 1.12013L11.0601 9.7068Z" fill="white"/>
<path d="M14.2065 12.5533H14.4465C14.5932 12.5533 14.7399 12.5533 14.8932 12.5533C15.0377 12.5376 15.178 12.4946 15.3065 12.4267C15.4258 12.3552 15.5245 12.2542 15.5932 12.1333C15.6763 11.9707 15.7154 11.7891 15.7065 11.6067V2.63334C15.7145 2.45311 15.6755 2.27391 15.5932 2.11334C15.5285 1.98783 15.429 1.88366 15.3065 1.81334C15.1792 1.74245 15.0384 1.69928 14.8932 1.68668C14.7445 1.67692 14.5953 1.67692 14.4465 1.68668H14.2065V1.17334C14.5332 1.17334 14.9332 1.17334 15.3999 1.21334C15.8665 1.25334 16.3065 1.25334 16.7332 1.25334C17.1599 1.25334 17.6199 1.25334 18.0999 1.21334C18.5799 1.17334 19.0132 1.17334 19.4332 1.17334V1.67334H19.1932C19.0401 1.66319 18.8864 1.66319 18.7332 1.67334C18.5925 1.687 18.4562 1.73016 18.3332 1.80001C18.2108 1.87032 18.1112 1.97449 18.0465 2.10001C17.9612 2.25944 17.9219 2.43951 17.9332 2.62001V11.5667C17.921 11.7494 17.9603 11.9318 18.0465 12.0933C18.1152 12.2142 18.214 12.3152 18.3332 12.3867C18.4574 12.4536 18.5931 12.4965 18.7332 12.5133C18.8865 12.5133 19.0332 12.5133 19.1932 12.5133H19.4332V13.02C19.0265 13.02 18.5799 13.02 18.0999 13.02C17.6199 13.02 17.1599 13.02 16.7265 13.02C16.2932 13.02 15.8665 13.02 15.3932 13.02C14.9199 13.02 14.5332 13.02 14.2065 13.02V12.5533Z" fill="white"/>
<path d="M30.8134 4.68022C30.6969 4.27845 30.5498 3.8862 30.3734 3.50689C30.2021 3.13174 29.9558 2.79564 29.6497 2.51932C29.3436 2.243 28.9841 2.0323 28.5934 1.90022C28.0783 1.72673 27.5367 1.64549 26.9934 1.66022C26.3536 1.64728 25.7194 1.78187 25.1401 2.05356C24.6195 2.3078 24.1635 2.67711 23.8067 3.13356C23.431 3.62086 23.1567 4.1785 23.0001 4.77355C22.8075 5.44532 22.7132 6.14143 22.7201 6.84022C22.7187 7.54962 22.8129 8.25597 23.0001 8.94022C23.1703 9.59825 23.4595 10.2196 23.8534 10.7736C24.2354 11.3206 24.734 11.776 25.3134 12.1069C25.9549 12.4482 26.6736 12.6182 27.4001 12.6002C28.2282 12.6357 29.0387 12.3544 29.6667 11.8136C30.2711 11.2623 30.6961 10.5424 30.8867 9.74689L31.3667 9.82023C31.2534 10.2869 31.1667 10.7469 31.1001 11.2002C31.0334 11.6536 30.9867 12.1136 30.9401 12.5802C30.3764 12.8187 29.7916 13.004 29.1934 13.1336C28.4813 13.2856 27.7548 13.3593 27.0267 13.3536C26.1229 13.3602 25.2235 13.2275 24.3601 12.9602C23.5756 12.7187 22.8509 12.3143 22.2334 11.7736C21.6226 11.2203 21.1441 10.5368 20.8334 9.77355C20.4847 8.87971 20.3149 7.92615 20.3334 6.96689C20.317 6.08366 20.5017 5.20826 20.8734 4.40689C21.2095 3.67634 21.7009 3.02792 22.3134 2.50689C22.9362 1.98768 23.6507 1.58971 24.4201 1.33356C25.2315 1.0578 26.083 0.918136 26.9401 0.92022C27.3691 0.916246 27.7976 0.951956 28.2201 1.02689C28.5553 1.0889 28.8869 1.16901 29.2134 1.26689L30.1334 1.54689C30.4768 1.65614 30.8293 1.73424 31.1867 1.78023C31.1867 2.26023 31.1867 2.73356 31.1867 3.20689C31.1867 3.68023 31.2534 4.15356 31.3067 4.63356L30.8134 4.68022Z" fill="white"/>
<path d="M32.2867 12.5533H32.5268C32.6734 12.5533 32.8267 12.5533 32.9801 12.5533C33.1227 12.5385 33.2609 12.4955 33.3867 12.4267C33.5065 12.3537 33.6071 12.2531 33.6801 12.1333C33.7606 11.97 33.7973 11.7885 33.7867 11.6067V2.63334C33.7968 2.4537 33.76 2.27453 33.6801 2.11334C33.611 1.98883 33.5097 1.88521 33.3867 1.81334C33.2622 1.74162 33.1233 1.69836 32.9801 1.68668C32.8291 1.67692 32.6777 1.67692 32.5268 1.68668H32.2867V1.17334H33.1934H34.2667H35.4068H37.6534H38.8201H39.9268H40.9001V2.50667C40.9001 2.73334 40.9001 2.96001 40.9001 3.17334C40.9001 3.38667 40.9001 3.60001 40.9001 3.78667L40.3934 3.92C40.3711 3.66019 40.3333 3.40196 40.2801 3.14668C40.2391 2.90357 40.1383 2.67447 39.9868 2.48001C39.829 2.28025 39.6156 2.13177 39.3734 2.05334C39.0303 1.93695 38.6687 1.88496 38.3067 1.9H35.9334V6.37334H37.9734C38.1874 6.38137 38.4008 6.34505 38.6001 6.26667C38.7562 6.20784 38.8925 6.10617 38.9934 5.97334C39.0978 5.82861 39.1746 5.6659 39.2201 5.49334C39.2718 5.28979 39.3075 5.08249 39.3267 4.87334H39.8401C39.8401 5.54001 39.7934 6.20667 39.7934 6.87334C39.7934 7.54001 39.7934 8.17334 39.8401 8.82001L39.3267 8.92C39.3267 8.67334 39.2734 8.44 39.2401 8.25334C39.2137 8.06594 39.1526 7.8851 39.0601 7.72001C38.9699 7.57229 38.8407 7.45233 38.6867 7.37334C38.4739 7.29299 38.2475 7.25451 38.0201 7.26001H35.9601V11.26C35.9415 11.4954 36.0026 11.7302 36.1334 11.9267C36.2467 12.0845 36.4081 12.2015 36.5934 12.26C36.8077 12.3366 37.0326 12.3793 37.2601 12.3867H38.0468C38.4918 12.3919 38.9369 12.3741 39.3801 12.3333C39.7174 12.3097 40.0474 12.2238 40.3534 12.08C40.6252 11.9311 40.8546 11.7154 41.0201 11.4533C41.2371 11.0991 41.3947 10.7118 41.4868 10.3067L41.9668 10.4267C41.8534 10.88 41.7468 11.3333 41.6534 11.76C41.5601 12.1867 41.4667 12.6533 41.3867 13.0933H40.4201H39.2534H38.0068H35.5734H34.3201H33.1601H32.2534L32.2867 12.5533Z" fill="white"/>
<path d="M81.1733 12.5533H81.4133C81.56 12.5533 81.7067 12.5533 81.8667 12.5533C82.0091 12.5375 82.1471 12.4945 82.2733 12.4267C82.3945 12.3554 82.4954 12.2545 82.5667 12.1333C82.6472 11.97 82.6839 11.7885 82.6733 11.6067V2.63334C82.6834 2.4537 82.6466 2.27453 82.5667 2.11334C82.4996 1.98736 82.3978 1.88325 82.2733 1.81334C82.1484 1.7426 82.0097 1.69941 81.8667 1.68668C81.7157 1.67712 81.5643 1.67712 81.4133 1.68668H81.1733V1.17334C81.4333 1.17334 81.84 1.17334 82.3267 1.21334C82.8133 1.25334 83.36 1.25334 83.9067 1.25334C84.4533 1.25334 84.96 1.25334 85.42 1.21334C85.88 1.17334 86.2933 1.17334 86.66 1.17334C87.6193 1.15898 88.5744 1.30314 89.4867 1.60001C90.2734 1.85529 91.0011 2.26558 91.6267 2.80667C92.2055 3.32097 92.6613 3.95896 92.96 4.67334C93.2821 5.44133 93.4432 6.26725 93.4333 7.10001C93.4393 7.92931 93.2665 8.75015 92.9267 9.50667C92.6048 10.2379 92.1402 10.8974 91.56 11.4467C90.9832 11.9981 90.3037 12.4308 89.56 12.72C88.78 13.0245 87.9416 13.1498 87.1067 13.0867C86.7333 13.0867 86.2667 13.0533 85.7067 13.04H84H83.1267H82.3267H81.66H81.1867L81.1733 12.5533ZM84.86 11.1C84.8541 11.3443 84.8901 11.5879 84.9667 11.82C85.0244 11.9878 85.1372 12.1311 85.2867 12.2267C85.4576 12.3276 85.6489 12.3891 85.8467 12.4067C86.1101 12.4356 86.375 12.4489 86.64 12.4467C87.271 12.4692 87.8984 12.3419 88.4708 12.0754C89.0432 11.8089 89.5444 11.4107 89.9333 10.9133C90.3104 10.4319 90.5952 9.88497 90.7733 9.30001C90.9604 8.68408 91.0548 8.04372 91.0533 7.4C91.0818 6.45499 90.9465 5.5122 90.6533 4.61334C90.4351 3.95883 90.0624 3.36656 89.5667 2.88668C89.1134 2.46677 88.564 2.16459 87.9667 2.00667C87.3332 1.84183 86.6812 1.75893 86.0267 1.76001C85.8329 1.76115 85.6393 1.77227 85.4467 1.79334L84.86 1.86001V11.1Z" fill="white"/>
<path d="M99.3199 7.67328C99.3387 7.47849 99.3144 7.28195 99.2487 7.09761C99.1831 6.91326 99.0776 6.74563 98.9399 6.60661C98.6679 6.39024 98.3271 6.27902 97.9799 6.29328C97.7744 6.28815 97.5689 6.30379 97.3665 6.33995C97.221 6.36785 97.0867 6.43732 96.9799 6.53995C96.8772 6.64462 96.8017 6.77278 96.7599 6.91328C96.7057 7.10446 96.6743 7.3014 96.6665 7.49995C96.6611 7.55952 96.6427 7.61719 96.6128 7.66899C96.5829 7.72078 96.5421 7.76547 96.4932 7.79995C96.3905 7.89008 96.2733 7.9622 96.1465 8.01328C96.0186 8.06664 95.8872 8.11119 95.7532 8.14662C95.6547 8.16973 95.5543 8.18313 95.4532 8.18662C95.2399 8.18662 95.1332 8.05328 95.1332 7.79328C95.1274 7.48437 95.2235 7.18215 95.4065 6.93328C95.5807 6.6925 95.8091 6.49609 96.0732 6.35995L96.9599 5.89995C97.2665 5.73995 97.5865 5.55994 97.9132 5.36661C98.077 5.26598 98.2577 5.19596 98.4465 5.15995C98.6101 5.13845 98.7749 5.12731 98.9399 5.12661C99.2492 5.10348 99.5601 5.14228 99.8543 5.24073C100.148 5.33917 100.42 5.49528 100.653 5.69994C100.862 5.92706 101.021 6.19452 101.122 6.48578C101.223 6.77704 101.263 7.08591 101.24 7.39328V10.8733C101.236 11.1778 101.265 11.4817 101.327 11.78C101.343 11.8842 101.398 11.9784 101.481 12.0439C101.564 12.1094 101.668 12.1413 101.773 12.1333C101.862 12.1325 101.949 12.1096 102.027 12.0666C102.11 12.0282 102.187 11.9764 102.253 11.9133L102.473 12.22C102.242 12.5076 101.981 12.7692 101.693 13C101.398 13.2095 101.042 13.315 100.68 13.3C100.507 13.3122 100.334 13.2849 100.173 13.2202C100.013 13.1555 99.8692 13.0551 99.7532 12.9266C99.5307 12.6494 99.4022 12.3084 99.3865 11.9533C99.0228 12.3068 98.6253 12.6238 98.1999 12.8999C97.7693 13.1713 97.2687 13.3104 96.7599 13.3C96.2752 13.3155 95.8013 13.1544 95.4265 12.8466C95.2375 12.6826 95.0895 12.4765 94.9946 12.245C94.8997 12.0134 94.8604 11.7628 94.8799 11.5133C94.8704 11.2234 94.9371 10.9361 95.0732 10.6799C95.1967 10.4475 95.3696 10.245 95.5799 10.0866C95.8076 9.91558 96.0563 9.77443 96.3199 9.66662C96.5932 9.55329 96.8799 9.43995 97.1932 9.32661L99.3132 8.59329L99.3199 7.67328ZM99.3199 9.20662L98.5265 9.45328C98.2423 9.53539 97.9674 9.64711 97.7065 9.78661C97.4542 9.90886 97.2279 10.0786 97.0399 10.2866C96.8647 10.4926 96.772 10.7563 96.7799 11.0266C96.7799 11.7666 97.1332 12.1333 97.8265 12.1333C98.007 12.136 98.1862 12.1019 98.3532 12.0333C98.5082 11.9712 98.654 11.8882 98.7865 11.7866C98.9034 11.7005 99.0088 11.5997 99.0999 11.4866C99.1709 11.4074 99.2356 11.3227 99.2932 11.2333L99.3199 9.20662Z" fill="white"/>
<path d="M107.987 6.34015H105.953V11.0068C105.936 11.1431 105.952 11.2815 106 11.4103C106.047 11.5391 106.125 11.6546 106.227 11.7468C106.413 11.874 106.635 11.9394 106.86 11.9335C107.046 11.9375 107.23 11.9105 107.407 11.8535C107.569 11.7971 107.723 11.7209 107.867 11.6268L108.087 11.9135C107.798 12.2994 107.449 12.637 107.053 12.9135C106.676 13.1742 106.226 13.3095 105.767 13.3002C105.484 13.3103 105.202 13.2603 104.94 13.1535C104.737 13.0694 104.557 12.9393 104.413 12.7735C104.276 12.6129 104.176 12.424 104.12 12.2202C104.061 12.0028 104.032 11.7786 104.033 11.5535V6.34015H103.007V5.92682C103.523 5.63628 104.004 5.28732 104.44 4.88682C104.919 4.4544 105.365 3.98639 105.773 3.48682L105.98 3.58681V5.38015H108.013L107.987 6.34015Z" fill="white"/>
<path d="M113.54 7.67328C113.558 7.47799 113.533 7.28114 113.466 7.09676C113.399 6.91239 113.292 6.74503 113.153 6.60661C112.879 6.38925 112.536 6.278 112.187 6.29328C111.983 6.28868 111.78 6.30432 111.58 6.33995C111.435 6.36926 111.301 6.43853 111.193 6.53995C111.091 6.64462 111.015 6.77278 110.973 6.91328C110.916 7.10372 110.884 7.30108 110.88 7.49995C110.874 7.55952 110.856 7.61719 110.826 7.66899C110.796 7.72078 110.755 7.76547 110.707 7.79995C110.604 7.89008 110.487 7.9622 110.36 8.01328C110.232 8.06664 110.101 8.11119 109.967 8.14662C109.868 8.16973 109.768 8.18312 109.667 8.18662C109.453 8.18662 109.347 8.05328 109.347 7.79328C109.341 7.48437 109.437 7.18215 109.62 6.93328C109.794 6.6925 110.022 6.49609 110.287 6.35995L111.173 5.89995C111.48 5.73995 111.8 5.55994 112.127 5.36661C112.289 5.26724 112.467 5.19727 112.653 5.15995C112.819 5.1384 112.986 5.12726 113.153 5.12661C113.463 5.10348 113.773 5.14228 114.068 5.24073C114.362 5.33917 114.633 5.49528 114.867 5.69994C115.076 5.92651 115.237 6.19372 115.339 6.48501C115.441 6.77629 115.482 7.08544 115.46 7.39328V10.8733C115.454 11.1775 115.481 11.4814 115.54 11.78C115.556 11.8842 115.611 11.9784 115.694 12.0439C115.777 12.1094 115.881 12.1413 115.987 12.1333C116.075 12.1325 116.162 12.1096 116.24 12.0666C116.323 12.0282 116.4 11.9764 116.467 11.9133L116.687 12.22C116.455 12.5094 116.191 12.7712 115.9 13C115.608 13.2104 115.253 13.3161 114.893 13.3C114.72 13.3108 114.546 13.2829 114.385 13.2183C114.223 13.1537 114.078 13.0541 113.96 12.9266C113.743 12.6461 113.615 12.3071 113.593 11.9533C113.233 12.3082 112.838 12.6254 112.413 12.8999C111.983 13.1713 111.482 13.3104 110.973 13.3C110.489 13.3155 110.015 13.1544 109.64 12.8466C109.451 12.6826 109.303 12.4765 109.208 12.245C109.113 12.0134 109.074 11.7628 109.093 11.5133C109.084 11.2234 109.15 10.9361 109.287 10.6799C109.41 10.4457 109.586 10.2427 109.8 10.0866C110.024 9.91421 110.271 9.77294 110.533 9.66662C110.807 9.55329 111.1 9.43995 111.407 9.32661L113.533 8.59329L113.54 7.67328ZM113.54 9.20662L112.74 9.45328C112.456 9.53539 112.181 9.64711 111.92 9.78661C111.665 9.90462 111.438 10.075 111.253 10.2866C111.078 10.4926 110.985 10.7563 110.993 11.0266C110.993 11.7666 111.347 12.1333 112.04 12.1333C112.22 12.1359 112.4 12.1019 112.567 12.0333C112.72 11.9727 112.864 11.8895 112.993 11.7866C113.112 11.7006 113.22 11.5998 113.313 11.4866C113.384 11.4056 113.451 11.321 113.513 11.2333L113.54 9.20662Z" fill="white"/>
<path d="M147.88 15.5331C148.667 15.3264 149.813 14.8131 149.813 13.8398C149.813 12.5864 148.293 13.2398 148.293 11.8864C148.301 11.5499 148.436 11.2288 148.671 10.9876C148.906 10.7465 149.224 10.6032 149.56 10.5864C150.673 10.5864 151.22 11.5464 151.22 12.5531C151.22 14.4198 149.847 15.5531 148.153 15.9931L147.88 15.5331Z" fill="white"/>
<path d="M132.106 4.65322C131.633 2.99322 130.846 1.62655 128.286 1.62655C125.48 1.62655 124.013 3.83322 124.013 6.81989C124.013 9.67322 125.466 12.5532 128.68 12.5532C129.504 12.5672 130.306 12.289 130.944 11.7679C131.582 11.2468 132.015 10.5165 132.166 9.70655L132.646 9.76655C132.434 10.6792 132.29 11.6061 132.213 12.5399C130.976 13.0559 129.647 13.3167 128.306 13.3065C124.46 13.3065 121.606 11.2065 121.606 6.91988C121.606 3.09988 124.7 0.879883 128.22 0.879883C130.22 0.879883 130.886 1.49322 132.473 1.73322C132.451 2.68405 132.496 3.63524 132.606 4.57988L132.106 4.65322Z" fill="white"/>
<path d="M137.94 5.74013C139.594 5.74013 140 8.28679 140 9.51345C140 11.0535 139.66 12.6935 138.074 12.6935C136.487 12.6935 135.974 10.6935 135.974 9.26013C135.974 7.82679 136.147 5.74013 137.94 5.74013ZM133.887 9.21346C133.865 9.75562 133.956 10.2964 134.153 10.8018C134.351 11.3073 134.65 11.7666 135.033 12.1508C135.416 12.5351 135.875 12.8362 136.379 13.0351C136.884 13.234 137.425 13.3265 137.967 13.3068C138.514 13.3042 139.054 13.1932 139.558 12.9801C140.062 12.7671 140.518 12.4562 140.9 12.0656C141.283 11.675 141.584 11.2123 141.787 10.7044C141.989 10.1965 142.089 9.65349 142.08 9.10679C142.08 6.72012 140.447 5.10679 137.967 5.10679C137.426 5.09577 136.888 5.19467 136.386 5.39749C135.885 5.60031 135.429 5.90283 135.048 6.28676C134.666 6.67068 134.367 7.12802 134.167 7.63108C133.968 8.13414 133.872 8.67246 133.887 9.21346V9.21346Z" fill="white"/>
<path d="M145.093 10.5869C145.346 10.5908 145.592 10.6694 145.8 10.8127C146.008 10.956 146.169 11.1577 146.262 11.3923C146.356 11.6269 146.378 11.8839 146.326 12.1311C146.274 12.3782 146.15 12.6044 145.969 12.7811C145.789 12.9579 145.56 13.0773 145.312 13.1243C145.064 13.1714 144.807 13.1439 144.575 13.0455C144.342 12.947 144.144 12.7819 144.005 12.571C143.866 12.3601 143.792 12.1128 143.793 11.8602C143.793 11.6905 143.826 11.5223 143.891 11.3656C143.956 11.2089 144.053 11.067 144.174 10.9482C144.295 10.8294 144.439 10.7362 144.597 10.6742C144.755 10.6121 144.924 10.5824 145.093 10.5869V10.5869Z" fill="white"/>
<path d="M166.287 10.22C165.767 12.1666 164.867 12.3 162.82 12.3C161.78 12.3 160.82 12.3 160.753 11.3333V2.61996C160.753 1.7333 161.42 1.64664 162.013 1.64664H162.253V1.1333C161.453 1.1333 160.427 1.19996 159.587 1.19996C158.747 1.19996 157.727 1.1333 157.06 1.1333V1.6733H157.293C157.913 1.6733 158.56 1.75997 158.56 2.64664V11.5933C158.56 12.48 157.893 12.5666 157.293 12.5666H157.06V13.08C158.04 13.08 160.06 13.0133 161.593 13.0133C163.127 13.0133 165.093 13.08 166.187 13.08C166.347 12.1733 166.547 11.2666 166.767 10.36L166.287 10.22Z" fill="white"/>
<path d="M172.147 6.33983H170.147V11.0065C170.129 11.1302 170.141 11.2562 170.18 11.3748C170.219 11.4934 170.285 11.6014 170.373 11.6904C170.461 11.7794 170.568 11.8469 170.686 11.8879C170.804 11.9288 170.929 11.942 171.053 11.9265C171.413 11.9366 171.767 11.829 172.06 11.6198L172.28 11.9132C172.033 12.3133 171.694 12.6478 171.29 12.8881C170.886 13.1284 170.429 13.2674 169.96 13.2932C169.725 13.3192 169.486 13.2916 169.263 13.2122C169.04 13.1329 168.838 13.0041 168.671 12.8353C168.505 12.6665 168.379 12.4623 168.304 12.2379C168.228 12.0135 168.204 11.7748 168.233 11.5398V6.33983H167.213V5.9265C168.265 5.29088 169.189 4.46582 169.94 3.49316L170.147 3.59317V5.38651H172.147V6.33983Z" fill="white"/>
<path d="M184.207 10.5868C184.529 10.6102 184.831 10.7548 185.052 10.9917C185.272 11.2285 185.394 11.54 185.394 11.8635C185.394 12.187 185.272 12.4985 185.052 12.7353C184.831 12.9722 184.529 13.1168 184.207 13.1402C184.031 13.1528 183.855 13.1292 183.689 13.0708C183.523 13.0124 183.371 12.9205 183.243 12.8007C183.114 12.6809 183.011 12.5358 182.941 12.3746C182.871 12.2133 182.834 12.0394 182.834 11.8635C182.834 11.6876 182.871 11.5136 182.941 11.3524C183.011 11.1912 183.114 11.0461 183.243 10.9263C183.371 10.8065 183.523 10.7146 183.689 10.6562C183.855 10.5977 184.031 10.5741 184.207 10.5868V10.5868Z" fill="white"/>
<path d="M178.6 11.6732C178.192 11.9792 177.702 12.1578 177.193 12.1865C175.86 12.1865 174.913 10.7265 174.913 8.89985C174.913 7.56652 175.366 5.89985 176.913 5.89985C177.268 5.9165 177.611 6.02715 177.909 6.22046C178.206 6.41377 178.447 6.68277 178.606 6.99986L178.6 11.6732ZM180.52 0.146525L180.313 0.0131836C179.395 0.491169 178.438 0.890386 177.453 1.20652V1.49986L178.6 1.91319V5.40652C178.156 5.21784 177.675 5.12908 177.193 5.14653C176.031 5.21542 174.942 5.73575 174.159 6.59645C173.375 7.45714 172.959 8.59 173 9.75318C173 11.7532 174.366 13.3465 176.026 13.3465C177.233 13.3465 177.76 12.9332 178.613 12.1998V13.2465L178.753 13.3465C178.96 13.2799 179.546 13.1265 180.14 12.9332C180.733 12.7399 181.3 12.6332 181.513 12.5932V12.1665L180.52 12.2532V0.146525Z" fill="white"/>
<path d="M66.0335 12.5467H66.1469C66.6402 12.5467 67.0335 12.5467 67.0335 12.04V7.21332C67.0335 6.94665 67.0335 6.83999 66.6269 6.73999L66.0269 6.56665V6.15998C66.5535 6.02665 67.1335 5.81999 67.5802 5.66666C68.0268 5.51332 68.3802 5.30665 68.7535 5.15332L68.9402 5.30665V6.39998C69.6935 5.88665 70.5602 5.15332 71.6069 5.15332C72.8335 5.15332 73.7202 5.75332 73.7202 7.35332V12.0733C73.7202 12.5467 74.1468 12.5467 74.5535 12.5467H74.7602V13.06C74.0935 13.0267 73.4802 12.9933 72.8335 12.9933C72.1868 12.9933 71.5002 13.0267 70.8335 13.06V12.5467H71.0002C71.3468 12.5467 71.8402 12.5466 71.8402 12.1066V7.84665C71.8402 6.80665 71.3068 6.41332 70.5402 6.41332C69.9767 6.46849 69.4371 6.66827 68.9735 6.99332V12.14C68.9735 12.5467 69.3669 12.5467 69.7935 12.5467H70.0469V13.06C69.3802 13.0267 68.7535 12.9933 68.1069 12.9933C67.4602 12.9933 66.7268 13.0267 66.0602 13.06L66.0335 12.5467Z" fill="white"/>
<path d="M78.9932 1.72653C78.9932 1.52083 78.9322 1.31976 78.8179 1.14874C78.7036 0.97771 78.5412 0.844406 78.3512 0.765691C78.1611 0.686975 77.952 0.666378 77.7503 0.706507C77.5485 0.746635 77.3632 0.845687 77.2178 0.991134C77.0723 1.13658 76.9733 1.3219 76.9331 1.52364C76.893 1.72538 76.9136 1.93448 76.9923 2.12452C77.071 2.31455 77.2044 2.47698 77.3754 2.59125C77.5464 2.70553 77.7475 2.76652 77.9532 2.76652C78.229 2.76652 78.4935 2.65696 78.6886 2.46192C78.8836 2.26688 78.9932 2.00235 78.9932 1.72653V1.72653ZM78.9065 5.30652L78.7198 5.15319C78.3465 5.30653 77.9332 5.52653 77.5398 5.66653C77.1465 5.80653 76.5198 6.02652 75.9932 6.15986V6.56652L76.5865 6.73986C76.9598 6.83986 76.9998 6.94652 76.9998 7.21319V12.0399C76.9998 12.5465 76.6065 12.5465 76.1132 12.5465H75.9932V13.0599C76.6598 13.0265 77.3265 12.9932 78.0398 12.9932C78.7532 12.9932 79.3332 13.0265 79.9798 13.0599V12.5465H79.7265C79.2998 12.5465 78.9065 12.5465 78.9065 12.1399V5.30652Z" fill="white"/>
<path d="M63.7798 1.72653C63.7798 1.52083 63.7188 1.31976 63.6045 1.14874C63.4902 0.97771 63.3278 0.844406 63.1378 0.765691C62.9477 0.686975 62.7386 0.666378 62.5369 0.706507C62.3351 0.746635 62.1498 0.845687 62.0044 0.991134C61.8589 1.13658 61.7599 1.3219 61.7198 1.52364C61.6796 1.72538 61.7002 1.93448 61.779 2.12452C61.8577 2.31455 61.991 2.47698 62.162 2.59125C62.333 2.70553 62.5341 2.76652 62.7398 2.76652C63.0156 2.76652 63.2801 2.65696 63.4752 2.46192C63.6702 2.26688 63.7798 2.00235 63.7798 1.72653V1.72653ZM63.6931 5.30652L63.5065 5.15319C63.1331 5.30653 62.7198 5.52653 62.3331 5.66653C61.9464 5.80653 61.3065 6.02652 60.7798 6.15986V6.56652L61.3731 6.73986C61.7464 6.83986 61.7864 6.94652 61.7864 7.21319V12.0399C61.7864 12.5465 61.3931 12.5465 60.8998 12.5465H60.8131V13.0599C61.4798 13.0265 62.1464 12.9932 62.8598 12.9932C63.5731 12.9932 64.1531 13.0265 64.7998 13.0599V12.5465H64.5464C64.1198 12.5465 63.7264 12.5465 63.7264 12.1399L63.6931 5.30652Z" fill="white"/>
<path d="M59.2199 1.58646C59.2199 1.63979 59.1199 1.77979 58.9199 2.01312C58.7199 2.24646 58.5532 2.45312 58.4132 2.67979L52.3532 10.4465C52.1687 10.6728 51.9995 10.9111 51.8465 11.1598C51.7008 11.3542 51.6109 11.5847 51.5866 11.8265C51.5866 12.0731 51.7732 12.2198 52.1532 12.2665C52.5332 12.3131 53.6666 12.3465 55.5732 12.3465C56.9821 12.3465 57.8554 12.1065 58.1932 11.6265C58.4936 11.2478 58.7198 10.8157 58.8599 10.3531C58.9132 10.1731 58.9599 10.0265 58.9999 9.91979C59.0152 9.86763 59.0482 9.82244 59.0932 9.79201C59.1382 9.76159 59.1925 9.74783 59.2465 9.75312C59.2751 9.74963 59.304 9.75328 59.3308 9.76375C59.3576 9.77423 59.3813 9.7912 59.3999 9.81313C59.4342 9.89056 59.4479 9.9755 59.4399 10.0598V12.2331C59.4669 12.4818 59.4181 12.7327 59.2999 12.9531C59.211 13.0598 58.9377 13.1131 58.4799 13.1131C57.9243 13.1131 57.351 13.0998 56.7599 13.0731C56.1688 13.0465 55.4888 13.0331 54.7199 13.0331H48.9066C48.7711 13.0248 48.6353 13.0248 48.4999 13.0331C48.3978 13.04 48.2953 13.04 48.1932 13.0331C48.0532 13.0331 47.9666 13.0331 47.9399 12.9798C47.9024 12.93 47.8835 12.8687 47.8865 12.8065C47.8861 12.7239 47.9092 12.643 47.9532 12.5731L48.0799 12.3998L55.7532 2.46646C55.8084 2.41436 55.8576 2.35621 55.8999 2.29312C55.9274 2.24646 55.9434 2.19389 55.9466 2.13979C55.9466 2.07312 55.8999 2.02646 55.7999 1.99312C55.493 1.95037 55.1829 1.93476 54.8732 1.94646C54.1265 1.94646 53.1999 1.9798 52.0799 2.05313C51.2999 2.03159 50.5284 2.22041 49.8465 2.59979C49.5328 2.82979 49.2847 3.13773 49.1266 3.49312C48.9799 3.83312 48.7866 3.9998 48.5399 3.9998C48.2932 3.9998 48.2932 3.99979 48.2599 3.91979C48.2275 3.85582 48.2114 3.78481 48.2132 3.71312C48.2457 3.50292 48.3086 3.29856 48.3999 3.10646C48.5199 2.79312 48.6466 2.43979 48.7732 2.04646C48.8999 1.65312 49.0399 1.21979 49.1532 0.913127C49.2666 0.60646 49.3932 0.453125 49.5199 0.453125C49.8532 0.453125 49.9466 0.599794 49.7999 0.893127C49.6532 1.18646 49.9266 1.33313 50.6332 1.33313C51.3399 1.33313 52.5799 1.33312 54.2199 1.29312C55.8599 1.25312 57.4199 1.2598 58.8865 1.2598C58.9311 1.25566 58.976 1.26407 59.0161 1.2841C59.0561 1.30413 59.0898 1.33497 59.1132 1.37313C59.1716 1.43036 59.2091 1.50544 59.2199 1.58646V1.58646Z" fill="white"/>
</g>
<defs>
<clipPath id="clip0_153_19386">
<rect width="185.467" height="16" fill="white"/>
</clipPath>
</defs>
</svg>
