<svg width="156" height="22" viewBox="0 0 156 22" fill="none" xmlns="http://www.w3.org/2000/svg">
<path d="M81.493 21.6745C80.159 21.6745 78.9599 21.5872 77.8959 21.4125C76.8318 21.2378 75.9186 20.9757 75.1563 20.6263C74.4099 20.2769 73.8302 19.8323 73.4173 19.2923C73.0203 18.7682 72.8217 18.1488 72.8217 17.4342C72.8217 16.7195 73.0203 16.1001 73.4173 15.576C73.8302 15.0361 74.4099 14.5993 75.1563 14.2658C75.9186 13.9164 76.8318 13.6544 77.8959 13.4797C78.9599 13.305 80.159 13.2176 81.493 13.2176C82.8271 13.2176 84.0261 13.305 85.0902 13.4797C86.1542 13.6544 87.0595 13.9164 87.8059 14.2658C88.5682 14.5993 89.1479 15.0361 89.5449 15.576C89.9578 16.1001 90.1643 16.7195 90.1643 17.4342C90.1643 18.1488 89.9578 18.7682 89.5449 19.2923C89.1479 19.8323 88.5682 20.2769 87.8059 20.6263C87.0595 20.9757 86.1542 21.2378 85.0902 21.4125C84.0261 21.5872 82.8271 21.6745 81.493 21.6745ZM81.493 19.7211C82.4459 19.7211 83.3035 19.6734 84.0658 19.5782C84.844 19.4829 85.5031 19.3399 86.0431 19.1494C86.5989 18.9588 87.0277 18.7206 87.3295 18.4347C87.6312 18.1488 87.7821 17.8153 87.7821 17.4342C87.7821 17.053 87.6312 16.7274 87.3295 16.4574C87.0277 16.1716 86.5989 15.9334 86.0431 15.7428C85.5031 15.5522 84.844 15.4093 84.0658 15.314C83.3035 15.2187 82.4459 15.171 81.493 15.171C80.5401 15.171 79.6746 15.2187 78.8964 15.314C78.1182 15.4093 77.4512 15.5522 76.8953 15.7428C76.3554 15.9334 75.9345 16.1716 75.6328 16.4574C75.3469 16.7274 75.204 17.053 75.204 17.4342C75.204 17.8153 75.3469 18.1488 75.6328 18.4347C75.9345 18.7206 76.3554 18.9588 76.8953 19.1494C77.4512 19.3399 78.1182 19.4829 78.8964 19.5782C79.6746 19.6734 80.5401 19.7211 81.493 19.7211ZM79.5158 4.49869C79.5158 5.24512 79.4046 5.96773 79.1823 6.66651L85.1855 10.4304L83.9229 12.0742L78.277 8.477C77.6735 9.31872 76.8795 10.0254 75.8948 10.5972C74.9101 11.1689 73.7826 11.6374 72.512 12.0027L71.4639 10.2637C72.2738 10.0572 73.0203 9.79516 73.7032 9.47753C74.3861 9.15991 74.9816 8.77081 75.4898 8.31025C75.998 7.8338 76.3951 7.28589 76.6809 6.66651C76.9668 6.04714 77.1097 5.31659 77.1097 4.47487V0.996826H79.5158V4.49869ZM89.6879 7.09531V12.6221H87.3056V1.04447H89.6879V5.14189H92.4751V7.09531H89.6879Z" fill="white"/>
<path d="M97.0115 14.2896V19.2446H112.806V21.1981H94.6293V14.2896H97.0115ZM112.567 16.6718H110.185V5.61834L107.231 6.26154V4.30812L110.185 3.66492V1.04447H112.567V16.6718ZM99.3937 16.9577V12.6221H93.5097V10.6686H108.613V12.6221H101.776V16.9577H99.3937ZM103.896 9.47753V3.23612H94.5817V1.28269H106.278V9.47753H103.896Z" fill="white"/>
<path d="M119.337 3.35523H130.938V1.28269H133.32V9.23931H116.954V1.28269H119.337V3.35523ZM115.549 11.288H134.726V13.2414H126.317V17.2912H123.934V13.2414H115.549V11.288ZM119.098 14.8852V19.2446H133.797V21.1981H116.716V14.8852H119.098ZM130.938 5.30865H119.337V7.28589H130.938V5.30865Z" fill="white"/>
<path d="M153.305 21.1981V16.1239H138.536V14.1705H155.688V21.1981H153.305ZM144.801 4.97514C144.801 5.72157 144.69 6.44417 144.467 7.14296L150.47 10.9069L149.208 12.5506L143.562 8.95345C142.958 9.79517 142.164 10.5019 141.18 11.0736C140.195 11.6454 139.068 12.1139 137.797 12.4791L136.749 10.7401C137.559 10.5337 138.305 10.2716 138.988 9.95398C139.671 9.63635 140.267 9.24725 140.775 8.78669C141.283 8.31025 141.68 7.76234 141.966 7.14296C142.252 6.52358 142.395 5.79303 142.395 4.95131V0.996826H144.801V4.97514ZM155.688 1.04447V12.8603H153.305V6.64269L148.374 7.78616V5.83274L153.305 4.71309V1.04447H155.688Z" fill="white"/>
<path d="M0.5 21L0.501536 18.5467V1H1.64909H6.06878V7.49666V11.2973V11.7151L7.44063 9.93003L11.1506 5.10016L14.3567 1.03072H20.8026L14.2799 9.78869L21.4985 20.9939H15.0526L10.7389 14.6109L10.682 14.6877L6.06725 21H0.5Z" fill="white"/>
<path d="M39.2296 1.03198V5.39944H29.2719V8.97883H38.7826V13.4477H29.2719V20.9982H23.8828V1.03198H39.2296Z" fill="white"/>
<path d="M51.3883 12.463H48.6416L50.972 5.3012L53.3301 12.463H51.3898H51.3883ZM54.2779 1.03052H47.7475L40.0771 20.9967H46.0561L47.4479 17.1039H54.576L55.9708 20.9967H61.9467L54.2779 1.03052Z" fill="white"/>
</svg>
