<svg width="80" height="80" viewBox="0 0 80 80" fill="none" xmlns="http://www.w3.org/2000/svg">
<path d="M80 0H0V80H80V0Z" fill="#00479D"/>
<path d="M62.38 40.3726L42.9504 39.4814L42.0863 20.6055H42.0458L41.1682 39.4814L21.7656 40.3726V40.4131L41.1682 41.2367L42.0458 61.1928H42.0863L42.9504 41.2367L62.38 40.4131V40.3726Z" fill="#F39800"/>
<path d="M35.915 11.5447V12.3953H35.4965C34.2813 12.3953 32.9581 12.6384 32.9581 16.0274V28.9624C32.9392 29.9287 32.9979 30.895 33.1336 31.8519H32.0535L17.3901 15.5143V27.2341C17.3901 29.7185 17.8762 30.5692 20.0906 30.5692H20.5767V31.4063H13.002V30.5692H13.3935C15.3648 30.5692 15.9589 29.219 15.9589 26.9506V14.9743C15.9607 14.634 15.8948 14.2966 15.765 13.9821C15.6352 13.6675 15.4441 13.3819 15.2028 13.1419C14.9616 12.9019 14.675 12.7122 14.3597 12.584C14.0444 12.4559 13.7068 12.3917 13.3665 12.3953H13.002V11.5447H18.8079L31.4729 25.8164V25.7489V15.0822C31.5238 14.7344 31.4964 14.3796 31.3928 14.0436C31.2891 13.7077 31.1118 13.3991 30.8738 13.1404C30.6358 12.8817 30.343 12.6793 30.0169 12.5481C29.6907 12.4169 29.3394 12.36 28.9885 12.3818H28.3674V11.5312L35.915 11.5447Z" fill="white"/>
<path d="M55.5879 31.4052V30.5681H55.993C57.0191 30.5681 58.1128 30.4195 58.1128 28.9343V14.082C58.1128 12.5968 57.0191 12.4483 55.993 12.4483H55.5879V11.5977H64.2833V12.4483H63.8782C62.8521 12.4483 61.7854 12.5968 61.7854 14.082V28.9343C61.7854 30.4195 62.8521 30.5681 63.8782 30.5681H64.2833V31.4052H55.5879Z" fill="white"/>
<path d="M31.8656 68.2533C29.8047 69.1131 27.5906 69.5449 25.3576 69.5225C18.9576 69.5225 14.2049 66.0254 14.2049 58.8828C14.2049 52.5098 19.3627 48.8103 25.2091 48.8103C28.5441 48.8103 29.6243 49.8365 32.2977 50.2415L32.5273 54.9942L31.6766 55.1022C30.88 52.4018 29.5703 50.0795 25.3036 50.0795C20.6454 50.0795 18.188 53.7385 18.188 58.7208C18.188 63.46 20.6184 68.2803 25.9787 68.2803C27.3516 68.3004 28.6874 67.8343 29.7499 66.9646C30.8124 66.0948 31.5331 64.8774 31.7846 63.5275L32.5948 63.6356L31.8656 68.2533Z" fill="white"/>
<path d="M51.457 69.1037V68.2531H51.8621C52.8882 68.2531 53.9684 68.1046 53.9684 66.6329V51.713C53.9684 50.2413 52.8882 50.0928 51.8621 50.0928H51.457V49.2422H65.8503C65.7762 50.695 65.7762 52.1506 65.8503 53.6033L64.9997 53.8329C64.8511 51.9696 64.5136 50.4844 61.5296 50.4844H57.5735V57.951H60.949C62.6638 57.951 63.0284 56.9924 63.2039 55.4396H64.0545V62.0151L63.2039 62.1907C63.0284 60.4894 62.9608 59.3822 60.9895 59.3822H57.5735V66.0118C57.5735 67.8616 59.2208 67.8616 61.0435 67.8616C64.4596 67.8616 65.9583 67.632 66.8224 64.378L67.6191 64.5806C67.2545 66.0793 66.917 67.5915 66.6604 69.1037H51.457Z" fill="white"/>
</svg>
