<svg width="143" height="30" viewBox="0 0 143 30" fill="none" xmlns="http://www.w3.org/2000/svg">
<path d="M142.035 0H112.035V30H142.035V0Z" fill="#00479D"/>
<path d="M135.428 15.1392L128.142 14.805L127.818 7.72656H127.802L127.473 14.805L120.197 15.1392V15.1544L127.473 15.4633L127.802 22.9468H127.818L128.142 15.4633L135.428 15.1544V15.1392Z" fill="#F39800"/>
<path d="M125.504 4.32926V4.64825H125.347C124.891 4.64825 124.395 4.73939 124.395 6.01027V10.8609C124.388 11.2233 124.41 11.5856 124.461 11.9445H124.055L118.557 5.81786V10.2128C118.557 11.1444 118.739 11.4634 119.569 11.4634H119.752V11.7774H116.911V11.4634H117.058C117.797 11.4634 118.02 10.9571 118.02 10.1065V5.61535C118.021 5.48773 117.996 5.36124 117.947 5.24327C117.899 5.1253 117.827 5.01821 117.736 4.9282C117.646 4.8382 117.539 4.76708 117.42 4.71902C117.302 4.67095 117.175 4.6469 117.048 4.64825H116.911V4.32926H119.088L123.838 9.68116V9.65585V5.65584C123.857 5.52539 123.847 5.39233 123.808 5.26635C123.769 5.14038 123.702 5.02467 123.613 4.92765C123.524 4.83063 123.414 4.75475 123.292 4.70554C123.169 4.65633 123.038 4.63501 122.906 4.64318H122.673V4.32422L125.504 4.32926Z" fill="white"/>
<path d="M132.881 11.7774V11.4635H133.033C133.418 11.4635 133.828 11.4078 133.828 10.8509V5.28124C133.828 4.72428 133.418 4.6686 133.033 4.6686H132.881V4.34961H136.142V4.6686H135.99C135.605 4.6686 135.205 4.72428 135.205 5.28124V10.8509C135.205 11.4078 135.605 11.4635 135.99 11.4635H136.142V11.7774H132.881Z" fill="white"/>
<path d="M123.985 25.5948C123.212 25.9173 122.382 26.0792 121.545 26.0708C119.145 26.0708 117.362 24.7594 117.362 22.0809C117.362 19.691 119.296 18.3037 121.489 18.3037C122.74 18.3037 123.145 18.6885 124.147 18.8404L124.233 20.6227L123.914 20.6632C123.615 19.6505 123.124 18.7797 121.524 18.7797C119.777 18.7797 118.856 20.1518 118.856 22.0201C118.856 23.7974 119.767 25.605 121.777 25.605C122.292 25.6125 122.793 25.4377 123.192 25.1116C123.59 24.7854 123.86 24.3289 123.955 23.8227L124.259 23.8632L123.985 25.5948Z" fill="white"/>
<path d="M131.332 25.9139V25.5949H131.484C131.869 25.5949 132.274 25.5392 132.274 24.9873V19.3924C132.274 18.8405 131.869 18.7848 131.484 18.7848H131.332V18.4658H136.73C136.702 19.0106 136.702 19.5565 136.73 20.1013L136.411 20.1873C136.355 19.4886 136.228 18.9316 135.109 18.9316H133.626V21.7316H134.892C135.535 21.7316 135.671 21.3721 135.737 20.7899H136.056V23.2557L135.737 23.3215C135.671 22.6835 135.646 22.2683 134.907 22.2683H133.626V24.7544C133.626 25.4481 134.243 25.4481 134.927 25.4481C136.208 25.4481 136.77 25.362 137.094 24.1417L137.393 24.2177C137.256 24.7797 137.13 25.3468 137.033 25.9139H131.332Z" fill="white"/>
<path d="M9.49874 18.1014L9.52912 18.071V12.5824C9.52912 11.3773 8.69367 11.2052 8.25317 11.2052H7.93418V10.7646C8.62279 10.7646 9.29114 10.8254 9.98481 10.8254C10.5823 10.8254 11.1848 10.7646 11.7823 10.7646V11.2052H11.5646C10.9468 11.2052 10.2582 11.3216 10.2582 13.0634V19.752C10.2515 20.2464 10.282 20.7406 10.3494 21.2305H9.79241L2.25317 12.8254V18.8558C2.25317 20.1317 2.50127 20.5722 3.62532 20.5722H3.87848V21.0077C3.25063 21.0077 2.61773 20.952 1.98988 20.952C1.36203 20.952 0.658228 21.0077 0 21.0077V20.5722H0.202536C1.21519 20.5722 1.51899 19.8836 1.51899 18.709V12.5216C1.51968 12.3472 1.4856 12.1745 1.41874 12.0135C1.35187 11.8524 1.25356 11.7064 1.12957 11.5838C1.00557 11.4612 0.858381 11.3646 0.696596 11.2996C0.534812 11.2345 0.361685 11.2025 0.187347 11.2052H0V10.7646C0.556962 10.7646 1.12405 10.8254 1.68102 10.8254C2.12152 10.8254 2.54683 10.7646 2.98228 10.7646L9.49874 18.1014Z" fill="#1A1A1A"/>
<path d="M12.2026 20.5469H12.4051C12.9114 20.5469 13.4886 20.471 13.4886 19.7115V12.0406C13.4886 11.2811 12.9317 11.2052 12.4051 11.2052H12.2026V10.7646C12.7747 10.7646 13.6507 10.8254 14.3697 10.8254C15.0887 10.8254 15.9798 10.7646 16.6684 10.7646V11.2052H16.4608C15.9545 11.2052 15.3773 11.2811 15.3773 12.0406V19.7115C15.3773 20.471 15.9342 20.5469 16.4608 20.5469H16.6684V20.9824C15.9646 20.9824 15.0836 20.9267 14.3545 20.9267C13.6254 20.9267 12.7747 20.9824 12.2026 20.9824V20.5469Z" fill="#1A1A1A"/>
<path d="M26.4507 13.7823C26.0405 12.3595 25.3671 11.1899 23.1696 11.1899C20.7696 11.1899 19.514 13.0785 19.514 15.6405C19.514 18.0861 20.7544 20.557 23.5241 20.557C25.0886 20.557 26.1266 19.5798 26.5114 18.1165L26.9215 18.1722C26.7413 18.9538 26.6177 19.7474 26.5519 20.5469C25.4898 20.988 24.3501 21.2118 23.2 21.2051C19.9089 21.2051 17.4633 19.4026 17.4633 15.7266C17.4633 12.4507 20.1114 10.5469 23.1291 10.5469C24.8405 10.5469 25.3975 11.0532 26.7696 11.2811C26.7549 12.0964 26.7955 12.9118 26.8912 13.7216L26.4507 13.7823Z" fill="#1A1A1A"/>
<path d="M27.7064 20.5469H27.8988C28.4051 20.5469 28.9823 20.471 28.9823 19.7115V12.0406C28.9823 11.2811 28.4253 11.2052 27.8988 11.2052H27.6912V10.7646C28.5874 10.7646 30.1114 10.8254 31.3367 10.8254C32.5621 10.8254 34.0912 10.7646 35.0886 10.7646C35.0609 11.5107 35.071 12.2576 35.119 13.0026L34.6785 13.1241C34.6026 12.1722 34.4304 11.4128 32.8912 11.4128H30.8658V15.2456H32.6076C33.4886 15.2456 33.676 14.7393 33.762 13.9545H34.2026C34.2026 14.5267 34.162 15.0988 34.162 15.671C34.162 16.2431 34.1621 16.7849 34.2026 17.3419L33.762 17.4279C33.676 16.5469 33.6355 15.9748 32.6228 15.9748H30.8658V19.3925C30.8658 20.3393 31.7165 20.3393 32.6532 20.3393C34.4102 20.3393 35.1848 20.2229 35.6253 18.552L36.0355 18.6583C35.8431 19.433 35.6709 20.2077 35.5291 20.9824C34.5874 20.9824 32.9064 20.9267 31.5899 20.9267C30.2734 20.9267 28.5519 20.9824 27.6912 20.9824L27.7064 20.5469Z" fill="#1A1A1A"/>
<path d="M84.1772 9.83301H84.1013V10.6381H84.8051V22.0153H85.5089C85.8633 22.0153 86.1418 21.3166 86.1418 20.4254V9.90897V9.84821H84.1468L84.1772 9.83301Z" fill="#1A1A1A"/>
<path d="M79.6 11.4479C78.7633 11.4348 77.9491 11.7182 77.3013 12.2479C76.97 12.5119 76.7056 12.8503 76.5297 13.2356C76.3537 13.621 76.2711 14.0424 76.2886 14.4656C76.2851 14.8704 76.3687 15.2712 76.5338 15.6407C76.699 16.0103 76.9417 16.34 77.2456 16.6074C77.8669 17.188 78.6889 17.5055 79.5392 17.4935C80.0028 17.5321 80.4692 17.4698 80.9062 17.3107C81.3433 17.1516 81.7407 16.8995 82.0709 16.5719C82.6027 16.0094 82.8997 15.2651 82.9013 14.4909C82.9053 14.0901 82.8269 13.6927 82.671 13.3234C82.5151 12.9541 82.285 12.6208 81.9949 12.3441C81.6773 12.0417 81.302 11.8064 80.8913 11.6524C80.4807 11.4985 80.0432 11.4289 79.6051 11.4479H79.6ZM78.1367 13.0732C78.3256 12.8888 78.55 12.7447 78.7964 12.6498C79.0427 12.5549 79.3058 12.5112 79.5696 12.5213C79.8505 12.5 80.1327 12.5417 80.3955 12.6433C80.6583 12.745 80.895 12.9039 81.0886 13.1087C81.4175 13.4879 81.5974 13.9738 81.5949 14.4758C81.5995 14.7413 81.5482 15.0048 81.4444 15.2492C81.3405 15.4936 81.1864 15.7134 80.9921 15.8943C80.7977 16.0753 80.5675 16.2134 80.3163 16.2996C80.0652 16.3858 79.7987 16.4182 79.5342 16.3947C79.2718 16.4023 79.0107 16.3543 78.7682 16.254C78.5256 16.1537 78.307 16.0032 78.1266 15.8124C77.948 15.6337 77.8068 15.4213 77.7112 15.1874C77.6156 14.9536 77.5674 14.7031 77.5696 14.4504C77.5633 14.195 77.6095 13.941 77.7053 13.7041C77.8011 13.4672 77.9445 13.2525 78.1266 13.0732H78.1367Z" fill="#1A1A1A"/>
<path d="M58.7848 9.83301H58.7291V10.6381H59.4329V22.0153H60.1367C60.4861 22.0153 60.7696 21.3166 60.7696 20.4254V9.83301H58.7848Z" fill="#1A1A1A"/>
<path d="M46.3039 9.83301H46.2431V10.6381H46.9469V22.0153H47.6456C47.995 22.0153 48.2785 21.3166 48.2785 20.4254V9.90897V9.84821H46.2836L46.3039 9.83301Z" fill="#1A1A1A"/>
<path d="M65.2 17.0378H69.5595V18.2327H63.8481V10.5669H68.7595V11.772H65.2152L65.2 17.0378Z" fill="#1A1A1A"/>
<path d="M72.3544 21.9646V22.0202H73.0684C73.4329 22.0202 73.7215 21.3063 73.7215 20.3899V9.86328H72.3696L72.3544 21.9646Z" fill="#1A1A1A"/>
<path d="M71.6557 9.89865V9.83789H69.5595V10.6379H70.2836V13.6759H67.8076V14.9113H70.2785V21.9999H70.9975C71.362 21.9999 71.6456 21.286 71.6506 20.3645" fill="#1A1A1A"/>
<path d="M90.5519 13.7467H94.0152V14.9213H90.5468V17.0378H95.5848V18.2327H89.1646V10.5669H94.7342V11.772H90.5063L90.5519 13.7467Z" fill="#1A1A1A"/>
<path d="M99.6962 14.1822H98.2785V9.82275H96.1924V10.6379H96.9165V21.9797H97.6304C98 21.9797 98.2735 21.2759 98.2785 20.3746V15.3873H99.7266V14.1822H99.6962Z" fill="#1A1A1A"/>
<path d="M43.5494 15.5645C43.0214 14.9428 42.6514 14.2029 42.4709 13.4075C42.4161 13.157 42.3772 12.9034 42.3544 12.648C42.3291 12.3797 42.319 12.1164 42.319 11.8531H44.9215V10.6733H38.5316V11.8531H41.0076C41.0076 12.1906 40.9823 12.5282 40.9316 12.8658C40.8954 13.1947 40.831 13.5199 40.7392 13.8379C40.5324 14.5925 40.1626 15.2925 39.6557 15.8885C39.182 16.4409 38.5949 16.8848 37.9342 17.1898L37.8734 17.2202L37.9139 17.2708L38.6076 18.1974L38.638 18.2379H38.6785C39.3811 17.7889 40.0053 17.2279 40.5266 16.5771C40.996 16.0322 41.3801 15.4194 41.6658 14.7594C41.9696 15.4177 42.3957 16.0122 42.9215 16.5113C43.4805 17.0904 44.0924 17.6159 44.7494 18.0809L44.7949 18.1113L44.8253 18.0657L45.4785 17.129L45.5139 17.0733H45.4532C44.7103 16.7245 44.0586 16.208 43.5494 15.5645V15.5645Z" fill="#1A1A1A"/>
<path d="M57.9696 17.0432H52.8253V10.5318V10.4761H52.7646H51.5089H51.4532V10.5318V18.1773V18.233H51.5089H57.9696V17.0432Z" fill="#1A1A1A"/>
</svg>
