<svg width="205" height="32" viewBox="0 0 205 32" fill="none" xmlns="http://www.w3.org/2000/svg">
<g clip-path="url(#clip0_157_20103)">
<path d="M155.744 17.0933C155.166 16.3987 154.749 15.5845 154.523 14.7093C154.445 14.3988 154.388 14.0835 154.352 13.7653C154.312 13.3916 154.295 13.0158 154.299 12.64V10.7573H152.806V12.5387C152.793 12.9921 152.754 13.4445 152.688 13.8933C152.629 14.2967 152.544 14.6958 152.432 15.088C152.177 15.8912 151.766 16.6362 151.222 17.28C150.745 17.9212 150.096 18.4133 149.35 18.6987L149.275 18.7253L149.323 18.7947L150.096 19.7653L150.134 19.8027H150.182C150.934 19.33 151.613 18.7496 152.198 18.08C152.797 17.4557 153.258 16.7126 153.552 15.8987C153.854 16.6722 154.307 17.3776 154.886 17.9733C155.438 18.5794 156.061 19.1167 156.742 19.5733L156.8 19.616L156.832 19.5573L157.568 18.5387L157.622 18.4747L157.547 18.4427C156.852 18.1339 156.236 17.6728 155.744 17.0933V17.0933Z" fill="white"/>
<path d="M161.317 14.9441H159.845V10.3521H157.648V11.1947H158.416V23.1467H159.163C159.552 23.1467 159.84 22.4054 159.845 21.4561V16.1974H161.371V14.9441H161.317Z" fill="white"/>
<path d="M147.168 10.3521H145.035V11.1947H145.803V18.2774H141.568V17.3174C142.185 17.2147 142.76 16.9391 143.227 16.5227C143.469 16.311 143.66 16.0479 143.788 15.7526C143.915 15.4573 143.975 15.1374 143.963 14.816C143.979 14.441 143.901 14.0677 143.737 13.7305C143.572 13.3932 143.325 13.1026 143.019 12.8854C142.959 12.8408 142.897 12.7999 142.832 12.7627H144.667V11.5254H141.643V10.3787H140.192V11.5254H137.168V12.7627H138.896L138.725 12.8641C138.416 13.0742 138.166 13.36 137.999 13.6943C137.832 14.0286 137.753 14.4001 137.771 14.7734C137.759 15.096 137.818 15.4173 137.943 15.7148C138.068 16.0124 138.257 16.279 138.496 16.4961C138.955 16.9169 139.522 17.2013 140.133 17.3174V18.2774H136.469V19.5041H145.803V23.1467H146.544C146.923 23.1467 147.227 22.4054 147.232 21.4561V10.3521H147.168ZM139.701 13.7814C140.031 13.5132 140.444 13.3697 140.869 13.3761C141.295 13.3664 141.709 13.5103 142.037 13.7814C142.196 13.9022 142.324 14.059 142.41 14.2389C142.496 14.4188 142.538 14.6166 142.533 14.816C142.54 15.0119 142.498 15.2062 142.411 15.382C142.325 15.5578 142.196 15.7096 142.037 15.8241C141.704 16.0831 141.294 16.2237 140.872 16.2237C140.45 16.2237 140.04 16.0831 139.707 15.8241C139.548 15.7096 139.419 15.5578 139.333 15.382C139.246 15.2062 139.204 15.0119 139.211 14.816C139.205 14.6171 139.247 14.4198 139.332 14.24C139.417 14.0602 139.544 13.9031 139.701 13.7814V13.7814Z" fill="white"/>
<path d="M125.611 16.1387C126.112 15.6441 126.535 15.0758 126.864 14.4533C127.18 15.0348 127.597 15.555 128.096 15.9893C128.633 16.5033 129.232 16.9494 129.878 17.3173L129.931 17.344V17.2907L130.683 16.2613L130.726 16.192H130.646C129.838 15.8687 129.126 15.3457 128.576 14.672C127.926 13.9371 127.572 12.9865 127.584 12.0053V10.7573H126.059V12.3573C125.973 13.3011 125.601 14.196 124.992 14.9227C124.44 15.7127 123.65 16.3052 122.736 16.6133H122.656L122.71 16.688L123.43 17.6907L123.456 17.7333H123.51C124.296 17.3258 125.007 16.7864 125.611 16.1387V16.1387Z" fill="white"/>
<path d="M125.365 18.2719H125.301V19.5039H132.235V23.1572H132.987C133.36 23.1572 133.653 22.4159 133.664 21.4559V18.2559H125.365V18.2719Z" fill="white"/>
<path d="M133.626 10.3521H131.493V11.1947H132.235V17.7974H132.997C133.371 17.7974 133.664 17.0721 133.669 16.0961V10.3521H133.626Z" fill="white"/>
<path d="M110.928 16.0001L110.955 16.0534H111.008C111.999 15.7627 112.942 15.3298 113.808 14.7681C114.502 14.3492 115.106 13.7962 115.584 13.1414C116.04 13.7782 116.614 14.3214 117.275 14.7414C118.161 15.346 119.139 15.8035 120.171 16.0961H120.219V16.0534L120.816 14.9867L120.853 14.9067H120.763C119.766 14.7863 118.815 14.4197 117.995 13.8401C117.347 13.4841 116.852 12.9036 116.603 12.2081H120.267V10.9761H110.955V12.2081H114.576C114.285 12.8923 113.77 13.4567 113.115 13.8081C112.294 14.3463 111.359 14.6859 110.384 14.8001H110.293L110.341 14.8801L110.928 16.0001Z" fill="white"/>
<path d="M121.035 17.1201H110.102V18.3575H114.902V23.1255H115.648C116.027 23.1255 116.326 22.3841 116.326 21.4295V18.3575H121.126V17.1201H121.035Z" fill="white"/>
<path d="M204.133 0H172.533V31.6H204.133V0Z" fill="#00479D"/>
<path d="M197.174 15.9467L189.499 15.5893L189.158 8.13867H189.147L188.795 15.5893L181.136 15.9467V15.9627L188.795 16.288L189.147 24.1707H189.158L189.499 16.288L197.174 15.9627V15.9467Z" fill="#F39800"/>
<path d="M186.72 4.56003V4.89069H186.555C186.08 4.89069 185.552 4.98669 185.552 6.32002V11.4347C185.545 11.8164 185.568 12.198 185.622 12.576H185.195L179.408 6.12269V10.7574C179.408 11.7387 179.595 12.0747 180.475 12.0747H180.667V12.4054H177.686V12.0747H177.846C178.619 12.0747 178.854 11.5414 178.854 10.6454V5.9147C178.855 5.78053 178.83 5.64741 178.779 5.52318C178.728 5.39894 178.653 5.28607 178.558 5.19119C178.463 5.09632 178.351 5.02134 178.226 4.97065C178.102 4.91997 177.969 4.8946 177.835 4.89603H177.686V4.56003H179.979L184.971 10.224V10.1974V5.95736C184.991 5.81995 184.98 5.6798 184.939 5.5471C184.898 5.41441 184.828 5.29251 184.734 5.19032C184.64 5.08812 184.525 5.00818 184.396 4.95635C184.267 4.90451 184.128 4.88209 183.99 4.89069H183.744V4.55469L186.72 4.56003Z" fill="white"/>
<path d="M194.496 12.4055V12.0749H194.635C195.04 12.0749 195.472 12.0162 195.472 11.4295V5.56287C195.472 4.97621 195.04 4.91753 194.635 4.91753H194.48V4.58154H197.909V4.89087H197.755C197.344 4.89087 196.923 4.94953 196.923 5.5362V11.4029C196.923 11.9895 197.344 12.0482 197.755 12.0482H197.909V12.3789L194.496 12.4055Z" fill="white"/>
<path d="M185.125 26.9598C184.309 27.2988 183.433 27.4694 182.549 27.4611C180.021 27.4611 178.144 26.0798 178.144 23.2584C178.144 20.7411 180.181 19.2798 182.496 19.2798C183.813 19.2798 184.235 19.6851 185.291 19.8131L185.381 21.6958L185.045 21.7385C184.731 20.6451 184.213 19.7491 182.528 19.7491C180.688 19.7491 179.717 21.1998 179.717 23.1678C179.717 25.0398 180.677 26.9438 182.795 26.9438C183.338 26.9538 183.866 26.7705 184.286 26.4266C184.707 26.0827 184.991 25.6006 185.088 25.0665L185.408 25.1091L185.125 26.9598Z" fill="white"/>
<path d="M192.859 27.2908V26.9548H193.019C193.43 26.9548 193.851 26.8961 193.851 26.3095V20.4428C193.851 19.8561 193.43 19.8028 193.019 19.8028H192.859V19.4668H198.544C198.512 20.0388 198.512 20.6121 198.544 21.1841L198.203 21.2748C198.144 20.5441 198.011 19.9575 196.832 19.9575H195.27V22.9068H196.608C197.28 22.9068 197.424 22.5281 197.499 21.9148H197.835V24.5121L197.504 24.5815C197.43 23.9041 197.403 23.4668 196.624 23.4668H195.275V26.0855C195.275 26.8215 195.926 26.8215 196.646 26.8215C197.995 26.8215 198.592 26.7308 198.928 25.4455L199.243 25.5201C199.099 26.1175 198.966 26.7148 198.864 27.3121L192.859 27.2908Z" fill="white"/>
<path d="M10.0107 19.0292V18.9972V13.2159C10.0107 11.9519 9.13601 11.7652 8.67201 11.7652H8.33066V11.2905C9.056 11.2905 9.76534 11.3545 10.496 11.3545C11.12 11.3545 11.7547 11.2905 12.3893 11.2905V11.7545H12.1547C11.5093 11.7545 10.784 11.8772 10.784 13.7172V20.7305C10.7743 21.2514 10.8064 21.7722 10.88 22.2879H10.2933L2.37867 13.4239V19.8239C2.37867 21.1679 2.64 21.6319 3.824 21.6319H4.09067V22.0959C3.424 22.0959 2.76267 22.0319 2.10133 22.0319C1.44 22.0319 0.693333 22.0959 0 22.0959V21.6319H0.218669C1.28534 21.6319 1.60533 20.9065 1.60533 19.6745V13.1572C1.60678 12.9731 1.5714 12.7905 1.50129 12.6203C1.43118 12.4501 1.32774 12.2956 1.19706 12.1659C1.06638 12.0362 0.911091 11.9339 0.740324 11.8651C0.569557 11.7963 0.386757 11.7624 0.202669 11.7652H0V11.2905C0.586667 11.2905 1.18933 11.3545 1.776 11.3545C2.24 11.3545 2.68267 11.2905 3.14667 11.2905L10.0107 19.0292Z" fill="white"/>
<path d="M12.8481 21.6052H13.0615C13.5948 21.6052 14.2028 21.5252 14.2028 20.7252V12.6452C14.2028 11.8452 13.6161 11.7652 13.0615 11.7652H12.8481V11.2905C13.4508 11.2905 14.3735 11.3545 15.1308 11.3545C15.8881 11.3545 16.8268 11.2905 17.5521 11.2905V11.7545H17.3335C16.8001 11.7545 16.1921 11.8345 16.1921 12.6345V20.7145C16.1921 21.5145 16.7788 21.5945 17.3335 21.5945H17.5681V22.0585C16.8268 22.0585 15.8988 21.9945 15.1255 21.9945C14.3521 21.9945 13.4668 22.0585 12.8641 22.0585L12.8481 21.6052Z" fill="white"/>
<path d="M27.8666 14.4905C27.4346 12.9919 26.7252 11.7652 24.4106 11.7652C21.8826 11.7652 20.5546 13.7492 20.5546 16.4532C20.5546 19.0239 21.8666 21.6265 24.7839 21.6265C26.4319 21.6265 27.5252 20.5972 27.9252 19.0559L28.3572 19.1145C28.1721 19.9385 28.0438 20.7743 27.9732 21.6159C26.8545 22.0805 25.654 22.3163 24.4426 22.3092C20.9759 22.3092 18.3999 20.4159 18.3999 16.5439C18.3999 13.0879 21.1892 11.0825 24.3679 11.0825C26.1706 11.0825 26.7519 11.6159 28.2026 11.8559C28.1854 12.7163 28.2264 13.5769 28.3252 14.4319L27.8666 14.4905Z" fill="white"/>
<path d="M29.1893 21.6052H29.4079C29.9413 21.6052 30.5493 21.5252 30.5493 20.7252V12.6452C30.5493 11.8452 29.9626 11.7652 29.4079 11.7652H29.1893V11.2905C30.1333 11.2905 31.7386 11.3545 33.0293 11.3545C34.3199 11.3545 35.9306 11.2905 36.9759 11.2905C36.9439 11.9572 36.9759 12.9705 37.0079 13.6532L36.5439 13.7759C36.4693 12.7732 36.2826 11.9732 34.6666 11.9732H32.5333V16.0105H34.3679C35.2959 16.0105 35.4933 15.4772 35.5839 14.6505H36.0479C36.0159 15.2514 35.9999 15.8541 35.9999 16.4585C35.9999 17.063 36.0159 17.6496 36.0479 18.2185L35.5839 18.3092C35.4933 17.3865 35.4453 16.7839 34.3839 16.7839H32.5013V20.3785C32.5013 21.3759 33.3973 21.3758 34.3839 21.3758C36.2346 21.3758 37.0506 21.2532 37.5146 19.4932L37.9466 19.6052C37.7439 20.4212 37.5626 21.2372 37.4133 22.0585C36.4266 22.0585 34.6506 21.9945 33.2693 21.9945C31.8879 21.9945 30.0693 22.0585 29.1626 22.0585L29.1893 21.6052Z" fill="white"/>
<path d="M88.6666 10.3198H88.6079V11.1678H89.3492V23.1518H90.1012C90.4692 23.1518 90.7679 22.4158 90.7679 21.4771V10.3198H88.6666Z" fill="white"/>
<path d="M83.8507 12.0213C82.9694 12.0076 82.1117 12.3061 81.4293 12.864C81.0807 13.1423 80.8025 13.4988 80.6172 13.9046C80.4319 14.3105 80.3447 14.7542 80.3627 15.2C80.3582 15.6272 80.4459 16.0504 80.6199 16.4406C80.7938 16.8309 81.0499 17.179 81.3707 17.4613C82.0266 18.07 82.8919 18.4023 83.7867 18.3893C84.2749 18.4293 84.7659 18.3633 85.2262 18.1957C85.6865 18.0282 86.1051 17.7631 86.4533 17.4186C87.0135 16.8261 87.3264 16.0421 87.328 15.2266C87.3322 14.8044 87.2497 14.3858 87.0854 13.9968C86.9212 13.6079 86.6789 13.2568 86.3733 12.9653C86.0388 12.6468 85.6434 12.399 85.2109 12.2368C84.7783 12.0746 84.3175 12.0013 83.856 12.0213H83.8507ZM82.3093 13.7333C82.5083 13.539 82.7447 13.3873 83.0042 13.2873C83.2637 13.1874 83.5408 13.1413 83.8187 13.152C84.1146 13.1296 84.4118 13.1735 84.6886 13.2805C84.9654 13.3875 85.2148 13.555 85.4187 13.7706C85.7655 14.1699 85.9551 14.6818 85.952 15.2106C85.9593 15.4905 85.9071 15.7688 85.7989 16.027C85.6907 16.2852 85.5289 16.5175 85.3242 16.7086C85.1196 16.8996 84.8767 17.0451 84.6116 17.1353C84.3466 17.2255 84.0654 17.2585 83.7867 17.232C83.5103 17.2399 83.2353 17.1894 82.9798 17.0837C82.7243 16.978 82.494 16.8195 82.304 16.6186C82.1159 16.4304 81.9672 16.2066 81.8665 15.9603C81.7657 15.714 81.715 15.4501 81.7173 15.184C81.7107 14.9149 81.7594 14.6473 81.8603 14.3978C81.9612 14.1483 82.1122 13.9221 82.304 13.7333H82.3093Z" fill="white"/>
<path d="M61.9415 10.3198H61.8828V11.1678H62.6241V23.1518H63.3602C63.7335 23.1518 64.0322 22.4158 64.0322 21.4771V10.3198H61.9415Z" fill="white"/>
<path d="M48.7735 10.3198H48.7148V11.1678H49.4562V23.1518H50.1975C50.5655 23.1518 50.8642 22.4158 50.8642 21.4771V10.3198H48.7628H48.7735Z" fill="white"/>
<path d="M68.6826 17.9146H73.2692V19.1786H67.2266V11.0879H72.3999V12.3572H68.6666L68.6826 17.9146Z" fill="white"/>
<path d="M76.2349 23.0987V23.1574H76.9922C77.3762 23.1574 77.6802 22.4054 77.6802 21.4401V10.3521H76.2349V23.0987Z" fill="white"/>
<path d="M75.4826 10.3892V10.3252H73.2746V11.1892H74.0372V14.3892H71.4346V15.6905H74.0372V23.1572H74.7946C75.1786 23.1572 75.4772 22.4052 75.4826 21.4345" fill="white"/>
<path d="M95.3867 14.4479H99.0347V15.6853H95.3814V17.9199H100.688V19.1839H93.9414V11.0933H99.8081V12.3573H95.3547L95.3867 14.4479Z" fill="white"/>
<path d="M105.035 14.9118H103.542V10.3198H101.344V11.1678H102.112V23.1091H102.864C103.248 23.1091 103.542 22.3678 103.542 21.4185V16.1652H105.072V14.9118H105.035Z" fill="white"/>
<path d="M45.8774 16.3576C45.3178 15.7051 44.9277 14.9247 44.7414 14.0856C44.6837 13.8218 44.6427 13.5546 44.6187 13.2856C44.5921 13.0029 44.5814 12.7522 44.5814 12.4482H47.3174V11.2056H40.5867V12.4482H43.1681C43.161 12.805 43.1343 13.1611 43.0881 13.5149C43.0511 13.8594 42.9851 14.2002 42.8907 14.5336C42.6729 15.3284 42.2833 16.0657 41.7494 16.6936C41.2505 17.2755 40.632 17.743 39.9361 18.0642L39.8721 18.0962L39.9147 18.1496L40.6454 19.1256L40.6774 19.1682L40.7201 19.1416C41.4601 18.6687 42.1177 18.0777 42.6667 17.3922C43.1611 16.8183 43.5657 16.1727 43.8667 15.4776C44.1867 16.1709 44.6356 16.7971 45.1894 17.3229C45.7767 17.9344 46.4215 18.4881 47.1147 18.9762L47.1627 19.0082L47.1947 18.9602L47.8827 17.9736L47.9201 17.9149L47.8561 17.8882C47.0892 17.5342 46.4127 17.0109 45.8774 16.3576Z" fill="white"/>
<path d="M61.0666 17.9149H55.6479V11.0562V10.9976H55.5839H54.2613H54.1973V11.0562V19.1096V19.1682H54.2613H61.0666V17.9149Z" fill="white"/>
</g>
<defs>
<clipPath id="clip0_157_20103">
<rect width="204.267" height="32" fill="white"/>
</clipPath>
</defs>
</svg>
