<svg width="136" height="878" viewBox="0 0 136 878" fill="none" xmlns="http://www.w3.org/2000/svg">
<rect x="12" y="21.5" width="21" height="21" rx="8" fill="#0439F4"/>
<path d="M17.781 26.2087L14.6095 31.5951H17.781L20.922 26.2087H17.781Z" fill="white" fill-opacity="0.6"/>
<path d="M20.9065 26.2087L24.078 31.5951H20.9065L17.7655 26.2087H20.9065Z" fill="white"/>
<path d="M24.0932 26.2087L20.9216 31.5951H24.0932L27.2341 26.2087H24.0932Z" fill="white" fill-opacity="0.6"/>
<path d="M27.2187 26.2087L30.3903 31.5951H27.2187L24.0777 26.2087H27.2187Z" fill="white"/>
<path d="M17.781 37.7915L14.6095 32.5434H17.781L20.922 37.7915H17.781Z" fill="white"/>
<path d="M20.9065 37.7915L24.078 32.5434H20.9065L17.7655 37.7915H20.9065Z" fill="white" fill-opacity="0.6"/>
<path d="M24.0932 37.7915L20.9216 32.5434H24.0932L27.2341 37.7915H24.0932Z" fill="white"/>
<path d="M27.2187 37.7915L30.3903 32.5434H27.2187L24.0777 37.7915H27.2187Z" fill="white" fill-opacity="0.6"/>
<path d="M41.7656 38H44.7344V33.5469H49.1562V31.1406H44.7344V29.0938H49.6562V26.6875H41.7656V38ZM50.5431 38H53.4963V33.5312C53.4884 32.5469 54.1681 31.8906 55.09 31.8906C55.4103 31.8906 55.9103 31.9453 56.1994 32.0469V29.5C55.965 29.4453 55.6916 29.3984 55.4338 29.4062C54.5197 29.3984 53.8009 29.9375 53.4963 31.1094H53.4025V29.5156H50.5431V38ZM56.2738 35.6562C56.2738 37.3438 57.4222 38.1328 59.0394 38.1406C60.1722 38.1328 61.0003 37.7344 61.5081 36.8125H61.5706V38H64.3363V32.2031C64.3363 30.5703 62.8128 29.4062 60.4613 29.4062C57.9613 29.4062 56.7113 30.7109 56.6019 32.25H59.3363C59.4066 31.7109 59.8128 31.4531 60.4144 31.4531C60.9925 31.4531 61.3753 31.7188 61.3831 32.1875V32.875C61.0394 32.8906 60.0394 32.9219 59.3988 32.9531C57.6722 33.0547 56.2738 33.7891 56.2738 35.6562ZM59.055 35.4844C59.0628 35.0234 59.3988 34.6797 59.93 34.6094C60.3206 34.5703 61.1019 34.5391 61.3988 34.5312V34.9844C61.4066 35.7812 60.7347 36.2578 59.9925 36.25C59.4456 36.2578 59.0628 35.9922 59.055 35.4844ZM68.6294 33.2031C68.6294 32.3359 69.1294 31.8047 69.9106 31.8125C70.7075 31.8047 71.1763 32.3281 71.1606 33.2031V38H74.1138V32.5938C74.1294 30.7266 72.9575 29.4062 71.1606 29.4062C69.9106 29.4062 68.9341 30.0547 68.5669 31.1094H68.4731V29.5156H65.6763V38H68.6294V33.2031ZM79.5475 38.1562C82.0241 38.1562 83.5475 36.7266 83.5944 34.5156H80.8444C80.7741 35.4141 80.2741 35.8984 79.5944 35.9062C78.7428 35.8984 78.1959 35.1797 78.1881 33.75C78.1959 32.3359 78.7506 31.6172 79.5944 31.625C80.2897 31.6172 80.7584 32.1094 80.8444 33H83.5944C83.5631 30.8203 82.0006 29.4062 79.5475 29.4062C76.8131 29.4062 75.1803 31.1719 75.1725 33.7812C75.1803 36.3828 76.8053 38.1562 79.5475 38.1562ZM87.6688 33.2031C87.6688 32.3359 88.1766 31.8047 88.95 31.8125C89.7625 31.8047 90.2156 32.3281 90.2156 33.2031V38H93.1688V32.5938C93.1688 30.7109 91.9969 29.4062 90.2 29.4062C88.95 29.4062 88.0281 30.0391 87.6531 31.1094H87.5594V26.6875H84.7156V38H87.6688V33.2031ZM94.5556 38H97.5088V29.5156H94.5556V38ZM94.5556 27.2344C94.5478 27.9922 95.2119 28.6016 96.0244 28.5938C96.8291 28.6016 97.4931 27.9922 97.4931 27.2344C97.4931 26.4844 96.8291 25.875 96.0244 25.875C95.2119 25.875 94.5478 26.4844 94.5556 27.2344ZM103.864 32.25H106.583C106.497 30.4766 105.028 29.4062 102.614 29.4062C100.224 29.4062 98.7394 30.3984 98.7394 32.1562C98.7394 33.4766 99.5988 34.3281 101.318 34.6406L102.802 34.9062C103.482 35.0312 103.786 35.2188 103.802 35.5625C103.786 35.9375 103.364 36.1484 102.771 36.1562C102.06 36.1484 101.568 35.8438 101.474 35.2969H98.5363C98.7159 37.0156 100.193 38.1562 102.755 38.1562C105.091 38.1562 106.786 37.0156 106.802 35.2188C106.786 33.9688 105.95 33.2344 104.224 32.9219L102.536 32.6094C101.864 32.4844 101.669 32.2422 101.677 31.9844C101.669 31.6094 102.122 31.3828 102.677 31.3906C103.302 31.3828 103.81 31.7188 103.864 32.25ZM111.876 38.1562C114.197 38.1562 115.697 37.0469 115.986 35.2969H113.283C113.095 35.7891 112.587 36.0625 111.939 36.0625C110.993 36.0625 110.439 35.4453 110.439 34.5625V34.4531H116.001V33.75C115.993 31.0234 114.329 29.4062 111.814 29.4062C109.197 29.4062 107.525 31.1562 107.517 33.7812C107.525 36.5234 109.173 38.1562 111.876 38.1562ZM110.439 32.7969C110.462 32.0312 111.087 31.4922 111.876 31.5C112.665 31.4922 113.259 32.0312 113.267 32.7969H110.439Z" fill="white"/>
<g clip-path="url(#clip0_100_10342)">
<path d="M28.2936 98V110" stroke="white" stroke-linecap="round" stroke-linejoin="round"/>
<path d="M22.2936 104H34.2936" stroke="white" stroke-linecap="round" stroke-linejoin="round"/>
<path d="M32.9603 104C32.9603 106.577 30.871 108.667 28.2936 108.667C25.7163 108.667 23.627 106.577 23.627 104C23.627 101.423 25.7163 99.3333 28.2936 99.3333C30.871 99.3333 32.9603 101.423 32.9603 104Z" stroke="white" stroke-linecap="round" stroke-linejoin="round"/>
<path d="M56.8164 103.617H46.4062V104.658H50.9004V105.496H47.6123V106.512H54.1504V107.223H47.625V110.028H55.8516V108.975H49.0088V108.188H55.5342V105.496H52.2969V104.658H56.8164V103.617ZM46.8633 102.183L47.2568 103.236C49.3389 103.109 50.875 102.551 51.5986 101.624C52.3223 102.551 53.8647 103.109 55.9277 103.236L56.3467 102.183C54.0552 102.068 52.7222 101.459 52.4429 100.646H55.8135V99.5928H52.2969V98.6279H50.9004V99.5928H47.4092V100.646H50.7544C50.4624 101.459 49.1294 102.068 46.8633 102.183ZM67.0966 98.6533H65.6874V101.383H63.7069V102.538H65.6874V105.318H67.0966V98.6533ZM57.4608 104.176L58.1845 105.28C59.5429 104.83 60.495 103.871 61.0028 102.665C61.5043 103.75 62.412 104.626 63.6942 105.064L64.4052 103.947C62.6278 103.344 61.7011 101.922 61.7011 100.545V100.443H64.0751V99.3008H57.8798V100.443H60.2665V100.532C60.2665 102.049 59.2889 103.573 57.4608 104.176ZM59.4667 109.99H67.0966V105.813H59.4667V109.99ZM60.8759 108.848V106.931H65.7128V108.848H60.8759ZM75.8756 101.916V100.951H78.3893V99.7832H71.9147V100.951H74.4411V101.916C74.4347 103.865 73.3048 106.004 71.4957 106.842L72.3082 107.946C73.6476 107.312 74.6569 105.991 75.1837 104.417C75.7106 105.877 76.7008 107.077 78.0592 107.667L78.8336 106.55C76.9801 105.775 75.8756 103.795 75.8756 101.916ZM79.6715 110.13H81.0934V98.6533H79.6715V110.13ZM92.2622 105.979H84.4419V107.096H90.853V110.13H92.2622V105.979ZM82.8042 102.068C82.8042 103.719 84.1055 104.887 85.8384 104.887C86.7905 104.887 87.6157 104.519 88.1616 103.909H90.853V105.433H92.2622V98.6533H90.853V100.24H88.1489C87.6094 99.6372 86.7842 99.2817 85.8384 99.2881C84.1055 99.2754 82.8042 100.443 82.8042 102.068ZM84.1499 102.068C84.1499 101.11 84.8545 100.475 85.8384 100.481C86.7779 100.475 87.4951 101.11 87.5015 102.068C87.4951 103.065 86.7779 103.687 85.8384 103.693C84.8545 103.687 84.1499 103.065 84.1499 102.068ZM88.7583 102.767C88.8154 102.544 88.8472 102.31 88.8472 102.068C88.8472 101.833 88.8154 101.611 88.7647 101.396H90.853V102.767H88.7583Z" fill="white"/>
</g>
<path d="M28 152C31.3137 152 34 149.314 34 146C34 142.686 31.3137 140 28 140C24.6863 140 22 142.686 22 146C22 149.314 24.6863 152 28 152Z" stroke="white" stroke-linecap="round" stroke-linejoin="round"/>
<path d="M26 148.667H28H28.6667C29.1111 148.667 30 148.4 30 147.333C30 146.267 29.1111 146 28.6667 146H27.3333C26.8889 146 26 145.733 26 144.667C26 143.6 26.8889 143.333 27.3333 143.333H28H30" stroke="white" stroke-linecap="round" stroke-linejoin="round"/>
<path d="M28 148.667V150" stroke="white" stroke-linecap="round" stroke-linejoin="round"/>
<path d="M28 143.333V142" stroke="white" stroke-linecap="round" stroke-linejoin="round"/>
<path d="M56.2832 140.653H54.9248V152.13H56.2832V140.653ZM46.4951 145.617C46.4951 148.15 47.4727 149.724 48.9707 149.718C49.9419 149.724 50.7036 149.077 51.1226 147.953H52.627V151.571H53.96V140.856H52.627V143.281H51.1226C50.6973 142.164 49.9419 141.523 48.9707 141.529C47.4727 141.523 46.4951 143.091 46.4951 145.617ZM47.79 145.617C47.7773 143.827 48.2153 142.856 48.9707 142.862C49.7324 142.856 50.2021 143.827 50.2021 145.617C50.2021 147.414 49.7324 148.378 48.9707 148.372C48.2153 148.378 47.7773 147.414 47.79 145.617ZM51.4082 144.424H52.627V146.798H51.4146C51.4653 146.43 51.4971 146.036 51.4971 145.617C51.4971 145.192 51.4653 144.792 51.4082 144.424ZM61.5487 142.481V141.263H60.1395V142.354C60.1332 143.992 59.2064 145.522 57.3593 146.163L58.121 147.268C59.4413 146.804 60.368 145.846 60.8632 144.627C61.3646 145.693 62.2533 146.531 63.4911 146.95L64.2528 145.846C62.4818 145.287 61.5487 143.922 61.5487 142.481ZM58.9208 149.934C58.9208 151.324 60.4125 152.117 62.8055 152.117C65.1796 152.117 66.6459 151.324 66.6522 149.934C66.6459 148.575 65.1796 147.769 62.8055 147.775C60.4125 147.769 58.9208 148.575 58.9208 149.934ZM60.33 149.934C60.33 149.261 61.2313 148.88 62.8055 148.88C64.3734 148.88 65.2557 149.261 65.2557 149.934C65.2557 150.645 64.3734 151 62.8055 151C61.2313 151 60.33 150.645 60.33 149.934ZM65.1288 147.521H66.538V144.614H68.1376V143.446H66.538V140.653H65.1288V147.521ZM78.4939 140.653H77.1355V145.084H75.9168V140.856H74.5837V151.571H75.9168V146.252H77.1355V152.13H78.4939V140.653ZM68.947 149.172H73.4539V141.897H68.947V149.172ZM70.2673 148.055V143.015H72.1336V148.055H70.2673ZM90.1325 145.617H79.7223V146.658H84.2164V147.496H80.9284V148.512H87.4664V149.223H80.9411V152.028H89.1676V150.975H82.3248V150.188H88.8502V147.496H85.6129V146.658H90.1325V145.617ZM80.1793 144.183L80.5729 145.236C82.6549 145.109 84.1911 144.551 84.9147 143.624C85.6383 144.551 87.1808 145.109 89.2438 145.236L89.6627 144.183C87.3712 144.068 86.0382 143.459 85.7589 142.646H89.1295V141.593H85.6129V140.628H84.2164V141.593H80.7252V142.646H84.0704C83.7785 143.459 82.4454 144.068 80.1793 144.183Z" fill="white"/>
<path d="M33.3333 182.667H22.6666V193.333H33.3333V182.667Z" stroke="white" stroke-linecap="round" stroke-linejoin="round"/>
<path d="M30.6666 187.333V191.333" stroke="white" stroke-linecap="round" stroke-linejoin="round"/>
<path d="M28 184.667V191.333" stroke="white" stroke-linecap="round" stroke-linejoin="round"/>
<path d="M25.3333 189.333V191.333" stroke="white" stroke-linecap="round" stroke-linejoin="round"/>
<path d="M55.9912 182.666H54.582V184.608H52.2778C52.3413 184.247 52.373 183.866 52.373 183.466H47.1045V184.608H50.8306C50.6147 186.316 49.1802 187.681 46.4951 188.404L47.0664 189.521C49.561 188.823 51.2368 187.547 51.9604 185.726H54.582V186.957H51.8525V188.1H54.582V189.369H55.9912V182.666ZM48.2979 191.781C48.2979 193.19 49.8403 194.073 52.1953 194.066C54.5186 194.073 56.0674 193.19 56.0674 191.781C56.0674 190.372 54.5186 189.502 52.1953 189.496C49.8403 189.502 48.2979 190.372 48.2979 191.781ZM49.707 191.781C49.707 191.013 50.6528 190.601 52.1953 190.601C53.7124 190.601 54.6519 191.013 54.6582 191.781C54.6519 192.537 53.7124 192.949 52.1953 192.949C50.6528 192.949 49.707 192.537 49.707 191.781ZM61.0155 184.926V184.672H62.869V183.542H57.7274V184.672H59.6571V184.926C59.6571 186.291 58.9462 187.63 57.3973 188.265L58.1591 189.356C59.2255 188.918 59.9491 188.106 60.3554 187.109C60.7489 187.985 61.4154 188.677 62.3993 189.064L63.1356 187.973C61.6757 187.414 61.0092 186.246 61.0155 184.926ZM59.4921 191.972C59.4857 193.311 61.0092 194.117 63.4276 194.117C65.827 194.117 67.3568 193.311 67.3632 191.972C67.3568 190.639 65.827 189.845 63.4276 189.839C61.0092 189.845 59.4857 190.639 59.4921 191.972ZM60.9012 191.972C60.8949 191.305 61.8344 190.918 63.4276 190.918C64.9955 190.918 65.9349 191.305 65.9413 191.972C65.9349 192.67 64.9955 193.025 63.4276 193.025C61.8344 193.025 60.8949 192.67 60.9012 191.972ZM63.5165 189.28H64.8495V186.69H65.954V189.636H67.2997V182.666H65.954V185.535H64.8495V182.882H63.5165V189.28ZM72.6921 185.408V183.58H71.283V185.408C71.2766 187.528 70.2229 189.725 68.3757 190.601L69.239 191.73C70.553 191.07 71.4924 189.775 71.9939 188.214C72.4827 189.674 73.3777 190.886 74.6218 191.515L75.4851 190.385C73.7078 189.528 72.6795 187.458 72.6921 185.408ZM76.1707 194.13H77.5798V188.354H79.3445V187.147H77.5798V182.653H76.1707V194.13ZM93.1255 188.595H82.6392V189.725H87.2984V191.705H88.6948V189.725H93.1255V188.595ZM83.9087 193.901H91.9702V192.759H85.3052V190.74H83.9087V193.901ZM84.0103 187.693H91.7544V183.021H90.3579V184.316H85.4068V183.021H84.0103V187.693ZM85.4068 186.576V185.37H90.3579V186.576H85.4068ZM97.9213 184.469V183.25H96.4994V184.38C96.4994 186.018 95.5727 187.522 93.7064 188.138L94.4682 189.268C95.7885 188.785 96.7216 187.846 97.2294 186.64C97.7182 187.744 98.6005 188.614 99.851 189.052L100.613 187.922C98.8417 187.351 97.9213 185.941 97.9213 184.469ZM95.5473 191.146H101.958V194.13H103.368V190.029H95.5473V191.146ZM99.6732 186.043H101.958V189.471H103.368V182.653H101.958V184.888H99.6732V186.043Z" fill="white"/>
<path d="M27.3333 224H28.6667C29.0349 224 29.3333 224.298 29.3333 224.667V225.046C29.3333 225.331 29.5247 225.579 29.7881 225.688C30.0517 225.798 30.3585 225.756 30.5602 225.554L30.8284 225.286C31.0887 225.026 31.5109 225.026 31.7712 225.286L32.714 226.229C32.9744 226.489 32.9743 226.911 32.714 227.172L32.4459 227.44C32.2441 227.641 32.2024 227.948 32.3118 228.212C32.4211 228.475 32.6689 228.667 32.9542 228.667H33.3333C33.7015 228.667 34 228.965 34 229.333V230.667C34 231.035 33.7015 231.333 33.3333 231.333H32.9541C32.6689 231.333 32.4212 231.525 32.3118 231.788C32.2024 232.052 32.2441 232.358 32.4459 232.56L32.714 232.828C32.9744 233.089 32.9744 233.511 32.714 233.771L31.7712 234.714C31.5109 234.974 31.0887 234.974 30.8284 234.714L30.5602 234.446C30.3585 234.244 30.0517 234.202 29.7881 234.312C29.5247 234.421 29.3333 234.669 29.3333 234.954V235.333C29.3333 235.702 29.0349 236 28.6667 236H27.3333C26.9651 236 26.6667 235.702 26.6667 235.333V234.954C26.6667 234.669 26.4752 234.421 26.2118 234.312C25.9483 234.202 25.6415 234.244 25.4397 234.446L25.1715 234.714C24.9112 234.974 24.4891 234.974 24.2287 234.714L23.2859 233.771C23.0256 233.511 23.0256 233.089 23.2859 232.828L23.5542 232.56C23.7559 232.358 23.7976 232.052 23.6882 231.788C23.5788 231.525 23.3311 231.333 23.0459 231.333H22.6667C22.2985 231.333 22 231.035 22 230.667V229.333C22 228.965 22.2985 228.667 22.6667 228.667H23.0458C23.3311 228.667 23.5788 228.475 23.6882 228.212C23.7976 227.948 23.7559 227.642 23.5542 227.44L23.2859 227.172C23.0256 226.911 23.0256 226.489 23.2859 226.229L24.2287 225.286C24.4891 225.026 24.9112 225.026 25.1716 225.286L25.4398 225.554C25.6415 225.756 25.9483 225.798 26.2118 225.688C26.4753 225.579 26.6667 225.331 26.6667 225.046V224.667C26.6667 224.298 26.9651 224 27.3333 224Z" stroke="#A0B5FF"/>
<path d="M29.3333 230C29.3333 230.736 28.7364 231.333 28 231.333C27.2636 231.333 26.6666 230.736 26.6666 230C26.6666 229.264 27.2636 228.667 28 228.667C28.7364 228.667 29.3333 229.264 29.3333 230Z" stroke="#A0B5FF"/>
<path d="M57.6895 230.789H46.3965V232.02H49.1035V236.217H50.6621V232.02H53.3965V236.217H54.9414V232.02H57.6895V230.789ZM47.5859 227.057C47.5791 228.718 49.3838 229.764 52.0156 229.764C54.6475 229.764 56.4658 228.718 56.4727 227.057C56.4658 225.375 54.6475 224.302 52.0156 224.295C49.3838 224.302 47.5791 225.375 47.5859 227.057ZM49.1445 227.057C49.1377 226.086 50.2725 225.525 52.0156 225.525C53.7656 225.525 54.9004 226.086 54.9004 227.057C54.9004 228 53.7656 228.554 52.0156 228.561C50.2725 228.554 49.1377 228 49.1445 227.057ZM69.6354 230.283H64.7409V229.367H68.3776V228.205H61.3092V227.33H67.9811V226.209H61.3092V225.361H68.2819V224.186H59.7916V229.367H63.2233V230.283H58.3424V231.486H69.6354V230.283ZM59.6823 234.18C59.6823 235.506 61.234 236.203 63.9889 236.203C66.7028 236.203 68.2614 235.506 68.2682 234.18C68.2614 232.888 66.7028 232.163 63.9889 232.17C61.234 232.163 59.6823 232.888 59.6823 234.18ZM61.1998 234.18C61.1998 233.592 62.1295 233.305 63.9889 233.305C65.8141 233.305 66.737 233.592 66.7506 234.18C66.737 234.781 65.8141 235.068 63.9889 235.068C62.1295 235.068 61.1998 234.781 61.1998 234.18ZM76.6048 224.773H70.7532V230.215H76.6048V224.773ZM71.8743 233.811C71.8743 235.328 73.5012 236.21 76.0579 236.217C78.594 236.21 80.1936 235.328 80.2005 233.811C80.1936 232.32 78.594 231.418 76.0579 231.418C73.5012 231.418 71.8743 232.32 71.8743 233.811ZM72.2434 228.984V225.977H75.1145V228.984H72.2434ZM73.3919 233.811C73.3919 233.052 74.3626 232.635 76.0579 232.635C77.7464 232.635 78.6966 233.052 78.6966 233.811C78.6966 234.604 77.7464 235 76.0579 235C74.3626 235 73.3919 234.604 73.3919 233.811ZM78.5598 231.062H80.0774V227.986H81.8001V226.756H80.0774V223.857H78.5598V231.062ZM92.3755 224.773H86.0728V226.031H90.8785C90.8648 226.79 90.817 227.74 90.5709 229.012L92.0748 229.148C92.3619 227.583 92.3619 226.353 92.3755 225.512V224.773ZM85.3345 230.133L85.4712 231.35C87.6382 231.343 90.5572 231.295 93.1275 230.83L93.0455 229.736C91.8492 229.907 90.5367 230.003 89.2584 230.058V227.59H87.7545V230.105C86.8863 230.119 86.066 230.126 85.3345 230.133ZM87.1802 235.971H95.7252V234.74H88.7115V232.293H87.1802V235.971ZM93.7701 233.113H95.3287V228.984H96.9283V227.713H95.3287V223.857H93.7701V233.113ZM107.726 223.857H106.222V236.23H107.726V223.857ZM98.1008 226.168H102.38V228.369H98.1145V233.305H99.1945C101.416 233.312 103.262 233.229 105.361 232.867L105.224 231.623C103.296 231.944 101.621 232.047 99.673 232.061V229.572H103.925V224.938H98.1008V226.168Z" fill="#A0B5FF"/>
<path d="M30 844.667H28C27.2636 844.667 26.6667 845.264 26.6667 846V854C26.6667 854.736 27.2636 855.333 28 855.333H30" stroke="#657890" stroke-linecap="round" stroke-linejoin="round"/>
<path d="M34.6667 847.333L37.3334 850L34.6667 852.667" stroke="#657890" stroke-linecap="round" stroke-linejoin="round"/>
<path d="M37.3334 850H29.3334" stroke="#657890" stroke-linecap="round" stroke-linejoin="round"/>
<path d="M58.8672 853.629H54.2969V851.763H57.8896V850.607H51.0342V849.122H57.623V845.44H49.5996V846.583H56.2266V848.005H49.625V851.763H52.9004V853.629H48.3809V854.797H58.8672V853.629ZM68.6141 845.771H60.5907V846.913H67.205V847.065C67.205 848.557 67.205 850.22 66.7606 852.474L68.1952 852.601C68.6141 850.182 68.6141 848.602 68.6141 847.065V845.771ZM59.4862 854.556H69.9471V853.4H59.4862V854.556ZM73.6765 845.491C71.9309 845.491 70.6868 847.065 70.6931 849.541C70.6868 852.036 71.9309 853.604 73.6765 853.604C75.4031 853.604 76.6472 852.036 76.6599 849.541C76.6472 847.065 75.4031 845.491 73.6765 845.491ZM72.0515 849.541C72.0452 847.789 72.7117 846.761 73.6765 846.761C74.6477 846.761 75.2952 847.789 75.3015 849.541C75.2952 851.306 74.6477 852.328 73.6765 852.334C72.7117 852.328 72.0452 851.306 72.0515 849.541ZM78.1707 856.13H79.5798V850.252H81.3445V849.059H79.5798V844.653H78.1707V856.13ZM92.1579 849.757H81.6969V850.925H86.2038V852.067H87.6002V850.925H92.1579V849.757ZM82.3952 855L82.8649 856.066C84.7628 855.889 86.1911 855.203 86.8893 854.245C87.5812 855.222 89.0285 855.882 90.9518 856.066L91.3834 855C89.0094 854.797 87.6193 853.857 87.6129 852.804V852.537H86.1657V852.804C86.1657 853.819 84.7438 854.797 82.3952 855ZM82.776 846.951C82.776 848.303 84.382 849.097 86.9147 849.084C89.4728 849.097 91.047 848.303 91.0534 846.951C91.047 845.58 89.4728 844.812 86.9147 844.806C84.382 844.812 82.776 845.58 82.776 846.951ZM84.2487 846.951C84.236 846.247 85.2199 845.859 86.9147 845.872C88.6032 845.859 89.5934 846.247 89.5934 846.951C89.5934 847.624 88.6032 848.011 86.9147 848.018C85.2199 848.011 84.236 847.624 84.2487 846.951Z" fill="#657890"/>
<defs>
<clipPath id="clip0_100_10342">
<rect x="12" y="88" width="112" height="32" rx="10" fill="white"/>
</clipPath>
</defs>
</svg>
