<svg width="92" height="18" viewBox="0 0 92 18" fill="none" xmlns="http://www.w3.org/2000/svg">
<rect width="18" height="18" rx="9" fill="#FFD8D6"/>
<path d="M15 12.3057H3V13.3426H15V12.3057Z" fill="#AD6709"/>
<path d="M15 12.3055H3L10.3013 4.54295L11.4831 3.28261C12.2232 4.06746 12.8662 4.95543 13.3942 5.9236C14.4126 7.80075 15 9.98152 15 12.3055Z" fill="url(#paint0_linear_118_12396)"/>
<path d="M10.0481 3.88988C10.0481 4.38065 10.4217 4.77975 10.8851 4.77975C11.3467 4.77975 11.7221 4.38065 11.7221 3.88988C11.7203 3.39911 11.3467 3 10.8851 3C10.4217 3 10.0481 3.39911 10.0481 3.88988Z" fill="url(#paint1_linear_118_12396)"/>
<path d="M13.3278 12.3055H3L4.58958 10.6155L5.38347 9.77147L10.3013 4.54297C12.1711 6.53087 13.3278 9.27307 13.3278 12.3055Z" fill="url(#paint2_linear_118_12396)"/>
<path d="M12.0527 12.3057V13.3559C12.0527 13.6328 11.839 13.8582 11.5821 13.8582C11.3199 13.8582 11.1097 13.6348 11.1097 13.3559V13.1554C11.1097 12.8785 10.8996 12.6551 10.6391 12.6551C10.3769 12.6551 10.1668 12.8785 10.1668 13.1554V14.4998C10.1668 14.7786 9.95661 15.0001 9.69617 15.0001C9.43573 15.0001 9.22559 14.7767 9.22559 14.4998V12.3057H12.0527Z" fill="#FBD07E"/>
<path d="M5.53248 10.1381V12.8918C5.53248 13.1687 5.32234 13.394 5.0619 13.394C4.80146 13.394 4.59131 13.1706 4.59131 12.8918V10.6155L5.3852 9.77148C5.47501 9.86315 5.53248 9.99491 5.53248 10.1381Z" fill="#FBD07E"/>
<path d="M11.4149 8.10641C11.4149 8.98292 10.7467 9.6933 9.92228 9.6933C9.09785 9.6933 8.42969 8.98292 8.42969 8.10641C8.42969 7.2299 9.09785 6.51953 9.92228 6.51953C10.7467 6.51953 11.4149 7.2299 11.4149 8.10641Z" fill="url(#paint3_linear_118_12396)"/>
<path d="M8.69572 12.3051H5.98535C5.98535 11.5088 6.59424 10.8652 7.34323 10.8652C8.09042 10.8652 8.69572 11.5088 8.69572 12.3051Z" fill="url(#paint4_linear_118_12396)"/>
<path d="M10.5669 11.0436C10.5669 11.2899 10.7555 11.4904 10.9872 11.4904H11.8422C12.0739 11.4904 12.2624 11.2899 12.2624 11.0436C12.2624 10.7972 12.0739 10.5986 11.8422 10.5986H10.9872C10.7555 10.5986 10.5669 10.7972 10.5669 11.0436Z" fill="#F2F2E6"/>
<path d="M6.40381 9.50445C6.40381 9.72787 6.57444 9.90928 6.78279 9.90928H7.45634C7.66649 9.90928 7.83533 9.72787 7.83533 9.50445C7.83533 9.28102 7.6647 9.09961 7.45634 9.09961H6.78279C6.57444 9.09961 6.40381 9.28102 6.40381 9.50445Z" fill="#F2F2E6"/>
<path d="M4.35791 11.4064C4.35791 11.6412 4.53573 11.8303 4.75665 11.8303H5.36734C5.58826 11.8303 5.76608 11.6412 5.76608 11.4064C5.76608 11.1734 5.58826 10.9824 5.36734 10.9824H4.75665C4.53573 10.9824 4.35791 11.1715 4.35791 11.4064Z" fill="#F2F2E6"/>
<path d="M13.3262 12.3059C13.3262 12.7967 13.7016 13.1958 14.1632 13.1958C14.6248 13.1958 15.0002 12.7967 15.0002 12.3059C15.0002 11.8151 14.6248 11.416 14.1632 11.416C13.7016 11.416 13.3262 11.8151 13.3262 12.3059Z" fill="#BA751A"/>
<path d="M27.7715 14.9922C28.6455 14.9873 29.1826 14.543 29.4902 13.7031L31.6777 7.69727H30.5547L29.2168 11.8086H29.1582L27.8203 7.69727H26.707L28.6504 13.0684L28.5234 13.4199C28.2744 14.0889 28.0059 14.1084 27.6836 14.1133C27.5371 14.1084 27.332 14.1035 27.2148 14.0938V14.9629C27.3467 14.9824 27.5566 14.9873 27.7715 14.9922ZM35.7965 10.793C35.7965 11.6963 35.1275 12.1211 34.5465 12.1211C33.9117 12.1211 33.4723 11.6621 33.4723 10.9395V7.69727H32.4273V11.0664C32.4273 12.3799 33.15 13.0684 34.1754 13.0684C34.9713 13.0684 35.5133 12.6484 35.7574 12.082H35.816V13H36.8316V7.69727H35.7965V10.793ZM38.0012 13H39.0461V9.72852C39.0461 9.01562 39.5441 8.52734 40.1301 8.52734C40.7014 8.52734 41.0969 8.90332 41.0969 9.48438V13H42.132V9.62109C42.132 8.98633 42.5178 8.52734 43.1867 8.52734C43.7336 8.52734 44.1828 8.8252 44.1828 9.54297V13H45.2277V9.44531C45.2229 8.22949 44.5441 7.62891 43.5871 7.62891C42.8205 7.62891 42.2443 7.99512 41.9953 8.56641H41.9367C41.7121 7.97559 41.2189 7.62891 40.5109 7.62891C39.8127 7.62891 39.2902 7.97559 39.0656 8.56641H39.007V7.69727H38.0012V13ZM46.3875 13H47.4324V9.72852C47.4324 9.01562 47.9305 8.52734 48.5164 8.52734C49.0877 8.52734 49.4832 8.90332 49.4832 9.48438V13H50.5184V9.62109C50.5184 8.98633 50.9041 8.52734 51.573 8.52734C52.1199 8.52734 52.5691 8.8252 52.5691 9.54297V13H53.6141V9.44531C53.6092 8.22949 52.9305 7.62891 51.9734 7.62891C51.2068 7.62891 50.6307 7.99512 50.3816 8.56641H50.323C50.0984 7.97559 49.6053 7.62891 48.8973 7.62891C48.199 7.62891 47.6766 7.97559 47.452 8.56641H47.3934V7.69727H46.3875V13ZM55.223 14.9922C56.0971 14.9873 56.6342 14.543 56.9418 13.7031L59.1293 7.69727H58.0063L56.6684 11.8086H56.6098L55.2719 7.69727H54.1586L56.102 13.0684L55.975 13.4199C55.726 14.0889 55.4574 14.1084 55.1352 14.1133C54.9887 14.1084 54.7836 14.1035 54.6664 14.0938V14.9629C54.7982 14.9824 55.0082 14.9873 55.223 14.9922ZM59.8789 14.9922H60.9238V12.1699H60.9824C61.1729 12.5166 61.5537 13.1025 62.5156 13.1074C63.7998 13.1025 64.7324 12.0723 64.7324 10.3633C64.7324 8.63477 63.79 7.62891 62.5059 7.62891C61.5244 7.62891 61.168 8.22461 60.9824 8.55664H60.8945V7.69727H59.8789V14.9922ZM60.9043 10.3438C60.9043 9.24023 61.3828 8.5127 62.2812 8.51758C63.2139 8.5127 63.6777 9.29883 63.6777 10.3438C63.6777 11.4082 63.1992 12.2139 62.2812 12.2188C61.3926 12.2139 60.9043 11.457 60.9043 10.3438ZM65.6676 13H66.7125V7.69727H65.6676V13ZM65.5309 6.26172C65.5357 6.60352 65.8336 6.88184 66.1949 6.87695C66.5514 6.88184 66.8492 6.60352 66.8492 6.26172C66.8492 5.91992 66.5514 5.64648 66.1949 5.64648C65.8336 5.64648 65.5357 5.91992 65.5309 6.26172ZM67.7648 13H72.0324V12.1016H69.1809V12.0527L71.9348 8.44922V7.69727H67.8625V8.5957H70.6359V8.64453L67.7648 12.2871V13ZM72.909 13H77.1766V12.1016H74.325V12.0527L77.0789 8.44922V7.69727H73.0066V8.5957H75.7801V8.64453L72.909 12.2871V13ZM77.9262 11.5059C77.9213 12.541 78.7074 13.1172 79.7133 13.1172C80.5922 13.1172 81.0805 12.6729 81.2855 12.2773H81.3246V13H82.3402V9.47461C82.3354 7.93652 81.1049 7.62891 80.2602 7.62891C79.0053 7.62891 78.185 8.26367 78.0922 9.14258H79.1273C79.2348 8.75195 79.6059 8.46875 80.2211 8.46875C80.9291 8.46875 81.3002 8.81543 81.2953 9.41602L81.3002 9.84082C81.0561 9.85059 80.2602 9.89453 79.9086 9.91406C78.9516 9.98242 77.9213 10.2949 77.9262 11.5059ZM78.9418 11.5156C78.9418 10.9932 79.3715 10.7344 80.0551 10.6855C80.3041 10.6709 81.0609 10.6172 81.3002 10.6025L81.3051 11.0859C81.3051 11.7158 80.7973 12.2822 79.9477 12.2871C79.3617 12.2822 78.9418 12.0234 78.9418 11.5156ZM90.4336 5.08008H89.5156V10.0215H90.4336V5.08008ZM83.7246 9.43555H84.4473C85.9805 9.43066 87.2988 9.32812 88.7441 9.03516L88.6172 8.26367C87.2988 8.54688 86.0635 8.64453 84.6523 8.6543V5.58789H83.7246V9.43555ZM84.7012 13.7129H90.4336V10.4219H84.7012V13.7129ZM85.6094 12.9707V11.1543H89.5254V12.9707H85.6094Z" fill="#4F4F4F"/>
<defs>
<linearGradient id="paint0_linear_118_12396" x1="10.8852" y1="3" x2="10.8852" y2="4.77975" gradientUnits="userSpaceOnUse">
<stop stop-color="#F0BF44"/>
<stop offset="1" stop-color="#FF862E"/>
</linearGradient>
<linearGradient id="paint1_linear_118_12396" x1="10.8852" y1="3" x2="10.8852" y2="4.77975" gradientUnits="userSpaceOnUse">
<stop stop-color="#F0BF44"/>
<stop offset="1" stop-color="#FF862E"/>
</linearGradient>
<linearGradient id="paint2_linear_118_12396" x1="8.16389" y1="4.54297" x2="8.16389" y2="12.3055" gradientUnits="userSpaceOnUse">
<stop stop-color="#F7C157"/>
<stop offset="1" stop-color="#FBD385"/>
</linearGradient>
<linearGradient id="paint3_linear_118_12396" x1="9.92228" y1="6.51953" x2="9.92228" y2="9.6933" gradientUnits="userSpaceOnUse">
<stop stop-color="#F55A29"/>
<stop offset="1" stop-color="#FE8862"/>
</linearGradient>
<linearGradient id="paint4_linear_118_12396" x1="7.34054" y1="10.8652" x2="7.34054" y2="12.3051" gradientUnits="userSpaceOnUse">
<stop stop-color="#F55A29"/>
<stop offset="1" stop-color="#FE8862"/>
</linearGradient>
</defs>
</svg>
